<?xml version="1.0" encoding="utf-8"?>
<!-- Generator: Adobe Illustrator 25.2.3, SVG Export Plug-In . SVG Version: 6.00 Build 0)  -->
<svg version="1.1" id="f1410098-b6ef-424e-beee-8c1519bc1d1f"
	 xmlns="http://www.w3.org/2000/svg" xmlns:xlink="http://www.w3.org/1999/xlink" x="0px" y="0px" viewBox="0 0 915.7 679.3"
	 style="enable-background:new 0 0 915.7 679.3;" xml:space="preserve">
<style type="text/css">
	.st0{display:none;fill:#71BCED;}
	.st1{display:none;fill:#121549;}
	.st2{fill:none;stroke:#121549;stroke-width:5;stroke-miterlimit:10;}
	.st3{display:none;}
	.st4{display:inline;}
	.st5{fill:#F2218E;}
	.st6{display:none;fill:#F2218E;}
</style>
<g>
	<rect x="29.9" y="98.2" class="st0" width="885.1" height="580.8"/>
	<rect x="210.9" y="208.2" class="st1" width="704.1" height="264.4"/>
	<rect x="4" y="4" class="st2" width="591.5" height="548"/>
</g>
<g>
	<g class="st3">
		<g class="st4">
			<g>
				<path class="st5" d="M1283.3,311.9h9.8v48.4h21.9v8.7h-31.9L1283.3,311.9L1283.3,311.9z"/>
				<path class="st5" d="M1333.4,352.8l-4.5,16.1h-10.1l17.2-57.1h12.5l17.4,57.1h-10.5l-4.9-16.1H1333.4z M1348.6,345.1l-4.3-14.1
					c-1.1-3.6-1.8-7.4-2.7-10.7h-0.2c-0.9,3.3-1.6,7.4-2.5,10.7l-4.2,14.1H1348.6z"/>
				<path class="st5" d="M1385.2,369v-23.7l-17-33.3h11.2l6.3,14.7c1.8,4.2,3.3,7.4,4.7,11.2h0.2c1.3-3.6,2.9-7.1,4.7-11.4l6.3-14.7
					h11.1l-17.8,33v24.1L1385.2,369L1385.2,369z"/>
				<path class="st5" d="M1429.4,352.8l-4.5,16.1h-10.1l17.2-57.1h12.5l17.4,57.1h-10.5l-4.9-16.1H1429.4z M1444.8,345.1l-4.3-14.1
					c-1.1-3.6-1.8-7.4-2.7-10.7h-0.2c-0.9,3.3-1.6,7.4-2.5,10.7l-4.2,14.1H1444.8z"/>
				<path class="st5" d="M1516.6,340c0,19-10.9,30.1-25.7,30.1c-15,0-24.6-12.3-24.6-29.2c0-17.6,10.3-29.9,25.6-29.9
					C1507.5,311,1516.6,323.5,1516.6,340z M1476.7,340.7c0,11.6,5.4,20.8,14.9,20.8s14.7-9.4,14.7-21.4c0-10.9-5.1-20.8-14.7-20.8
					C1482,319.3,1476.7,328.9,1476.7,340.7z"/>
				<path class="st5" d="M1534.9,311.9v33.2c0,11.2,4.3,16.3,10.9,16.3c7.1,0,11.2-5.1,11.2-16.3v-33.2h9.8v32.6
					c0,17.6-8.5,25.4-21.4,25.4c-12.3,0-20.5-7.4-20.5-25.4v-32.6H1534.9z"/>
				<path class="st5" d="M1588.4,320.6H1573v-8.7h40.4v8.7H1598V369h-9.8v-48.4H1588.4z"/>
			</g>
		</g>
		<g class="st4">
			<g>
				<path class="st5" d="M1107.9,407.9c4.3-0.7,9.8-1.3,15.6-1.3c10.1,0,16.9,2.2,21.9,6.7c5.3,4.5,8.5,11.2,8.5,21
					c0,10.1-3.3,17.8-8.3,22.7c-5.3,5.1-13.8,7.8-24.3,7.8c-5.6,0-10-0.4-13.2-0.7L1107.9,407.9L1107.9,407.9z M1117.7,456.3
					c1.4,0.2,3.4,0.2,5.4,0.2c12.7,0.2,20.1-7.4,20.1-21.9c0-12.5-6.7-19.8-19-19.8c-3.1,0-5.3,0.2-6.7,0.5v41H1117.7z"/>
				<path class="st5" d="M1192.2,438.9h-20.1v16.7h22.5v8.5h-32.3V407h31.2v8.5h-21.4v14.7h20.1L1192.2,438.9L1192.2,438.9z"/>
				<path class="st5" d="M1202.9,452.9c3.3,1.8,8,3.6,12.9,3.6c6.3,0,9.8-3.1,9.8-7.8c0-4.3-2.7-6.9-9.4-9.4
					c-8.7-3.3-14.5-8.5-14.5-16.7c0-9.4,7.4-16.3,18.8-16.3c5.8,0,10.1,1.3,12.9,2.9l-2.4,8.5c-1.8-1.1-5.6-2.7-10.7-2.7
					c-6.2,0-8.7,3.6-8.7,6.9c0,4.3,3.1,6.3,10.1,9.4c9.2,3.8,13.8,8.7,13.8,17c0,9.1-6.5,17-20.3,17c-5.6,0-11.6-1.6-14.5-3.6
					L1202.9,452.9z"/>
				<path class="st5" d="M1254.2,407.2v57.1h-9.8v-57.1H1254.2z"/>
				<path class="st5" d="M1308.2,461.8c-3.4,1.3-10.1,3.3-17.2,3.3c-9.1,0-15.9-2.4-21-7.6c-4.7-4.9-7.4-12.3-7.4-21
					c0-18.1,12.1-29.7,29.7-29.7c6.5,0,11.8,1.4,14.3,2.7l-2.2,8.5c-2.9-1.4-6.5-2.4-12.1-2.4c-11.4,0-19.4,7.2-19.4,20.5
					c0,12.9,7.4,20.7,18.5,20.7c3.6,0,6.2-0.5,7.4-1.3v-14.3h-9.4V433h18.8V461.8L1308.2,461.8z"/>
				<path class="st5" d="M1318.1,464.3v-57.1h11.2l13.8,24.5c3.6,6.3,6.7,12.9,9.1,19h0.2c-0.7-7.6-0.9-15-0.9-23.6v-19.9h9.1v57.1
					h-10.1l-14-25.2c-3.4-6.3-7.1-13.2-9.6-19.8h-0.2c0.4,7.4,0.5,15,0.5,24.3v20.5L1318.1,464.3L1318.1,464.3z"/>
				<path class="st5" d="M1388.1,452.9c3.3,1.8,8,3.6,12.9,3.6c6.3,0,9.8-3.1,9.8-7.8c0-4.3-2.7-6.9-9.4-9.4
					c-8.7-3.3-14.5-8.5-14.5-16.7c0-9.4,7.4-16.3,18.8-16.3c5.8,0,10.1,1.3,12.9,2.9l-2.4,8.5c-1.8-1.1-5.6-2.7-10.7-2.7
					c-6.2,0-8.7,3.6-8.7,6.9c0,4.3,3.1,6.3,10.1,9.4c9.2,3.8,13.8,8.7,13.8,17c0,9.1-6.5,17-20.3,17c-5.6,0-11.6-1.6-14.5-3.6
					L1388.1,452.9z"/>
				<path class="st5" d="M1441.6,464.3v-23.7l-17-33.3h11.2l6.3,14.7c1.8,4.2,3.3,7.4,4.7,11.2h0.2c1.3-3.6,2.9-7.1,4.7-11.4
					l6.3-14.7h11.1l-17.8,33v24.1L1441.6,464.3L1441.6,464.3z"/>
				<path class="st5" d="M1485.2,415.9h-15.4v-8.7h40.4v8.7H1495v48.4h-9.8V415.9L1485.2,415.9z"/>
				<path class="st5" d="M1546.7,438.9h-20.1v16.7h22.5v8.5h-32.3V407h31.2v8.5h-21.4v14.7h20.1V438.9z"/>
				<path class="st5" d="M1602.9,440.9c-0.4-7.4-0.7-16.3-0.5-23.9h-0.2c-1.8,7.1-4,14.7-6.3,21.9l-7.8,24.6h-7.4l-7.1-24.3
					c-2.2-7.4-4-15-5.4-22.3h-0.2c-0.2,7.4-0.5,16.7-0.9,24.3l-1.3,22.8h-9.1l3.6-57.1h12.9l7.1,22.8c1.8,6.7,3.6,13.6,4.9,19.9h0.2
					c1.4-6.3,3.3-13.2,5.3-19.9l7.4-22.8h12.7l3.1,57.1h-9.4L1602.9,440.9z"/>
			</g>
		</g>
		<g class="st4">
			<g>
				<path class="st5" d="M1162.5,279.1c-2.2,1.3-7.4,2.5-14,2.5c-17,0-27.4-11.4-27.4-28.8c0-18.8,12.1-30.1,28.6-30.1
					c6.3,0,10.9,1.4,12.9,2.5l-2.2,8.3c-2.5-1.3-6-2.2-10.5-2.2c-10.9,0-18.8,7.2-18.8,21c0,12.5,6.9,20.5,18.7,20.5
					c4,0,8.2-0.9,10.7-2L1162.5,279.1z"/>
				<path class="st5" d="M1218.3,251.7c0,19-10.9,30.1-25.7,30.1c-15,0-24.6-12.3-24.6-29.2c0-17.6,10.3-29.9,25.6-29.9
					C1209,222.9,1218.3,235.4,1218.3,251.7z M1178.4,252.4c0,11.6,5.4,20.8,14.9,20.8s14.7-9.4,14.7-21.4c0-10.9-5.1-20.8-14.7-20.8
					C1183.5,231.1,1178.4,240.7,1178.4,252.4z"/>
				<path class="st5" d="M1271.7,257.5c-0.4-7.4-0.7-16.3-0.5-23.9h-0.2c-1.8,7.1-4,14.7-6.3,21.9l-7.8,24.6h-7.4l-7.1-24.3
					c-2.2-7.4-4-15-5.4-22.3h-0.2c-0.2,7.4-0.5,16.7-0.9,24.3l-1.3,22.8h-9.1l3.6-57.1h12.9l7.1,22.8c1.8,6.7,3.6,13.6,4.9,19.9h0.2
					c1.4-6.3,3.3-13.2,5.3-19.9l7.4-22.8h12.7l3.1,57.1h-9.4L1271.7,257.5z"/>
				<path class="st5" d="M1292.4,224.5c3.6-0.5,8.5-1.3,15-1.3c7.1,0,12.3,1.6,15.8,4.7c3.3,2.7,5.3,7.2,5.3,12.5
					c0,5.4-1.6,9.8-4.5,12.9c-4,4.2-10,6.2-16.9,6.2c-1.8,0-3.4-0.2-4.7-0.4v21.6h-9.8L1292.4,224.5L1292.4,224.5z M1302,251
					c1.3,0.4,2.9,0.5,4.7,0.5c7.4,0,11.8-4,11.8-10.5c0-6.3-4.2-9.8-10.9-9.8c-2.7,0-4.7,0.2-5.6,0.5V251L1302,251z"/>
				<path class="st5" d="M1384.3,251.7c0,19-10.9,30.1-25.7,30.1c-15,0-24.6-12.3-24.6-29.2c0-17.6,10.3-29.9,25.6-29.9
					C1375,222.9,1384.3,235.4,1384.3,251.7z M1344.2,252.4c0,11.6,5.4,20.8,14.9,20.8c9.4,0,14.7-9.4,14.7-21.4
					c0-10.9-5.1-20.8-14.7-20.8C1349.5,231.1,1344.2,240.7,1344.2,252.4z"/>
				<path class="st5" d="M1392.6,280.9v-57.1h11.2l13.8,24.5c3.6,6.3,6.7,12.9,9.1,19h0.2c-0.7-7.6-0.9-15-0.9-23.6v-19.9h9.1v57.1
					h-10.1l-14-25.2c-3.4-6.3-7.1-13.2-9.6-19.8h-0.2c0.4,7.4,0.5,15,0.5,24.3v20.5L1392.6,280.9L1392.6,280.9z"/>
				<path class="st5" d="M1476.2,255.5h-20.1v16.7h22.5v8.5h-32.3v-57.1h31.2v8.5h-21.4v14.7h20.1L1476.2,255.5L1476.2,255.5z"/>
				<path class="st5" d="M1487,280.9v-57.1h11.2l13.8,24.5c3.6,6.3,6.7,12.9,9.1,19h0.2c-0.7-7.6-0.9-15-0.9-23.6v-19.9h9.1v57.1
					h-10.1l-14-25.2c-3.4-6.3-7.1-13.2-9.6-19.8h-0.2c0.4,7.4,0.5,15,0.5,24.3v20.5L1487,280.9L1487,280.9z"/>
				<path class="st5" d="M1551,232.5h-15.4v-8.7h40.4v8.7h-15.4v48.2h-9.8L1551,232.5L1551,232.5z"/>
				<path class="st5" d="M1582.4,269.5c3.3,1.8,8,3.6,12.9,3.6c6.3,0,9.8-3.1,9.8-7.8c0-4.3-2.7-6.9-9.4-9.4
					c-8.7-3.3-14.5-8.5-14.5-16.7c0-9.4,7.4-16.3,18.8-16.3c5.8,0,10.1,1.3,12.9,2.9l-2.4,8.5c-1.8-1.1-5.6-2.7-10.7-2.7
					c-6.2,0-8.7,3.6-8.7,6.9c0,4.3,3.1,6.3,10.1,9.4c9.2,3.8,13.8,8.7,13.8,17c0,9.1-6.5,17-20.3,17c-5.6,0-11.6-1.6-14.5-3.6
					L1582.4,269.5z"/>
			</g>
		</g>
	</g>
	<g>
		
			<rect x="637.4" y="61.3" transform="matrix(0.6916 -0.7223 0.7223 0.6916 118.3355 570.9839)" class="st6" width="180.7" height="171.3"/>
		<path class="st5" d="M733.3,17l123.8,118.5c2.9,2.7,3.1,7.4,0.2,10.3L732.4,276.4c-2.7,2.9-7.4,3.1-10.3,0.2L598.3,158
			c-2.9-2.7-3.1-7.4-0.2-10.3L723,17.2C725.9,14.3,730.4,14.3,733.3,17z M841.7,141L728.4,32.6l-114.9,120L726.8,261L841.7,141z"/>
	</g>
	<g>
		<polygon class="st6" points="529.4,230 653.2,348.5 737.6,281.4 592.8,142.8 		"/>
		<path class="st5" d="M597.9,137.4L742.7,276c1.4,1.4,2.4,3.4,2.2,5.6c-0.2,2.2-1.1,4-2.7,5.4l-84.5,67.1c-2.9,2.4-6.9,2.2-9.6-0.4
			L524.3,235.2c-2.7-2.5-3.1-6.5-0.9-9.6l63.4-87.2c1.3-1.6,3.1-2.7,5.3-2.9C594.3,135.2,596.3,135.9,597.9,137.4z M726.6,280.9
			l-132.7-127l-54.7,75.4l114.5,109.6L726.6,280.9z"/>
	</g>
	<g>
		<path class="st6" d="M288.9,597.7c-14-10-33.5-8.5-45.9,4.3c-13.4,14.1-13,36.4,1.1,50c14.1,13.4,36.4,13,50-1.1
			c12.3-12.9,12.9-32.4,2.4-46c118.2-83.5,254.8-72.3,254.8-72.3l102-184l-61.8-59.3l-61.8-59.3L350.2,339.8
			C350.2,339.8,367.2,475.9,288.9,597.7z"/>
		<path class="st5" d="M534.5,224.7l123.8,118.5c2.4,2.4,2.9,6,1.3,8.9l-102,184c-1.4,2.5-4.2,4-6.9,3.8
			c-1.3-0.2-131.2-9.6-244.3,67.1c8.3,15.9,6,35.5-7.1,49.1c-16.3,17-43.3,17.6-60.2,1.3c-17-16.3-17.6-43.3-1.3-60.4
			c12.7-13.2,32.4-16.5,48.8-9.1c71.6-116.4,56.5-245.8,56.4-247c-0.4-2.9,0.9-5.6,3.4-7.1L525.6,224
			C528.5,222,532.1,222.4,534.5,224.7z M644.1,349.8L528.5,239L358,343.6c2.4,25,8.5,140.6-57.5,249.6
			c105.8-70.7,221.6-69.6,246.8-68.3L644.1,349.8z M249.2,646.6c11.2,10.7,29,10.3,39.7-0.9c9.6-10.1,10.5-25.4,1.8-36.4
			c-0.9-1.3-1.4-2.7-1.6-4.3c-1.6,0-3.1-0.4-4.3-1.3c-11.2-8-27-6.5-36.4,3.4C237.6,618.2,238,635.9,249.2,646.6z"/>
	</g>
	<g>
		<path class="st5" d="M596.5,284c2.9,2.7,3.1,7.4,0.2,10.3L448.6,448.9c-2.7,2.9-7.4,3.1-10.3,0.2c-2.9-2.7-3.1-7.4-0.2-10.3
			l148.1-154.6C588.8,281.3,593.6,281.3,596.5,284z"/>
	</g>
</g>
</svg>
