<?xml version="1.0" encoding="utf-8"?>
<!-- Generator: Adobe Illustrator 25.2.3, SVG Export Plug-In . SVG Version: 6.00 Build 0)  -->
<svg version="1.1" id="f1410098-b6ef-424e-beee-8c1519bc1d1f"
	 xmlns="http://www.w3.org/2000/svg" xmlns:xlink="http://www.w3.org/1999/xlink" x="0px" y="0px" viewBox="0 0 915.7 679.3"
	 style="enable-background:new 0 0 915.7 679.3;" xml:space="preserve">
<style type="text/css">
	.st0{fill:#0DC8FF;}
	.st1{fill:#E9F0FF;}
	.st2{fill:#F2218E;}
	.st3{fill:#F2F2F2;}
	.st4{opacity:0.3;fill:#0DC8FF;enable-background:new    ;}
	.st5{fill:#FFFFFF;}
	.st6{display:none;fill:#3F3D56;}
	.st7{opacity:0.996;fill:#E9F0FF;enable-background:new    ;}
</style>
<g id="Hero_Image" transform="translate(0 0.001)">
	<rect id="Rectangle_26" x="376.8" y="448.8" class="st0" width="406.5" height="110.1"/>
	<path id="Path_76" class="st1" d="M757.3,175.8l-16.2,7.7l14.4-10.7c-2.3-3.7-4.9-7.1-7.9-10.3L677.2,180l63.5-24.2
		c-2.9-2.6-6-4.9-9.2-7l-107.3,17.1c-11.4,14.3-17.6,32-17.6,50.1h161.5C768.1,201.9,764.3,188,757.3,175.8L757.3,175.8z"/>
	<path id="Path_92" class="st0" d="M120.4,669.2h672.4v1.8H120.4V669.2L120.4,669.2z"/>
	<path id="Path_78" class="st2" d="M686.3,216l-54.9-81.6c0,0,83.2,29,73.7,81.6H686.3L686.3,216z"/>
	<path id="Path_79" class="st0" d="M688.5,216l54.9-81.6c0,0-83.2,29-73.7,81.6H688.5L688.5,216z"/>
	<path id="Path_80" class="st0" d="M783.8,671H376.3V63.1h407.4V671H783.8z M378.3,669.2h403.6V65.1H378.3V669.2z"/>
	<rect id="Rectangle_28" x="377.8" y="77.6" class="st0" width="405.6" height="1.8"/>
	<circle id="Ellipse_4" class="st0" cx="388.2" cy="70.7" r="3.8"/>
	<circle id="Ellipse_5" class="st0" cx="398.7" cy="70.7" r="3.8"/>
	<circle id="Ellipse_6" class="st0" cx="409.1" cy="70.7" r="3.8"/>
	<rect id="Rectangle_29" x="392" y="90.6" class="st0" width="17.1" height="9.5"/>
	<rect id="Rectangle_30" x="392" y="165.7" class="st1" width="83.6" height="9.5"/>
	<rect id="Rectangle_31" x="689.4" y="90.6" class="st1" width="83.6" height="9.5"/>
	<rect id="Rectangle_32" x="392" y="181.8" class="st3" width="140.6" height="5.7"/>
	<rect id="Rectangle_33" x="392" y="194.2" class="st3" width="133" height="5.7"/>
	<rect id="Rectangle_34" x="392" y="206.5" class="st3" width="96.9" height="5.7"/>
	<rect id="Rectangle_35" x="424.4" y="375.7" class="st1" width="55.1" height="5.7"/>
	<rect id="Rectangle_36" x="424.4" y="387.9" class="st1" width="52.1" height="5.7"/>
	<rect id="Rectangle_37" x="424.4" y="400.4" class="st1" width="38" height="5.7"/>
	<rect id="Rectangle_38" x="552.6" y="375.7" class="st1" width="55.1" height="5.7"/>
	<rect id="Rectangle_39" x="552.6" y="387.9" class="st1" width="52.1" height="5.7"/>
	<rect id="Rectangle_40" x="552.6" y="400.4" class="st1" width="38" height="5.7"/>
	<rect id="Rectangle_41" x="685.6" y="375.7" class="st1" width="55.1" height="5.7"/>
	<rect id="Rectangle_42" x="685.6" y="387.9" class="st1" width="52.1" height="5.7"/>
	<rect id="Rectangle_43" x="685.6" y="400.4" class="st1" width="38" height="5.7"/>
	<rect id="Rectangle_44" x="509.8" y="591.2" class="st1" width="83.6" height="9.5"/>
	<rect id="Rectangle_45" x="509.8" y="607.3" class="st3" width="140.6" height="5.7"/>
	<rect id="Rectangle_46" x="509.8" y="619.7" class="st3" width="133" height="5.7"/>
	<rect id="Rectangle_47" x="509.8" y="632" class="st3" width="96.9" height="5.7"/>
	<rect id="Rectangle_48" x="417.2" y="268.2" class="st4" width="330.5" height="1.8"/>
	<rect id="Rectangle_49" x="416.8" y="301.5" class="st0" width="70.3" height="62.7"/>
	<rect id="Rectangle_50" x="544.9" y="301.5" class="st2" width="70.3" height="62.7"/>
	<rect id="Rectangle_51" x="677.9" y="301.5" class="st2" width="70.3" height="62.7"/>
	<path id="Path_81" class="st1" d="M570.9,364h-1c0-1,0.6-25.2,10.1-32l0.5,0.7C571.5,339.1,570.9,363.7,570.9,364z"/>
	<circle id="Ellipse_7" class="st1" cx="585" cy="327.1" r="4.7"/>
	<path id="Path_82" class="st1" d="M584,343.4c-2.5,0.7-5,0.9-7.5,0.4c3.2-4.1,8.5-5.9,13.5-4.7C588.6,341.1,586.5,342.6,584,343.4
		L584,343.4z"/>
	<path id="Path_83" class="st1" d="M703.9,364h-1c0-1,0.6-25.2,10.1-32l0.5,0.7C704.5,339.1,703.9,363.7,703.9,364z"/>
	<circle id="Ellipse_8" class="st1" cx="718" cy="327.1" r="4.7"/>
	<path id="Path_84" class="st1" d="M717,343.4c-2.5,0.7-5,0.9-7.5,0.4c2.6-3.2,6.4-5,10.6-5c1,0,2,0.1,2.9,0.4
		C721.6,341.1,719.5,342.6,717,343.4z"/>
	<rect id="Rectangle_52" x="392" y="483.9" class="st1" width="83.6" height="9.5"/>
	<rect id="Rectangle_53" x="392" y="500" class="st3" width="140.6" height="5.7"/>
	<rect id="Rectangle_54" x="392" y="512.3" class="st3" width="133" height="5.7"/>
	<rect id="Rectangle_55" x="392" y="524.7" class="st3" width="96.9" height="5.7"/>
	<circle id="Ellipse_9" class="st1" cx="701.4" cy="497" r="29.6"/>
	<circle id="Ellipse_11" class="st0" cx="270.9" cy="551" r="83.5"/>
	<rect id="Rectangle_56" x="232.8" y="616.6" class="st0" width="25.3" height="45.4"/>
	<rect id="Rectangle_57" x="283.6" y="616.6" class="st0" width="25.3" height="45.4"/>
	<ellipse id="Ellipse_12" class="st0" cx="253.8" cy="662.6" rx="21.3" ry="7.9"/>
	<ellipse id="Ellipse_13" class="st0" cx="304.6" cy="661.5" rx="21.3" ry="7.9"/>
	<circle id="Ellipse_14" class="st5" cx="273" cy="529.8" r="28.6"/>
	<circle id="Ellipse_15" class="st0" cx="273" cy="517.2" r="9.6"/>
	
		<ellipse id="Ellipse_16" transform="matrix(0.4214 -0.9069 0.9069 0.4214 -222.4854 568.152)" class="st0" cx="334" cy="458.4" rx="41.8" ry="13.1"/>
	
		<ellipse id="Ellipse_17" transform="matrix(0.8838 -0.4678 0.4678 0.8838 -205.3769 140.7675)" class="st0" cx="180.7" cy="483.9" rx="13.1" ry="41.8"/>
	<circle id="Ellipse_26" class="st0" cx="286.4" cy="350.7" r="77.7"/>
	
		<rect id="Rectangle_60" x="227.3" y="415.6" transform="matrix(0.1781 -0.984 0.984 0.1781 -216.3277 595.657)" class="st0" width="42.3" height="23.5"/>
	
		<rect id="Rectangle_61" x="273.8" y="424" transform="matrix(0.1781 -0.984 0.984 0.1781 -186.4267 648.3851)" class="st0" width="42.3" height="23.5"/>
	
		<ellipse id="Ellipse_27" transform="matrix(0.6462 -0.7632 0.7632 0.6462 -247.9997 388.8835)" class="st0" cx="295.4" cy="461.9" rx="7.4" ry="19.8"/>
	
		<ellipse id="Ellipse_28" transform="matrix(0.6462 -0.7632 0.7632 0.6462 -257.9587 351.0921)" class="st0" cx="249.7" cy="453.8" rx="7.4" ry="19.8"/>
	<circle id="Ellipse_29" class="st5" cx="291.9" cy="331.8" r="26.6"/>
	<circle id="Ellipse_30" class="st0" cx="302.8" cy="322.2" r="8.9"/>
	
		<ellipse id="Ellipse_31" transform="matrix(0.9748 -0.223 0.223 0.9748 -66.048 88.3491)" class="st0" cx="358.2" cy="336.6" rx="38.9" ry="12.2"/>
	
		<ellipse id="Ellipse_32" transform="matrix(0.9748 -0.223 0.223 0.9748 -75.5305 54.9467)" class="st0" cx="205.5" cy="361.9" rx="38.9" ry="12.2"/>
	<rect x="-22" y="-28" class="st6" width="997" height="757"/>
	<path id="Path_89" class="st5" d="M265,381.4c-1.8,9.6,4.6,18.9,14.3,20.6c9.6,1.8,18.9-4.6,20.6-14.3v-0.1
		c1.8-9.6-5.7-13-15.2-14.8C275,371.2,266.8,371.8,265,381.4z"/>
	
		<rect id="Rectangle_62" x="401.9" y="269" transform="matrix(0.2872 -0.9579 0.9579 0.2872 17.4912 631.8246)" class="st2" width="62.7" height="70.3"/>
	<path id="Path_90" class="st1" d="M415.5,331.2l-0.9-0.2c0.4-1,7.9-24,18.8-27.7l0.2,0.9C423.2,307.7,415.6,331,415.5,331.2z"/>
	<circle id="Ellipse_33" class="st1" cx="439.6" cy="300" r="4.7"/>
	<path id="Path_91" class="st1" d="M434,315.4c-2.6,0-5-0.6-7.3-1.8c4.2-2.9,9.8-3.2,14.3-0.6C439,314.4,436.5,315.2,434,315.4
		L434,315.4z"/>
	<path id="Path_97" class="st7" d="M646.5,490.3c11.6,0,20.8,9.3,20.8,20.8c0,11.6-9.3,20.8-20.8,20.8c-11.6,0-20.8-9.3-20.8-20.8
		C625.7,499.7,635,490.3,646.5,490.3L646.5,490.3z"/>
</g>
<g id="iQzmt7.tif">
</g>
</svg>
