<?xml version="1.0" encoding="utf-8"?>
<!-- Generator: Adobe Illustrator 25.2.3, SVG Export Plug-In . SVG Version: 6.00 Build 0)  -->
<svg version="1.1" id="f1410098-b6ef-424e-beee-8c1519bc1d1f"
	 xmlns="http://www.w3.org/2000/svg" xmlns:xlink="http://www.w3.org/1999/xlink" x="0px" y="0px" viewBox="0 0 915.7 679.3"
	 style="enable-background:new 0 0 915.7 679.3;" xml:space="preserve">
<style type="text/css">
	.st0{fill:#223396;}
	.st1{fill:#425293;}
	.st2{fill:none;stroke:#F2218E;stroke-width:5;stroke-miterlimit:10;}
	.st3{fill:#FFFFFF;}
	.st4{fill:none;stroke:#3F3D56;stroke-miterlimit:10;}
	.st5{fill:none;stroke:#FFFFFF;stroke-miterlimit:10;}
	.st6{fill:#F2F2F2;}
</style>
<g>
	<rect x="-2.1" y="97.2" class="st0" width="885.1" height="580.8"/>
	<rect x="-3.1" y="207.2" class="st1" width="704.1" height="264.4"/>
	<rect x="319" y="3" class="st2" width="591.5" height="548"/>
	<g>
		<g>
			<path class="st3" d="M20.5,240c1.7-0.3,3.9-0.5,7-0.5c3.3,0,5.7,0.7,7.3,2c1.5,1.2,2.4,3.2,2.4,5.5c0,2.4-0.7,4.3-2.1,5.6
				c-1.8,1.8-4.6,2.7-7.9,2.7c-0.9,0-1.6,0-2.2-0.2v9.4h-4.5C20.5,264.5,20.5,240,20.5,240z M25,251.6c0.6,0.2,1.3,0.2,2.2,0.2
				c3.4,0,5.5-1.7,5.5-4.6c0-2.7-1.9-4.2-5.1-4.2c-1.3,0-2.2,0.1-2.6,0.2V251.6z"/>
			<path class="st3" d="M41.1,239.7h4.6v21.1h10.2v3.8H41.1V239.7z"/>
			<path class="st3" d="M63.9,239.7v14.5c0,4.9,2,7.1,5.1,7.1c3.3,0,5.2-2.2,5.2-7.1v-14.5h4.6v14.2c0,7.7-4,11.1-10,11.1
				c-5.7,0-9.5-3.2-9.5-11.1v-14.3h4.6C63.9,239.6,63.9,239.7,63.9,239.7z"/>
			<path class="st3" d="M104,263.5c-1.6,0.6-4.7,1.4-8,1.4c-4.2,0-7.4-1.1-9.8-3.3c-2.2-2.1-3.5-5.4-3.5-9.2
				c0-7.9,5.6-12.9,13.9-12.9c3.1,0,5.5,0.6,6.6,1.2l-1,3.7c-1.4-0.6-3-1.1-5.7-1.1c-5.3,0-9.1,3.1-9.1,8.9c0,5.7,3.5,9,8.7,9
				c1.6,0,2.9-0.2,3.4-0.5v-6.2h-4.4v-3.6h8.8L104,263.5L104,263.5z"/>
			<path class="st3" d="M113.1,239.7v24.9h-4.6v-24.9L113.1,239.7L113.1,239.7z"/>
			<path class="st3" d="M118.3,264.6v-24.9h5.2l6.4,10.7c1.6,2.8,3.1,5.6,4.2,8.4h0.1c-0.3-3.3-0.4-6.5-0.4-10.3v-8.7h4.2v24.9h-4.7
				l-6.5-11c-1.6-2.7-3.2-5.8-4.5-8.6h-0.1c0.2,3.2,0.2,6.5,0.2,10.6v8.9H118.3z"/>
			<path class="st3" d="M143.2,259.6c1.5,0.8,3.7,1.6,6,1.6c2.9,0,4.5-1.4,4.5-3.4c0-1.9-1.3-3-4.4-4.1c-4.1-1.5-6.7-3.7-6.7-7.2
				c0-4.1,3.4-7.2,8.8-7.2c2.7,0,4.7,0.6,6,1.2l-1.1,3.7c-0.9-0.5-2.6-1.2-5-1.2c-2.9,0-4.1,1.5-4.1,3c0,1.9,1.4,2.8,4.8,4.1
				c4.3,1.7,6.4,3.8,6.4,7.4c0,4-3,7.5-9.4,7.5c-2.6,0-5.4-0.8-6.7-1.6L143.2,259.6z"/>
			<path class="st3" d="M20.5,284.3c1.7-0.3,3.9-0.5,7-0.5c3.3,0,5.7,0.7,7.3,2c1.5,1.2,2.4,3.2,2.4,5.5c0,2.4-0.7,4.3-2.1,5.6
				c-1.8,1.8-4.6,2.7-7.9,2.7c-0.9,0-1.6,0-2.2-0.2v9.4h-4.5C20.5,308.8,20.5,284.3,20.5,284.3z M25,296c0.6,0.2,1.3,0.2,2.2,0.2
				c3.4,0,5.5-1.7,5.5-4.6c0-2.7-1.9-4.2-5.1-4.2c-1.3,0-2.2,0.1-2.6,0.2V296z"/>
			<path class="st3" d="M63.2,296.2c0,8.3-5.1,13.1-11.9,13.1c-7,0-11.5-5.4-11.5-12.7c0-7.6,4.8-13.1,11.9-13.1
				C59,283.6,63.2,289.1,63.2,296.2z M44.6,296.6c0,5.1,2.6,9.1,6.9,9.1c4.4,0,6.9-4.1,6.9-9.3c0-4.7-2.3-9.1-6.9-9.1
				C47.1,287.3,44.6,291.5,44.6,296.6z"/>
			<path class="st3" d="M67.1,304c1.5,0.8,3.7,1.6,6,1.6c2.9,0,4.5-1.4,4.5-3.4c0-1.9-1.3-3-4.4-4.1c-4.1-1.5-6.7-3.7-6.7-7.2
				c0-4.1,3.4-7.2,8.8-7.2c2.7,0,4.7,0.6,6,1.2l-1.1,3.7c-0.9-0.5-2.6-1.2-5-1.2c-2.9,0-4.1,1.5-4.1,3c0,1.9,1.4,2.8,4.8,4.1
				c4.3,1.7,6.4,3.8,6.4,7.4c0,4-3,7.5-9.4,7.5c-2.6,0-5.4-0.8-6.7-1.6L67.1,304z"/>
			<path class="st3" d="M91.1,287.9H84V284h18.9v3.8h-7.2V309h-4.6C91.1,309,91.1,287.9,91.1,287.9z"/>
			<path class="st3" d="M105.7,304c1.5,0.8,3.7,1.6,6,1.6c2.9,0,4.5-1.4,4.5-3.4c0-1.9-1.3-3-4.4-4.1c-4.1-1.5-6.7-3.7-6.7-7.2
				c0-4.1,3.4-7.2,8.8-7.2c2.7,0,4.7,0.6,6,1.2l-1.1,3.7c-0.9-0.5-2.6-1.2-5-1.2c-2.9,0-4.1,1.5-4.1,3c0,1.9,1.4,2.8,4.8,4.1
				c4.3,1.7,6.4,3.8,6.4,7.4c0,4-3,7.5-9.4,7.5c-2.6,0-5.4-0.8-6.7-1.6L105.7,304z"/>
			<path class="st3" d="M25,328.4v14.5c0,4.9,2,7.1,5.1,7.1c3.3,0,5.2-2.2,5.2-7.1v-14.5h4.6v14.2c0,7.7-4,11.1-10,11.1
				c-5.7,0-9.5-3.2-9.5-11.1v-14.3L25,328.4L25,328.4z"/>
			<path class="st3" d="M45,348.3c1.5,0.8,3.7,1.6,6,1.6c2.9,0,4.5-1.4,4.5-3.4c0-1.9-1.3-3-4.4-4.1c-4.1-1.5-6.7-3.7-6.7-7.2
				c0-4.1,3.4-7.2,8.8-7.2c2.7,0,4.7,0.6,6,1.2l-1.1,3.7c-0.9-0.5-2.6-1.2-5-1.2c-2.9,0-4.1,1.5-4.1,3c0,1.9,1.4,2.8,4.8,4.1
				c4.3,1.7,6.4,3.8,6.4,7.4c0,4-3,7.5-9.4,7.5c-2.6,0-5.4-0.8-6.7-1.6L45,348.3z"/>
			<path class="st3" d="M78.2,342.3h-9.4v7.3h10.5v3.7h-15v-24.9h14.5v3.7h-10v6.4h9.4V342.3z"/>
			<path class="st3" d="M83.3,328.7c1.7-0.3,4.3-0.5,6.9-0.5c3.6,0,6,0.6,7.7,2c1.4,1.1,2.1,2.9,2.1,5c0,3.2-2.2,5.4-4.5,6.2v0.1
				c1.8,0.7,2.9,2.4,3.5,4.8c0.8,3.1,1.5,6,2,6.9h-4.7c-0.4-0.7-1-2.8-1.7-5.9c-0.7-3.2-1.9-4.3-4.5-4.4h-2.3v10.2h-4.5V328.7z
				 M87.8,339.7h2.7c3.1,0,5-1.6,5-4.1c0-2.7-1.9-4-4.9-4c-1.4,0-2.4,0.1-2.8,0.2C87.8,331.8,87.8,339.7,87.8,339.7z"/>
			<path class="st3" d="M104.2,348.3c1.5,0.8,3.7,1.6,6,1.6c2.9,0,4.5-1.4,4.5-3.4c0-1.9-1.3-3-4.4-4.1c-4.1-1.5-6.7-3.7-6.7-7.2
				c0-4.1,3.4-7.2,8.8-7.2c2.7,0,4.7,0.6,6,1.2l-1.1,3.7c-0.9-0.5-2.6-1.2-5-1.2c-2.9,0-4.1,1.5-4.1,3c0,1.9,1.4,2.8,4.8,4.1
				c4.3,1.7,6.4,3.8,6.4,7.4c0,4-3,7.5-9.4,7.5c-2.6,0-5.4-0.8-6.7-1.6L104.2,348.3z"/>
			<path class="st3" d="M25.2,376.6h-7.1v-3.8H37v3.8h-7.2v21.1h-4.6C25.2,397.7,25.2,376.6,25.2,376.6z"/>
			<path class="st3" d="M62,385c0,8.3-5.1,13.1-11.9,13.1c-7,0-11.5-5.4-11.5-12.7c0-7.6,4.8-13.1,11.9-13.1
				C57.7,372.3,62,377.8,62,385z M43.4,385.3c0,5.1,2.6,9.1,6.9,9.1c4.4,0,6.9-4.1,6.9-9.3c0-4.7-2.3-9.1-6.9-9.1
				C45.8,376,43.4,380.2,43.4,385.3z"/>
			<path class="st3" d="M88,385c0,8.3-5.1,13.1-11.9,13.1c-7,0-11.5-5.4-11.5-12.7c0-7.6,4.8-13.1,11.9-13.1
				C83.7,372.3,88,377.8,88,385z M69.4,385.3c0,5.1,2.6,9.1,6.9,9.1c4.4,0,6.9-4.1,6.9-9.3c0-4.7-2.3-9.1-6.9-9.1
				C71.8,376,69.4,380.2,69.4,385.3z"/>
			<path class="st3" d="M91.9,372.8h4.6v21.1h10.2v3.8H91.9V372.8z"/>
			<path class="st3" d="M110.1,392.7c1.5,0.8,3.7,1.6,6,1.6c2.9,0,4.5-1.4,4.5-3.4c0-1.9-1.3-3-4.4-4.1c-4.1-1.5-6.7-3.7-6.7-7.2
				c0-4.1,3.4-7.2,8.8-7.2c2.7,0,4.7,0.6,6,1.2l-1.1,3.7c-0.9-0.5-2.6-1.2-5-1.2c-2.9,0-4.1,1.5-4.1,3c0,1.9,1.4,2.8,4.8,4.1
				c4.3,1.7,6.4,3.8,6.4,7.4c0,4-3,7.5-9.4,7.5c-2.6,0-5.4-0.8-6.7-1.6L110.1,392.7z"/>
			<path class="st3" d="M25.5,435l-2.1,7h-4.7l8-24.9h5.8l8.1,24.9h-4.9l-2.3-7H25.5z M32.6,431.6l-2-6.1c-0.5-1.5-0.9-3.2-1.3-4.7
				h-0.1c-0.4,1.5-0.7,3.2-1.2,4.7l-1.9,6.2h6.5V431.6z"/>
			<path class="st3" d="M44,417.4c1.7-0.3,3.9-0.5,7-0.5c3.3,0,5.7,0.7,7.3,2c1.5,1.2,2.4,3.2,2.4,5.5c0,2.4-0.7,4.3-2.1,5.6
				c-1.8,1.8-4.6,2.7-7.9,2.7c-0.9,0-1.6,0-2.2-0.2v9.4H44V417.4z M48.5,429.1c0.6,0.2,1.3,0.2,2.2,0.2c3.4,0,5.5-1.7,5.5-4.6
				c0-2.7-1.9-4.2-5.1-4.2c-1.3,0-2.2,0.1-2.6,0.2C48.5,420.7,48.5,429.1,48.5,429.1z"/>
			<path class="st3" d="M64.6,417.4c1.7-0.3,3.9-0.5,7-0.5c3.3,0,5.7,0.7,7.3,2c1.5,1.2,2.4,3.2,2.4,5.5c0,2.4-0.7,4.3-2.1,5.6
				c-1.8,1.8-4.6,2.7-7.9,2.7c-0.9,0-1.6,0-2.2-0.2v9.4h-4.5C64.6,441.9,64.6,417.4,64.6,417.4z M69.1,429.1
				c0.6,0.2,1.3,0.2,2.2,0.2c3.4,0,5.5-1.7,5.5-4.6c0-2.7-1.9-4.2-5.1-4.2c-1.3,0-2.2,0.1-2.6,0.2V429.1z"/>
			<path class="st3" d="M99.2,431h-9.4v7.3h10.5v3.7h-15v-24.9h14.5v3.7h-10v6.4h9.4V431z"/>
			<path class="st3" d="M109.3,435l-2.1,7h-4.7l8-24.9h5.8l8.1,24.9h-4.9l-2.3-7H109.3z M116.5,431.6l-2-6.1
				c-0.5-1.5-0.9-3.2-1.3-4.7h-0.1c-0.4,1.5-0.7,3.2-1.2,4.7l-1.9,6.2h6.5V431.6z"/>
			<path class="st3" d="M127.8,417.5c1.7-0.3,4.3-0.5,6.9-0.5c3.6,0,6,0.6,7.7,2c1.4,1.1,2.1,2.9,2.1,5c0,3.2-2.2,5.4-4.5,6.2v0.1
				c1.8,0.7,2.9,2.4,3.5,4.8c0.8,3.1,1.5,6,2,6.9h-4.7c-0.4-0.7-1-2.8-1.7-5.9c-0.7-3.2-1.9-4.3-4.5-4.4h-2.3V442h-4.5V417.5z
				 M132.4,428.5h2.7c3.1,0,5-1.6,5-4.1c0-2.7-1.9-4-4.9-4c-1.4,0-2.4,0.1-2.8,0.2V428.5z"/>
			<path class="st3" d="M153.9,435l-2.1,7H147l8-24.9h5.8l8.1,24.9H164l-2.3-7H153.9z M161,431.6l-2-6.1c-0.5-1.5-0.9-3.2-1.3-4.7
				h-0.1c-0.4,1.5-0.7,3.2-1.2,4.7l-1.9,6.2h6.5V431.6z"/>
			<path class="st3" d="M172.4,442v-24.9h5.2l6.4,10.7c1.6,2.8,3.1,5.6,4.2,8.4h0.1c-0.3-3.3-0.4-6.5-0.4-10.3v-8.7h4.2V442h-4.7
				l-6.5-11c-1.6-2.7-3.2-5.8-4.5-8.6h-0.1c0.2,3.2,0.2,6.5,0.2,10.6v8.9h-4.1L172.4,442L172.4,442z"/>
			<path class="st3" d="M215.3,441.3c-1.1,0.5-3.5,1.1-6.5,1.1c-7.9,0-12.7-5-12.7-12.6c0-8.2,5.7-13.1,13.3-13.1c3,0,5.1,0.6,6,1.1
				l-1,3.6c-1.2-0.5-2.8-1-4.9-1c-5.1,0-8.7,3.2-8.7,9.2c0,5.5,3.2,9,8.7,9c1.8,0,3.8-0.4,5-0.9L215.3,441.3z"/>
			<path class="st3" d="M233.1,431h-9.4v7.3h10.5v3.7h-15.1v-24.9h14.5v3.7h-10v6.4h9.4v3.8H233.1z"/>
		</g>
	</g>
</g>
<g id="Image_CMS" transform="translate(0.5 0.5)">
	<path id="Path_161" class="st3" d="M389.6,309.8c7.8-12.2,22.6-20.5,39.6-20.5c25.1,0,45.5,18.1,45.5,40.3
		c0,14.2-8.3,26.8-20.9,33.9"/>
	<rect id="Rectangle_580" x="533.8" y="240.5" class="st3" width="274.2" height="56.4"/>
	<rect id="Rectangle_579" x="553.2" y="229.6" class="st4" width="274.2" height="56.4"/>
	<ellipse id="Ellipse_43" class="st3" cx="360.4" cy="182.5" rx="4.2" ry="4.2"/>
	<ellipse id="Ellipse_44" class="st3" cx="375" cy="182.5" rx="4.2" ry="4.2"/>
	<ellipse id="Ellipse_45" class="st3" cx="389.6" cy="182.5" rx="4.2" ry="4.2"/>
	<rect id="Rectangle_581" x="348.9" y="171.5" class="st5" width="509.6" height="331.2"/>
	<line id="Line_1" class="st3" x1="348.9" y1="189.9" x2="858.5" y2="189.9"/>
	<ellipse id="Ellipse_46" class="st4" cx="361.6" cy="180.6" rx="4.2" ry="4.2"/>
	<ellipse id="Ellipse_47" class="st4" cx="376.2" cy="180.6" rx="4.2" ry="4.2"/>
	<ellipse id="Ellipse_48" class="st4" cx="390.8" cy="180.6" rx="4.2" ry="4.2"/>
	<line id="Line_2" class="st3" x1="508.9" y1="188" x2="508.9" y2="501.3"/>
	<g>
		<rect id="Rectangle_584" x="571.1" y="337.9" class="st4" width="89.2" height="12.1"/>
		<rect id="Rectangle_585" x="566.2" y="438" class="st6" width="89.2" height="12.1"/>
		<rect id="Rectangle_586" x="571.1" y="431.9" class="st4" width="89.2" height="12.1"/>
		<rect id="Rectangle_587" x="566.5" y="389.8" class="st6" width="229.3" height="12.1"/>
		<rect id="Rectangle_588" x="571.4" y="384.9" class="st4" width="229.3" height="12.1"/>
		<rect id="Rectangle_589" x="711.2" y="337.9" class="st4" width="89.2" height="12.1"/>
		<rect id="Rectangle_583" x="706.4" y="344" class="st6" width="89.2" height="12.1"/>
		<rect id="Rectangle_582" x="566.2" y="344" class="st6" width="89.2" height="12.1"/>
	</g>
	<path id="Path_225" class="st0" d="M373.9,338.1c0,15.9,10.4,29.6,25.5,36l-21.6-52.3C375.2,326.9,373.9,332.5,373.9,338.1z
		 M449.7,336.1c-0.1-4-1.4-7.8-3.7-11c-2.3-3.3-4.4-6.1-4.4-9.4c0.1-4.1,3.5-7.2,7.6-7.1c0.2,0,0.4,0,0.6,0
		c-8.7-6.9-19.5-10.6-30.6-10.5c-14.7-0.3-28.8,6.4-37.8,18.1c1.1,0,2.1,0,2.9,0c4.7,0,12.1-0.5,12.1-0.5c0.9-0.2,1.8,0.4,1.9,1.3
		c0.2,0.9-0.4,1.8-1.3,1.9c-0.1,0-0.2,0-0.3,0c0,0-2.5,0.3-5.2,0.4l16.5,43.4l9.9-26.3l-7.1-17.1c-2.4-0.1-4.7-0.4-4.7-0.4
		c-0.9,0-1.7-0.7-1.7-1.6c0-0.9,0.7-1.7,1.6-1.7c0.1,0,0.2,0,0.3,0c0,0,7.5,0.5,11.9,0.5c4.7,0,12.1-0.5,12.1-0.5
		c0.9-0.2,1.8,0.4,1.9,1.3c0.2,0.9-0.4,1.8-1.3,1.9c-0.1,0-0.2,0-0.3,0c0,0-2.5,0.3-5.2,0.4l16.4,43.1l4.5-13.3
		C448.2,343.5,449.7,339.6,449.7,336.1L449.7,336.1z"/>
	<path id="Path_226" class="st0" d="M419.9,341.6l-13.6,34.9c9.2,2.4,18.8,2.2,27.8-0.6c-0.1-0.2-0.2-0.4-0.3-0.6L419.9,341.6z
		 M458.9,318.9c0.2,1.4,0.3,2.7,0.3,4.1c-0.1,5-1.3,9.9-3.4,14.3l-13.8,35.4c13.5-6.9,22.5-19.8,22.5-34.6
		C464.4,331.3,462.5,324.7,458.9,318.9z"/>
</g>
</svg>
