<?xml version="1.0" encoding="utf-8"?>
<!-- Generator: Adobe Illustrator 25.2.3, SVG Export Plug-In . SVG Version: 6.00 Build 0)  -->
<svg version="1.1" id="f1410098-b6ef-424e-beee-8c1519bc1d1f"
	 xmlns="http://www.w3.org/2000/svg" xmlns:xlink="http://www.w3.org/1999/xlink" x="0px" y="0px" viewBox="0 0 1033.7 679.3"
	 style="enable-background:new 0 0 1033.7 679.3;" xml:space="preserve">
<style type="text/css">
	.st0{display:none;fill:#1A2DD8;stroke:#000000;stroke-miterlimit:10;}
	.st1{display:none;fill:#C6B3FA;}
	.st2{fill:#FFFFFF;}
	.st3{display:none;fill:#FFFFFF;}
</style>
<rect x="-33" y="-147" class="st0" width="1105" height="927"/>
<g>
	<path class="st1" d="M680.3,1374.4c-0.1-0.1-0.3-0.1-0.4-0.1c-0.4-1.4-0.9-2.8-1.3-4.2c15.6,5.2,30.1,12.7,44.8,19.9
		c3,1.5,6.1,3,9.2,4.4c-1.6,1.3-3.2,2.7-4.8,4c-7.7-5-15.9-8.8-24.2-12.6C695.7,1382.2,688.2,1378,680.3,1374.4z"/>
	<path class="st1" d="M721.3,1403.7c-1.6,1.3-3.2,2.6-4.8,3.8c-5.5-2.3-10.6-5.3-16.2-7.4c-4.8-1.8-9.5-4.9-14.6-5.6
		c-0.6-2.2-1.2-4.4-1.8-6.6c5.7,2.8,11.9,5.1,17.7,7.8C708.1,1398.7,714.6,1401.5,721.3,1403.7z"/>
	<path class="st1" d="M611,1272c9.4,21.5,29.6,36.1,42.1,55.9c0.3-0.2,0.5-0.4,0.9-0.5c29.7-11.6,58.9-24.5,87.8-38
		c-2.7-0.6-5.4-1.2-8.1-1.7c-6.9-1.3-14.2-1.8-20.9-4c-0.6-0.2-0.3-1.1,0.3-1c10.4,2,21,3.7,31.4,5.4c3-1.4,5.9-2.8,8.8-4.2
		c-4.6-0.9-9.1-2.1-13.7-2.8c-6.5-1-12.8-2.2-19-4.4c-0.4-0.2-0.2-0.8,0.2-0.7c6.2,1.8,12.5,2.4,18.9,3.3c5.6,0.8,11,2.2,16.6,3.2
		c2.1-1,4.2-2,6.3-3c-11-2-21.8-4.7-32.7-6.8c-0.3-0.1-0.2-0.6,0.1-0.6c12,1.4,23.8,3.9,35.7,5.9c2.5-1.2,5.1-2.4,7.6-3.7
		c-11.6-1.3-23.6-3.6-34.6-7.2c-0.5-0.2-0.3-0.9,0.3-0.8c12.5,2.5,25.1,4.1,37.5,6.5c2.7-1.3,5.5-2.6,8.2-4
		c-11.4-1.4-23.3-3.8-34.2-7.2c-0.3-0.1-0.2-0.5,0.1-0.5c12.5,0.7,25,4.2,37.4,6.1c1.8-0.9,3.7-1.8,5.5-2.7
		c-10.6-2-20.8-6.3-31.5-6.8c-0.7,0-0.7-1.1,0.1-1.1c5.6,0.1,11,1.2,16.4,2.5c5.8,1.4,11.8,2.2,17.4,4c0.1,0,0.2,0.1,0.2,0.1
		c2.1-1,4.2-2.1,6.4-3.1c-9.4-2-18.6-5-28.1-6.5c-0.7-0.1-0.7-1.2,0.1-1.1c10.5,1.2,20.8,4,31.1,6.1c2.1-1.1,4.3-2.1,6.4-3.2
		c-8.5-1.3-17-2.7-25.3-5c-1-0.3-0.5-1.7,0.5-1.5c9.2,2.5,18.5,3.5,27.9,5c1.7-0.8,3.4-1.7,5.2-2.5c-7.3-1.1-14.5-2.6-21.7-3.9
		c-0.9-0.2-0.8-1.6,0.1-1.4c8.1,1.4,16.2,2.8,24.4,3.9c1.5-0.7,3-1.5,4.5-2.2c-6-0.9-11.9-2.3-17.8-3.4c-0.7-0.1-0.4-1.3,0.2-1.2
		c6.7,1.1,13.7,1.7,20.4,3.2c1.9-1,3.9-1.9,5.8-2.9c-5.6-0.7-11.2-2.2-16.8-3.1c-0.7-0.1-0.7-1.2,0.1-1.1c6.5,0.9,13,2,19.6,2.8
		c0.6-0.3,1.2-0.6,1.8-0.9c1.1-0.6,2.3-1.1,3.4-1.7c-3.5-0.4-7-1.1-10.5-1.5c-0.7-0.1-0.7-1.2,0.1-1.1c4.5,0.3,9,0.7,13.5,1.2
		c1.1-0.6,2.2-1.1,3.4-1.7c-1.9-0.3-3.9-0.7-5.8-1.3c-1-0.3-0.5-1.8,0.5-1.5c2.7,0.8,5.4,1.1,8.2,1.4c1.3-0.6,2.6-1.3,3.9-1.9
		c-0.2,0-0.4-0.1-0.6-0.1c-1.3-0.2-2.7-0.4-4-0.5c-0.9-0.1-0.9-1.4,0.1-1.4c2.3,0.1,5.1-0.1,7.4,0.6c24.1-12,48.1-24.3,71.9-36.9
		c19.7-10.4,44.9-23.9,64-28.2c-15.1,1.1-30,7.5-44.3,12c-15.6,5-31.4,9.6-47.3,13.7c-16.6,4.3-33.1,8.5-49.7,12.8
		c1.7,1.1,3.3,2.2,4.9,3.4c1.2,0.8,0.2,2.8-1.1,2c-2.5-1.6-5.2-2.9-7.9-4.3c-1.4,0.3-2.7,0.7-4.1,1c3.3,2.3,6.7,4.5,10.3,6.1
		c1.1,0.5,0.4,2.4-0.8,2c-5-1.7-10-4.1-14.7-6.8c-12.2,3.1-24.4,6.3-36.6,9.5c-33.1,8.7-65.8,18.6-98.6,28.2
		c-16.1,4.7-32.3,9.6-48.8,12.9c-15.4,3.1-30.9,6.2-45.4,12.4C611.7,1271.9,611.4,1272,611,1272z M676.5,1315.2
		c-1.6-1.8-2.7-4-4.1-6c-1.9-2.6-3.7-5.3-5.7-7.9c-0.5-0.6,0.6-1.5,1.1-0.9c3.6,4.3,6.6,9,10.1,13.3
		C678.7,1314.8,677.4,1316.2,676.5,1315.2z M672,1317.4c-3.6-7.2-10.7-12.6-14-20c-0.1-0.1,0-0.2,0.2-0.2c1.9,0.3,4.6,4.9,5.6,6.1
		c3.3,4,7.8,8.2,10,13C674.4,1317.5,672.6,1318.6,672,1317.4z M668.6,1318.2c-2.2-4-5.8-7.4-8.7-10.8c-3.7-4.3-7.7-8.2-11.7-12.1
		c-0.7-0.7,0.3-1.7,1-1.1c4.2,3.7,8.3,7.5,12.2,11.6c3.1,3.4,7.1,7,9.2,11.2C671.2,1318.3,669.3,1319.5,668.6,1318.2z M663.2,1321.4
		c-7-9.9-14.3-21.7-24-29.3c-0.3-0.2,0-0.6,0.3-0.5c4.5,1.1,9,7.5,12,10.8c5.1,5.6,9.4,11.6,13.8,17.7
		C666.2,1321.4,664.1,1322.6,663.2,1321.4z M659.1,1322.5c-7.8-12.2-18.2-22.8-28-33.4c-0.6-0.6,0.3-1.5,0.9-0.9
		c10.4,10.1,21.4,20.6,29,33.1C661.9,1322.6,659.9,1323.7,659.1,1322.5z M624.6,1285.1c5,7.5,12.6,13.4,18.5,20.3
		c4.8,5.6,9.6,12,13.3,18.3c0.8,1.3-1.2,2.5-2,1.2c-4.4-7.6-10.4-15.1-16-21.7c-4.9-5.8-11.1-10.8-14.9-17.5
		C623,1285,624.1,1284.4,624.6,1285.1z"/>
	<path class="st1" d="M721.9,1382.3c15.4,7.7,31.2,14.8,46.8,22.1c14.7,6.9,29.4,14.1,44.1,20.9c11.4,5.2,22.9,10.3,33,17.7
		c5.8-10,8.5-21.4,12.3-32.2c4.3-12.1,8.8-23.9,14.3-35.4c11.5-23.9,24.9-47.2,38.1-70.2c13.9-24.4,28.7-48.3,43.3-72.3
		c12.8-21.1,28.2-40.4,42-60.9c-23.9,17.3-49,33.1-73.5,49.4c-26.9,18-54.2,35.5-82.5,51.3c-27.6,15.5-55.6,29.8-82.4,46.8
		c-14,8.9-27.7,18.2-41.2,27.8c-9.5,6.8-19.6,13.7-30.4,18.6C698.3,1370.6,710.1,1376.5,721.9,1382.3z M929.6,1221.8
		c17.6-10.2,32.5-24.7,49.6-35.9c1.9-1.3,3.8,1.8,1.9,3.1c-17.1,11.1-32.5,24.7-50.6,34.3C929.5,1223.8,928.6,1222.4,929.6,1221.8z
		 M746.5,1390.1c-8.3-3.2-16.5-6.6-24.6-10.2c-8.5-3.8-16.5-9-25.2-12.2c-0.6-0.2-0.9-0.6-1.1-1c-0.3,0.1-0.6,0.3-1,0.4
		c-2,0.8-2.9-2.4-0.9-3.2c17.8-6.9,31-21.9,47.8-30c0.9-0.4,1.6,0.7,0.8,1.3c-14.3,9.8-27.3,22.3-43.1,29.9
		c6.7,2.8,12.8,6.7,19.3,10c9.4,4.8,19,9,28.5,13.7C747.8,1389.1,747.3,1390.5,746.5,1390.1z"/>
	<path class="st1" d="M715.2,1408.6c-1.6,1.3-3.1,2.5-4.6,3.8c-0.1,0-0.1,0.1-0.2,0.2c-7.6-2.6-15.3-6.1-22.6-9.6
		c-0.3-1.6-0.7-3.1-1.1-4.7c5,1.3,10.2,3.8,15,5.5C706.2,1405.3,710.6,1407.2,715.2,1408.6z"/>
	<path class="st1" d="M726.6,1399.4c-1.4,1.2-2.8,2.3-4.3,3.5c-13.5-5.3-26.6-12.6-39.4-19.2c-0.1,0-0.2-0.1-0.2-0.1
		c-0.5-1.7-1-3.3-1.5-5c7.8,3.6,15.3,7.8,23.2,11C711.9,1392.6,719.5,1395.6,726.6,1399.4z"/>
	<path class="st1" d="M655.9,1333.7c31-10.3,60.9-24.7,90.3-38.8c30.2-14.6,60.3-29.5,90.3-44.5c30.9-15.5,61.5-31.5,91.8-48.2
		c11.3-6.2,24.2-10.9,35.2-17.3c8.7-5.1,16.4-10,25.9-13.8c-24,14-46.8,30.5-70,45.5c-26.5,17.1-53.1,34.1-80.6,49.4
		c-27.7,15.4-55.9,29.5-82.7,46.4c-14,8.8-27.8,18-41.3,27.5c-11.6,8.1-24,17.1-37.4,21.8c-0.8,0.3-1.3,0.7-1.7,1.2
		c-2.5,0.7-3.1,5-0.1,6.1c1.9,10.1,3.6,20.2,5.2,30.3c-2.8-6-5.6-11.9-8.2-17.8c-6.8-15.6-13.2-31.2-18.1-47.4
		c0.1-0.1,0.1-0.2,0.2-0.3C655.1,1333.9,655.5,1333.9,655.9,1333.7z"/>
	<path class="st1" d="M708.4,1414.3c-1.5,1.4-2.9,2.9-4.3,4.4c-4.9-2.1-9.7-4.2-14.5-6.3c-0.3-1.8-0.6-3.5-1-5.3
		c3.2,1.3,6.5,2.3,9.7,3.6C701.7,1412.1,705,1413.5,708.4,1414.3z"/>
	<path class="st1" d="M693.2,1429c-0.6-1.9-1.3-3.7-2-5.6c1.9,1,4,1.8,6,2.5C696,1427,694.6,1428,693.2,1429z"/>
	<path class="st1" d="M702.3,1420.7c-1,1.1-2,2.2-3.1,3.3c-3.1-1.2-5.8-3-8.7-4.6c-0.1-1-0.2-1.9-0.4-2.9c1.8,0.7,3.7,1.2,5.5,1.9
		C697.9,1419.2,700.1,1420,702.3,1420.7z"/>
</g>
<g>
	<path class="st2" d="M697.1,373.7c0.3-0.1,0.8-0.3,1.1-0.6c7.9-6.6,11.1-16.2,17.2-24.1c6.4-8.5,13.5-16.5,18.4-26.1
		c12.5,3.1,25,5.9,37.6,8.9c16.3,3.9,32.4,8.3,48.8,11.7c15,3.1,30.4,5.8,44.1,13c2.2,1.2,4.3-1.7,2.9-3.2c0-0.1,0.1-0.1,0.1-0.2
		c4.3-12,4.7-24.7,6.6-37.2c2.1-14.9,4.5-29.6,8.4-44.1c7.6-27.9,16.6-55.5,25.8-83c9.7-29,20.2-57.6,30.4-86.3
		c9.3-26.2,24.6-50.7,31.1-77.7c0.3-1.2-0.6-2.1-1.6-2.1c-0.4-0.4-1-0.5-1.6-0.4c-0.2-0.3-0.3-0.5-0.8-0.4
		c-16.8,1-32.5,11.3-47.3,18.7c-15.9,8-31.7,16.1-47.8,23.6c-19.6,9.1-39.1,18.1-58.7,27.2c-3.7-1.4-7.4-2.6-11-3.7
		c-1.8-0.5-3.2,2.1-1.5,3.1c2.2,1.2,4.8,2.2,7.1,3.1c-1,0.4-2,1-3,1.4c-2-0.8-4.1-1.4-6.3-1.8c-2.6-0.5-3.8,2.8-1.2,3.9
		c0.5,0.2,1.1,0.5,1.7,0.6c-9.5,4.4-18.9,9-28.4,13.4c-34.3,16.4-68.1,34.1-101.8,51.5c-16.2,8.3-32.5,16.9-49.3,23.8
		c-15.8,6.5-31.6,13-45.8,22.7c-0.6,0.4-1,0.9-1.2,1.4c-1.7-1.9-5.1,0.3-3.8,2.8c13.9,26.8,42.7,39.1,61.9,61.3
		c0.8,0.9,1.6,1.2,2.4,1c7.6,17.5,17.8,33.8,28.4,49.7c8.8,13.1,17.1,26.6,25.9,39.7c0.8,2.3,1.6,4.5,2.5,6.7
		c0.5,1.5,1.9,1.8,3.2,1.6C693,375.9,695.9,375.4,697.1,373.7z M634.3,274.1c0.1-0.1,0.1-0.2,0.2-0.4c0.3-0.1,0.8-0.2,1.2-0.5
		c30.9-17.5,59.7-39,88-60.2c29.2-21.8,58.1-44,86.8-66.3c29.7-23,58.9-46.4,87.7-70.5c10.7-9,23.4-16.6,33.9-25.8
		c8.2-7.3,15.4-14.1,24.8-20c-22.6,19.9-43.4,42.2-65,63.2c-24.6,23.7-49.4,47.4-75.6,69.4c-26.2,22.2-53.2,43-78.3,66.7
		c-13.1,12.4-25.9,25-38.3,38c-10.7,11.1-21.9,23.2-35.2,31.1c-0.7,0.5-1.2,1.1-1.5,1.7c-2.6,1.2-2.3,5.9,1.2,6.5
		c4.1,10.4,8,20.7,11.8,31.1c-4.2-5.7-8.4-11.5-12.5-17.3C652.9,305.6,642.9,290.3,634.3,274.1z M962.8,24.3
		c-19.4,8.5-43.5,28.1-62.3,43.4c-22.7,18.5-45.7,36.5-68.9,54.4c-2.6-0.2-5.6,0.5-8.1,1c-1,0.2-0.7,1.5,0.2,1.5
		c1.5-0.2,2.9-0.2,4.4-0.3c0.2,0,0.4,0,0.6,0c-1.2,0.9-2.5,1.9-3.8,2.8c-3,0.3-5.9,0.6-9,0.3c-1.1-0.1-1.3,1.5-0.3,1.7
		c2.1,0.2,4.2,0.2,6.4,0.1c-1.1,0.8-2.1,1.7-3.2,2.5c-4.8,0.5-9.7,1-14.6,1.6c-0.8,0.2-0.6,1.3,0.2,1.2c3.8-0.3,7.6-0.3,11.4-0.5
		c-1.1,0.8-2.1,1.7-3.2,2.5c-0.6,0.5-1.2,0.9-1.7,1.4c-7.1,0.5-14.3,0.6-21.5,1.1c-0.8,0-0.6,1.3,0.2,1.2c6.2-0.2,12.4,0.1,18.5-0.3
		c-1.8,1.4-3.8,2.8-5.6,4.2c-7.4-0.2-14.9,0.6-22.3,0.9c-0.7,0-0.7,1.3,0,1.3c6.5,0,13.1,0.2,19.7-0.1c-1.4,1.1-2.8,2.2-4.3,3.3
		c-8.9,0.5-17.8,0.7-26.8,0.9c-0.9,0.1-0.7,1.5,0.2,1.5c8-0.2,16,0,23.9-0.4c-1.6,1.3-3.4,2.5-5,3.8c-10.3,0.4-20.5,1.2-30.7,0.5
		c-1.1,0-1.3,1.5-0.3,1.7c9.4,0.7,18.6,0.4,28,0c-2,1.6-4.2,3.2-6.2,4.7c-11.4-0.1-23-1-34.4,0c-0.8,0-0.6,1.3,0.2,1.2
		c10.4-0.4,20.8,0.9,31.2,1c-2,1.6-4.1,3.1-6.1,4.7c-0.1,0-0.1-0.1-0.2-0.1c-6.3-0.7-13-0.4-19.4-0.6c-6.1-0.3-12-0.3-18,0.7
		c-0.8,0.2-0.6,1.3,0.2,1.2c11.6-1.7,23.3,0.7,35,0.6c-1.7,1.3-3.6,2.7-5.3,4c-13.5,0.6-27.6-0.5-41,1.3c-0.3,0.1-0.4,0.5,0,0.6
		c12.3,1.3,25.4,1.4,37.9,0.5c-2.6,2-5.3,4-7.9,6c-13.8,0-27.5,1.1-41.3,0.9c-0.6,0-0.8,0.9-0.2,1c12.5,1.5,25.7,1.5,38.3,0.4
		c-2.4,1.9-4.9,3.6-7.3,5.5c-13.1,0.4-26.2,0.1-39.3,1.2c-0.3,0.1-0.3,0.6,0,0.7c12.1,0,24.1,0.5,36.2,0.3c-2,1.6-4.1,3-6.1,4.6
		c-6.2,0.2-12.2-0.3-18.3,0.1c-6.9,0.4-13.8,1-20.8,0.5c-0.5,0-0.6,0.7-0.1,0.8c7.1,0.9,14.1,1,21.1,0.7c5.1-0.2,10.1,0.1,15.1,0.2
		c-2.9,2.1-5.7,4.2-8.6,6.2c-11.5,0.3-23.2,0.7-34.6,0.7c-0.7,0-0.9,1-0.1,1.1c7.5,1,15.5-0.1,23.1-0.1c3,0,6,0.1,9,0.1
		c-27.9,20.4-56.2,40.2-85.5,58.8c-0.3,0.2-0.6,0.5-0.8,0.7c-17.5-18.4-42-29.8-56.5-50.7c0.3-0.1,0.8-0.3,1.1-0.6
		c14.2-9.7,29.9-16.1,45.7-22.7c16.8-7,33.1-15.6,49.3-23.9c32.9-17.1,65.7-34.4,99-50.6c12.3-5.9,24.6-11.8,37-17.8
		c5.6,1.8,11.4,3.4,17.2,4.2c1.3,0.2,1.8-2,0.5-2.3c-4.3-1-8.2-2.7-12.3-4.4c1.4-0.6,2.8-1.4,4.2-2c3.2,0.9,6.3,1.8,9.3,2.9
		c1.5,0.5,2.2-1.7,0.8-2.4c-1.9-0.9-3.9-1.7-6-2.6c16.7-8,33.5-15.9,50.2-24c16.1-7.7,31.9-15.9,47.6-24.5
		C932.5,38.5,947,28.6,962.8,24.3z M716.1,311.2c-13.8-3.8-27.6-7.5-41.7-9.9c10.4-7.4,19.8-16.9,28.5-26.1
		c12.4-13,25-25.9,38.1-38.3c25-23.7,51.7-44.8,77.9-67.1c26.8-22.8,52.2-47,77.1-71.8c22.6-22.5,46-44.6,67.9-68
		c-10.3,24.7-22.7,48.4-32,73.6c-10.5,28.6-21.3,57.1-30.9,86.1c-9.1,27.3-18.6,54.9-25.8,82.8c-3.5,13.5-5.8,26.9-7.9,40.7
		c-1.9,12.4-2.3,25.1-6.4,36.9c-12.3-5.7-25.6-8.7-38.9-12c-17.1-4.1-34.2-8.7-51.4-13C752.3,320.4,734.1,316.2,716.1,311.2z
		 M725.7,327.1c-9.2-3.7-18.8-6-28.5-8.3c-9.2-2.2-18.1-5.2-27.1-7.3c-0.1-0.1-0.4,0-0.5,0c-0.7-1.4-1.5-2.9-2.3-4.2
		c17.6,2.3,34.7,7.3,51.9,11.8c3.6,0.9,7.1,1.9,10.7,2.8C728.6,323.7,727.1,325.3,725.7,327.1z M720.8,333
		c-15.5-2.8-30.9-7.9-46-12.2c-0.1,0-0.1-0.1-0.2-0.1c-0.9-1.7-1.7-3.4-2.6-5c9.1,2.2,17.9,5.1,27,6.9c8.6,1.7,17.3,3.2,25.6,5.8
		C723.4,329.9,722.1,331.5,720.8,333z M715.5,339.2c-6.3-1.3-12.3-3.4-18.7-4.5c-5.4-0.9-11.1-3.2-16.7-2.9c-1-2.2-2.2-4.5-3.3-6.7
		c6.7,1.8,13.8,3,20.5,4.6c7.5,1.8,15,3.3,22.5,4.3C718.4,335.8,716.9,337.5,715.5,339.2z M710.1,345.8c-8.6-1.2-17.6-3.3-26-5.5
		c-0.7-1.6-1.4-3.2-2.1-4.8c5.5,0.3,11.6,1.9,17.1,2.7c5.2,0.7,10.3,1.7,15.5,2.3c-1.4,1.7-2.8,3.4-4.1,5
		C710.2,345.7,710.2,345.7,710.1,345.8z M691.9,361.4c2.2,0.6,4.6,1.1,6.9,1.3c-1.1,1.5-2.3,2.9-3.7,4.2
		C694.1,365.1,693.1,363.2,691.9,361.4z M689.4,354.2c2.1,0.4,4.2,0.5,6.2,0.9c2.5,0.4,5,0.8,7.6,1.1c-0.9,1.5-1.7,2.8-2.6,4.1
		c-3.5-0.7-6.8-2-10.2-3.1C690.1,356.2,689.7,355.2,689.4,354.2z M687.9,350.1c-0.7-1.8-1.4-3.6-2.1-5.4c3.7,0.7,7.4,1.1,11.1,1.8
		c3.8,0.8,7.5,1.4,11.4,1.6c-1.3,1.9-2.5,3.8-3.7,5.6C699.1,352.5,693.5,351.3,687.9,350.1z"/>
	<path class="st2" d="M21.9,517.4c47-20.8,101.6-32.2,153-29.9c24.7,1.1,50.9,5.2,72.3,18.4c0.8,0.4,1.6,1,2.3,1.4
		c-13.9,5.4-26.5,13.6-34.4,26.1c-12.6,20-15,56.8,9.4,69.3c24,12.3,59.3,4.2,65.6-24.9c5.3-24.7-5.3-49.9-23-67.1
		c16.3-4.1,33.7-5,50.2-4.1c27,1.5,51.1,10.2,76.9,17.5c32.4,9.2,67,17.3,100.8,13.3c26.1-3,52.6-15,67.7-36.9
		c0.2,0.1,0.5,0,0.6,0.1c32.5,2.8,67.6-7.7,92.8-28.6c25-20.8,38.8-50.1,41.8-82.2c0.2-3-4.2-3.1-4.6-0.3
		c-3.3,28.9-15.9,56.4-38.6,75.2c-22.2,18.4-53.2,29.7-82.1,28.7c-1.8-0.1-3.7-0.2-5.5-0.3c0.6-1.1,1.2-2.2,1.7-3.4
		c9.1-19.6,6.5-44.8-1.1-64.4c-6.9-18-21.4-37.1-42.8-35.2c-27.6,2.4-47.8,30.4-38.9,57.1c9.7,29.2,37.8,46.6,67.2,52
		c-4.4,5.4-9.7,10.2-15.2,14.1c-28.5,20.1-66.5,18.3-99.2,12.4c-17.4-3.1-34.5-7.7-51.4-12.8c-12.9-3.9-25.7-8.7-39-11.4
		c-23.9-4.9-49.3-5.7-73.4-1.4c-5.2,0.9-10.4,2.2-15.7,3.7c-19.7-14.9-45-21.5-69.3-23.8c-57.3-5.6-119.2,6.4-171.8,29.7
		C13.1,512.1,17,519.6,21.9,517.4z M558,492.4c-26-4.1-52.6-17.3-62.9-42.3c-5.2-12.6-5.4-28.2,5-38.4c7.3-7.2,18-13.9,28.7-13.1
		c22.3,1.7,32.8,28.8,36,47.6c1.8,11.1,2.2,23-1.1,33.8C562.3,484.2,560.3,488.4,558,492.4z M257.8,513.6c15.3,13,26,31.4,25.5,51.9
		c-0.4,13.6-6.3,27.8-20.5,32.1c-14.4,4.5-36.4,3-44.2-12.2c-12.3-24.2,1.8-53.3,24-65.3C247.5,517.5,252.6,515.3,257.8,513.6z"/>
	<path class="st2" d="M781.4,341.7c13.8,2.1,27.6,3.2,41.1,6.2c15.5,3.4,30.5,8.8,45.7,13.2c0.1,0.1,0.2,0.1,0.4,0.2
		c2.9-8.5,3.4-17.8,5.3-26.6c2.4-10.9,5.6-21.5,8.3-32.2c5.6-22.2,9.1-44.9,15.8-66.9c0.1-0.5,0.9-0.3,0.9,0.2
		c-2.7,21.9-7.6,43.6-12.7,65c-2.5,10.9-5.4,21.7-8.1,32.5c-2.4,9.9-2.8,20.4-6.4,29.9c-0.5,1.1-1.6,1.4-2.5,1
		c-0.4,0.8-1.4,1.3-2.5,1.1c-13.6-3.3-26.7-8.4-40.2-12.3c-14.7-4.3-30.2-7.6-45.4-10.3C780.9,342.5,781,341.7,781.4,341.7z"/>
	<path class="st2" d="M792.5,349.8c14,0.4,27.4,5.9,40.9,9.2c14.3,3.5,28.7,7.5,42.7,12.1c0.2,0.1,0.4,0.2,0.5,0.2
		c2.4-6.2,2.5-12.7,3-19.2c0.5-7.4,2.8-14.3,4.9-21.5c5-17.3,9-34.4,12.1-52.2c0.1-0.5,0.7-0.5,0.8,0.1c0.8,17.1-3.8,34.5-8.5,50.8
		c-2.4,8.4-4.8,16.5-5.5,25.2c-0.5,6.9-1.2,13.5-4.2,19.7c-0.4,0.9-1.4,1-2.2,0.6c-0.5,0.6-1.2,0.8-2.2,0.6
		c-13.1-4.3-26.6-8.2-40-11.6c-13.9-3.6-28.1-10-42.5-11C790.4,352.7,790.6,349.7,792.5,349.8z"/>
	<path class="st2" d="M686.2,301c-0.6-0.1-1-0.5-1.3-0.9c-0.3,0.2-0.6,0.5-0.9,0.6c-2,1.3-3.7-2-1.7-3.2c17.4-11,28.3-29.7,44.7-42
		c0.8-0.6,1.8,0.5,1.2,1.2c-13.2,13.4-24.4,29.5-39.7,40.8c7.7,1.6,15.1,4.5,22.6,6.6c11,3.1,22.2,5.6,33.2,8.5
		c0.9,0.3,0.6,1.8-0.3,1.6c-9.4-1.8-18.9-3.5-28.3-5.8C705.7,306.4,696.1,302.5,686.2,301z"/>
	<path class="st2" d="M903.5,96.8c16.6-14.6,29.5-33.2,45.3-48.6c1.8-1.7,4.4,1.1,2.7,2.9c-15.9,15.4-29.4,33.1-46.6,47.1
		C903.9,99,902.6,97.7,903.5,96.8z"/>
	<path class="st2" d="M964.5,46.7c3.5-10.1,7.7-20.2,10.4-30.5c0.2-0.6,1.2-0.5,1.1,0.3c-0.7,9.7-4.8,19.5-7.8,28.7
		c-3.5,10.7-8.5,20.9-11.4,31.9c-0.5,2-3.4,1-3-1C956.2,65.8,961.1,56.5,964.5,46.7z"/>
	<path class="st2" d="M968.2,51.2c3.3-7.6,8.5-15.9,9.4-24.2c0.2-1,1.5-0.9,1.5,0c0.4,6.9-3.3,13.8-5.9,20
		c-3.5,8.9-7.3,17.5-10.5,26.4c-0.7,2.1-4.1,1-3.4-1.1C962.1,65.4,965.2,58.4,968.2,51.2z"/>
	<path class="st2" d="M616,245.8c6.2,5,12.7,10.8,18,16.8c1.1,1.2-0.8,3-1.9,1.8c-6.3-7.2-14.2-13.9-21.6-19.8
		c-6.5-5.1-14-9.1-19.5-15.5c-0.6-0.7,0.4-1.6,1.1-0.9C598.9,235,608.3,239.8,616,245.8z"/>
	<path class="st2" d="M638.5,259c1.1,1.2-0.7,2.8-1.9,1.7c-10.8-11.3-24.1-20.5-36.7-29.6c-0.7-0.6,0-1.6,0.7-1.2
		C613.8,238.4,627.7,247.3,638.5,259z"/>
	<path class="st2" d="M642.8,256.8c1.3,1.1-0.7,2.9-2,1.8c-9.6-9.1-19.8-20-31.6-26.1c-0.3-0.2-0.1-0.7,0.2-0.6
		c5.1,0.3,11.1,6.1,15.1,9.1C630.9,245.8,636.8,251.2,642.8,256.8z"/>
	<path class="st2" d="M647.6,252.4c0.9,1.2-0.7,2.8-1.8,1.6c-3.2-3.7-7.7-6.6-11.6-9.7c-4.8-3.7-9.9-7.1-15-10.5
		c-0.9-0.5,0-1.9,0.9-1.3c5.3,3,10.4,6.2,15.3,9.8C639.6,245.4,644.6,248.5,647.6,252.4z"/>
	<path class="st2" d="M649.4,252.5c-5.3-6.9-14-11.1-19.1-18.3c0-0.1,0-0.2,0.1-0.2c2.1-0.1,5.8,4.2,7.2,5.3c4.4,3.6,10,7,13.4,11.7
		C651.9,252.1,650.2,253.7,649.4,252.5z"/>
	<path class="st2" d="M653.6,249.3c-2.1-1.6-3.8-3.7-5.6-5.5c-2.6-2.4-5-4.8-7.7-7.2c-0.7-0.6,0.4-1.7,1-1.3c4.7,3.7,9,8.2,13.6,12
		C655.9,248.4,654.7,250.1,653.6,249.3z"/>
	<path class="st2" d="M594,249.5c6.1,4.3,11.8,9.2,17.8,13.6c5.7,4.2,12,8.8,16.5,14.4c0.2,0.2,0.2,0.5,0.3,0.8
		c3.3,6,6.4,12,9.5,18.2c2.6,4.9,5.6,9.5,7.1,14.9c0.1,0.4-0.7,0.7-0.8,0.3c-4.5-11.1-12-22-18.3-32.2c-0.2-0.2-0.2-0.4-0.1-0.7
		c-9.2-11-22.7-18.1-32.4-28.5C593.1,249.8,593.6,249.2,594,249.5z"/>
</g>
<g>
	<path class="st2" d="M303,293.5c0.1,0,0.3,0,0.5-0.1c3.7-1.2,6.1-4.2,9.4-6.2c3.4-2.1,7.1-4,10.1-6.7c4,2.8,8,5.5,12.1,8.3
		c5.2,3.6,10.4,7.4,15.7,10.8c4.9,3.2,10,6.2,13.8,10.7c0.6,0.7,1.8,0,1.5-0.8c0,0,0.1,0,0.1-0.1c3.2-3.7,5.1-8.1,7.4-12.3
		c2.8-5,5.6-9.9,9-14.5c6.5-8.8,13.5-17.4,20.5-25.9c7.4-8.9,15-17.7,22.6-26.4c6.9-8,15.6-14.6,21.7-23.3c0.3-0.4,0.1-0.8-0.3-1
		c-0.1-0.2-0.3-0.3-0.5-0.4c0-0.1,0-0.2-0.2-0.3c-6.1-2-13.1-0.5-19.3,0.2c-6.7,0.7-13.4,1.4-20.2,1.8c-8.2,0.5-16.3,1-24.5,1.6
		c-1.1-1-2.3-1.9-3.4-2.8c-0.6-0.4-1.4,0.3-1,0.9c0.6,0.7,1.4,1.4,2.1,2.1c-0.4,0-0.9,0.1-1.3,0.1c-0.6-0.5-1.3-1.1-2-1.5
		c-0.8-0.5-1.7,0.5-1,1.2c0.1,0.2,0.3,0.3,0.5,0.4c-4,0.3-7.9,0.6-11.9,0.9c-14.4,1.1-28.8,2.8-43.1,4.3c-6.9,0.7-13.8,1.5-20.7,1.7
		c-6.5,0.1-13,0.3-19.3,1.8c-0.3,0-0.5,0.2-0.6,0.3c-0.3-0.9-1.8-0.6-1.7,0.5c1.3,11.4,9.8,19.7,13.5,30.2c0.1,0.4,0.4,0.6,0.7,0.7
		c0.3,7.3,1.7,14.4,3.3,21.5c1.3,5.8,2.4,11.8,3.7,17.6c0,0.9-0.1,1.8,0,2.7c0,0.6,0.4,0.9,0.9,1C301.3,293.8,302.4,294,303,293.5z
		 M294.4,249.6c0.1,0,0.1-0.1,0.1-0.1c0.1,0,0.3,0.1,0.5,0c13.3-2,26.5-5.7,39.4-9.3c13.3-3.7,26.6-7.6,39.8-11.6
		c13.7-4.1,27.2-8.4,40.7-13c5-1.7,10.6-2.7,15.5-4.5c3.9-1.5,7.4-2.9,11.5-3.7c-10.7,4-21.2,9-31.7,13.5c-12,5-24,10-36.3,14.3
		c-12.3,4.3-24.8,7.9-36.9,12.9c-6.3,2.6-12.6,5.3-18.8,8.2c-5.3,2.5-10.9,5.2-16.7,6.2c-0.3,0.1-0.6,0.2-0.8,0.4
		c-1.1,0.1-1.6,1.8-0.5,2.5c0,4.2,0,8.4-0.1,12.7c-0.7-2.6-1.4-5.2-2.1-7.8C296.7,263.4,295.3,256.6,294.4,249.6z M445,206.1
		c-8.1,0.3-19.3,4-28,6.8c-10.6,3.4-21.2,6.7-31.8,9.8c-0.9-0.4-2.1-0.6-3-0.8c-0.4-0.1-0.5,0.4-0.1,0.5c0.5,0.1,1,0.3,1.6,0.5
		c0.1,0,0.1,0.1,0.2,0.1c-0.6,0.2-1.2,0.3-1.7,0.5c-1.1-0.3-2.2-0.6-3.2-1.1c-0.4-0.2-0.7,0.4-0.3,0.6c0.7,0.4,1.5,0.7,2.3,0.9
		c-0.5,0.1-1,0.3-1.5,0.4c-1.8-0.5-3.6-1-5.4-1.4c-0.3-0.1-0.4,0.4-0.1,0.5c1.4,0.4,2.8,0.9,4.1,1.4c-0.5,0.1-1,0.3-1.5,0.4
		c-0.3,0.1-0.6,0.2-0.8,0.3c-2.6-0.8-5.2-1.8-7.8-2.6c-0.3-0.1-0.4,0.4-0.1,0.5c2.2,0.8,4.4,1.7,6.6,2.4c-0.8,0.2-1.7,0.5-2.6,0.7
		c-2.6-1.1-5.4-1.8-8-2.7c-0.2-0.1-0.4,0.4-0.2,0.5c2.3,0.9,4.6,1.9,7,2.6c-0.7,0.2-1.3,0.4-2,0.6c-3.2-1.1-6.4-2.2-9.6-3.3
		c-0.3-0.1-0.5,0.4-0.1,0.5c2.9,1,5.7,2.2,8.5,3.1c-0.7,0.2-1.5,0.4-2.3,0.7c-3.7-1.3-7.4-2.4-10.9-4c-0.4-0.2-0.7,0.4-0.3,0.6
		c3.2,1.5,6.5,2.7,9.9,3.8c-0.9,0.3-1.9,0.5-2.8,0.8c-4-1.6-8-3.5-12.2-4.7c-0.3-0.1-0.4,0.4-0.1,0.5c3.7,1.3,7.3,3.2,10.9,4.6
		c-0.9,0.3-1.9,0.6-2.8,0.8c0,0,0-0.1-0.1-0.1c-2.1-1.1-4.6-1.9-6.8-2.9c-2.1-0.9-4.2-1.8-6.5-2.2c-0.3-0.1-0.4,0.4-0.1,0.5
		c4.3,1,8.2,3.4,12.3,5c-0.8,0.2-1.6,0.5-2.4,0.7c-4.9-1.7-9.7-4-14.7-5.2c-0.1,0-0.2,0.1-0.1,0.2c4.2,2.1,8.8,4,13.4,5.4
		c-1.2,0.4-2.4,0.7-3.6,1c-4.9-1.9-9.9-3.4-14.8-5.3c-0.2-0.1-0.4,0.2-0.2,0.3c4.2,2.2,8.9,4,13.5,5.4c-1.1,0.3-2.2,0.6-3.3,1
		c-4.7-1.7-9.3-3.5-14.1-5c-0.1,0-0.2,0.2-0.1,0.2c4.3,1.6,8.5,3.5,12.8,5.1c-0.9,0.3-1.9,0.5-2.8,0.8c-2.2-0.8-4.3-1.8-6.5-2.5
		c-2.5-0.8-5-1.5-7.4-2.7c-0.2-0.1-0.3,0.2-0.1,0.3c2.4,1.3,4.9,2.3,7.4,3.2c1.8,0.6,3.5,1.4,5.3,2.1c-1.3,0.3-2.6,0.7-3.9,1
		c-4.1-1.5-8.3-2.9-12.4-4.5c-0.2-0.1-0.4,0.2-0.2,0.4c2.5,1.4,5.5,2.1,8.2,3.1c1.1,0.4,2.1,0.9,3.2,1.3
		c-12.7,3.4-25.4,6.5-38.3,9.1c-0.1,0-0.3,0.1-0.4,0.2c-3.7-8.9-10.8-16.3-13.1-25.7c0.1,0,0.3,0,0.5-0.1c6.4-1.5,12.8-1.6,19.3-1.8
		c6.9-0.2,13.9-1,20.7-1.7c14-1.5,28-3.2,42-4.4c5.2-0.4,10.3-0.8,15.5-1.2c1.7,1.4,3.6,2.8,5.5,3.8c0.4,0.3,0.9-0.5,0.5-0.8
		c-1.4-0.9-2.5-2.1-3.8-3.2c0.6,0,1.2-0.1,1.7-0.1c1,0.8,2,1.5,2.9,2.3c0.5,0.4,1-0.3,0.6-0.7c-0.6-0.6-1.2-1.1-1.8-1.7
		c7-0.5,14-1.1,21.1-1.6c6.8-0.5,13.5-1.3,20.2-2.2C432.4,207,438.8,205.5,445,206.1z M318.3,274c-4.4-3.2-8.8-6.4-13.4-9.2
		c4.7-1.2,9.3-3.3,13.7-5.4c6.2-2.9,12.4-5.8,18.7-8.3c12.1-5,24.5-8.8,36.8-13.1c12.6-4.4,24.9-9.5,37.2-14.9
		c11.1-4.9,22.4-9.5,33.4-14.8c-7,7.3-14.7,14.1-21.4,21.7c-7.6,8.7-15.4,17.3-22.7,26.3c-7,8.4-14.1,16.9-20.5,25.8
		c-3.1,4.3-5.7,8.7-8.4,13.4c-2.4,4.1-4.2,8.6-7.3,12.2c-3.6-3.7-7.9-6.6-12.1-9.6c-5.5-3.8-10.9-7.8-16.4-11.6
		C329.9,282.2,324,278.2,318.3,274z M319.6,281c-2.8-2.6-5.8-4.7-8.9-6.8c-3-2-5.7-4.3-8.6-6.3c0-0.1-0.1-0.1-0.2-0.1
		c-0.1-0.6-0.1-1.2-0.3-1.8c5.9,3.2,11.3,7.3,16.8,11.3c1.1,0.8,2.3,1.6,3.4,2.5C321,280.1,320.3,280.5,319.6,281z M317,282.4
		c-5.1-3.1-9.9-7-14.6-10.6c0,0,0-0.1-0.1-0.1c-0.1-0.7-0.1-1.4-0.2-2.1c2.9,2,5.6,4.3,8.6,6.2c2.8,1.8,5.7,3.5,8.3,5.6
		C318.3,281.6,317.7,282,317,282.4z M314.3,283.8c-2.1-1.3-3.9-2.9-6-4.2c-1.8-1.1-3.5-2.6-5.5-3.3c-0.1-0.9-0.2-1.9-0.3-2.8
		c2.1,1.6,4.5,3,6.6,4.4c2.4,1.7,4.9,3.2,7.4,4.6C315.8,283,315,283.4,314.3,283.8z M311.4,285.4c-2.9-1.6-5.8-3.6-8.5-5.5
		c0-0.7-0.1-1.3-0.1-2c1.9,0.9,3.8,2.3,5.7,3.3c1.7,1,3.4,2,5.2,2.9c-0.7,0.4-1.5,0.8-2.2,1.2C311.5,285.4,311.5,285.4,311.4,285.4z
		 M302.9,288.5c0.7,0.5,1.5,1,2.3,1.4c-0.6,0.4-1.2,0.7-1.9,1C303.2,290.1,303,289.3,302.9,288.5z M303,285.6
		c0.7,0.4,1.4,0.7,2.1,1.2c0.8,0.5,1.7,1,2.5,1.4c-0.5,0.4-1,0.8-1.5,1.1c-1.2-0.7-2.1-1.7-3.2-2.5C302.9,286.4,303,286,303,285.6z
		 M303,283.9c0-0.8,0-1.5,0-2.2c1.2,0.7,2.5,1.4,3.7,2.2c1.2,0.8,2.5,1.5,3.8,2.1c-0.7,0.5-1.4,1-2.1,1.5
		C306.7,286.3,304.8,285.1,303,283.9z"/>
	<path class="st3" d="M44.1,252c19.5-0.9,40.4,2.5,58.3,10.3c8.6,3.8,17.3,8.8,23.1,16.4c0.2,0.3,0.4,0.6,0.6,0.8
		c-5.7,0-11.2,1.2-15.8,4.5c-7.2,5.3-13.1,18.1-6.2,25.8c6.8,7.6,20.4,9.6,26.6,0.2c5.3-8,5-18.4,1-26.9c6.4,0.8,12.6,2.8,18.3,5.4
		c9.4,4.2,16.7,10.6,24.9,16.7c10.2,7.7,21.4,15.3,33.9,18.5c9.7,2.5,20.7,1.9,29.1-3.8c0.1,0.1,0.2,0.1,0.2,0.1
		c11.1,5.5,25,6.5,36.8,2.6c11.7-3.9,20.6-12.4,26.1-23.4c0.5-1-1.1-1.7-1.6-0.7c-5.1,9.8-13.3,17.8-24,21.4
		c-10.4,3.5-22.9,3.2-33-1.1c-0.6-0.3-1.3-0.6-1.9-0.9c0.4-0.3,0.7-0.6,1.1-1c5.9-5.7,8.4-15,8.4-23c0-7.3-2.5-16.1-10.4-18.3
		c-10.1-2.9-21.1,4.2-21.6,14.9c-0.6,11.7,7,21.7,16.7,27.6c-2.3,1.3-4.8,2.3-7.3,2.9c-12.8,3.2-26.1-2.6-36.8-9.2
		c-5.7-3.5-11.2-7.4-16.5-11.6c-4-3.1-7.9-6.6-12.3-9.4c-7.8-5-16.7-8.8-25.8-10.6c-2-0.4-4-0.7-6.1-0.9c-4.9-8-13-13.8-21.3-17.9
		c-19.5-9.9-43.1-14.1-64.9-13C41.7,248.9,42.1,252.1,44.1,252z M237.5,316.5c-8.7-5-16.3-13.3-16.5-23.6c-0.1-5.2,1.9-10.7,7-12.9
		c3.6-1.5,8.3-2.5,12-0.7c7.7,3.6,7.7,14.7,6.2,21.8c-0.9,4.2-2.4,8.5-5,11.8C240.1,314.2,238.9,315.5,237.5,316.5z M128.2,283
		c3.6,6.7,4.9,14.7,1.9,21.9c-2,4.8-6,9-11.7,8.6c-5.7-0.4-13.3-3.9-14-10.4c-1.1-10.3,7.9-18.6,17.5-19.8
		C124,282.9,126.1,282.9,128.2,283z"/>
	<path class="st2" d="M337.3,293.8c4.6,2.6,9.3,4.9,13.7,7.8c5,3.3,9.6,7.3,14.4,10.9c0,0.1,0.1,0.1,0.1,0.1
		c2.2-2.6,3.6-5.8,5.5-8.7c2.3-3.5,4.9-6.9,7.3-10.3c5-7.1,9.4-14.7,14.8-21.5c0.1-0.2,0.4,0,0.3,0.2c-4,7.4-8.7,14.4-13.4,21.3
		c-2.4,3.5-4.9,7-7.3,10.4c-2.2,3.2-3.8,6.8-6.4,9.7c-0.3,0.3-0.8,0.3-1,0c-0.3,0.2-0.7,0.3-1,0c-4.4-3-8.3-6.6-12.6-9.9
		c-4.6-3.6-9.7-6.8-14.7-9.9C337,294,337.1,293.7,337.3,293.8z"/>
	<path class="st2" d="M340.1,298.1c4.9,2.1,8.9,5.9,13.2,8.9c4.6,3.2,9.1,6.6,13.5,10.1c0.1,0.1,0.1,0.1,0.1,0.2
		c1.7-1.9,2.6-4.2,3.7-6.4c1.2-2.6,2.9-4.7,4.7-6.9c4.1-5.5,7.9-11,11.4-16.8c0.1-0.2,0.3-0.1,0.3,0.1c-2.1,6.2-6.1,11.7-9.9,16.8
		c-2,2.6-4,5.2-5.4,8.2c-1.1,2.4-2.3,4.6-4.2,6.4c-0.3,0.3-0.6,0.2-0.9-0.1c-0.2,0.1-0.6,0.1-0.9-0.1c-4-3.3-8.3-6.5-12.6-9.6
		c-4.4-3.2-8.6-7.4-13.6-9.7C339,298.9,339.5,297.8,340.1,298.1z"/>
	<path class="st2" d="M309.1,266.3c-0.2-0.1-0.3-0.3-0.4-0.5c-0.1,0-0.3,0.1-0.4,0.1c-0.9,0.2-1-1.2-0.2-1.4
		c7.7-1.5,14.1-6.6,21.6-8.8c0.4-0.1,0.6,0.4,0.3,0.6c-6.5,3-12.7,7.1-19.6,9c2.5,1.6,4.7,3.7,7.1,5.5c3.5,2.6,7.1,5,10.6,7.6
		c0.3,0.2,0,0.7-0.3,0.5c-3.1-1.9-6.2-3.8-9.2-5.9C315.3,270.8,312.4,268.2,309.1,266.3z"/>
	<path class="st2" d="M414.1,223.7c7.9-2.9,15-7.7,22.7-11c0.9-0.4,1.4,1,0.6,1.4c-7.7,3.3-15,7.7-23,10.3
		C413.9,224.5,413.7,223.9,414.1,223.7z"/>
	<path class="st2" d="M442.6,214.3c2.6-3.1,5.5-6.1,7.9-9.4c0.2-0.2,0.5,0,0.4,0.2c-1.6,3.3-4.4,6.2-6.7,9.1
		c-2.7,3.3-5.9,6.2-8.4,9.7c-0.5,0.6-1.3-0.1-0.9-0.8C437,219.9,440,217.3,442.6,214.3z"/>
	<path class="st2" d="M443.3,216.4c2.2-2.3,5.2-4.5,6.6-7.3c0.2-0.3,0.6-0.1,0.5,0.2c-0.8,2.5-3.1,4.4-4.8,6.3
		c-2.5,2.7-5,5.2-7.4,7.9c-0.6,0.7-1.6-0.2-1-0.8C439.2,220.6,441.2,218.5,443.3,216.4z"/>
	<path class="st2" d="M291.8,237.1c1.5,2.6,3,5.6,4.1,8.4c0.2,0.6-0.7,0.9-0.9,0.4c-1.3-3.4-3.1-6.9-5-10c-1.6-2.7-3.7-5.2-4.8-8.2
		c-0.1-0.3,0.4-0.5,0.5-0.2C287.2,230.9,289.9,233.9,291.8,237.1z"/>
	<path class="st2" d="M298,244.9c0.2,0.6-0.6,0.9-0.9,0.3c-2.3-5.5-5.7-10.5-9-15.5c-0.2-0.3,0.2-0.6,0.4-0.3
		C292.1,234.2,295.8,239.2,298,244.9z"/>
	<path class="st2" d="M299.8,244.7c0.3,0.6-0.7,0.9-0.9,0.4c-2.2-4.5-4.3-9.8-7.6-13.6c-0.1-0.1,0-0.3,0.2-0.2
		c1.8,0.8,3.1,3.7,4.1,5.3C297.1,239.2,298.4,241.9,299.8,244.7z"/>
	<path class="st2" d="M302.1,243.8c0.2,0.6-0.6,0.9-0.9,0.3c-0.6-1.7-1.8-3.4-2.8-5c-1.2-2-2.5-3.9-3.9-5.8
		c-0.3-0.3,0.2-0.7,0.5-0.4c1.4,1.8,2.8,3.6,4.1,5.6C300.2,240.2,301.6,242,302.1,243.8z"/>
	<path class="st2" d="M302.7,244c-0.9-3.2-3.4-5.9-4.3-9.1c0,0,0-0.1,0.1-0.1c0.7,0.3,1.5,2.3,1.8,2.9c1.1,1.9,2.6,3.9,3.1,6
		C303.7,244.2,302.9,244.6,302.7,244z"/>
	<path class="st2" d="M304.7,243.5c-0.5-0.8-0.8-1.8-1.2-2.7c-0.6-1.2-1.1-2.4-1.7-3.6c-0.2-0.3,0.4-0.6,0.5-0.3
		c1.2,2,2.1,4.1,3.2,6.1C305.6,243.5,305,243.9,304.7,243.5z"/>
	<path class="st2" d="M283.5,235.4c1.6,2.4,2.9,4.9,4.5,7.3c1.5,2.3,3,4.8,3.9,7.3c0,0.1,0,0.2,0,0.3c0.3,2.6,0.6,5.1,0.9,7.7
		c0.3,2.1,0.7,4.1,0.5,6.3c0,0.2-0.3,0.2-0.3,0c-0.1-4.6-1.2-9.4-2.1-13.9c0-0.1,0-0.2,0-0.3c-1.7-5.2-5.6-9.5-7.6-14.5
		C283.2,235.4,283.4,235.2,283.5,235.4z"/>
</g>
<g>
	<path class="st2" d="M789,623.2c0.1,0,0.3-0.1,0.4-0.2c2.8-2.7,3.6-6.5,5.7-9.7c2.1-3.4,4.6-6.7,6.1-10.5c4.8,0.8,9.6,1.4,14.5,2.1
		c6.3,0.9,12.5,2.1,18.9,2.8c5.8,0.7,11.7,1.2,17.1,3.5c0.9,0.4,1.6-0.8,1-1.3c0,0,0-0.1,0-0.1c1.2-4.7,1-9.5,1.3-14.3
		c0.3-5.7,0.7-11.3,1.7-17c2-10.8,4.4-21.6,7-32.3c2.7-11.3,5.7-22.5,8.6-33.7c2.7-10.2,7.6-20,9.2-30.4c0.1-0.5-0.3-0.8-0.7-0.8
		c-0.2-0.1-0.4-0.2-0.6-0.1c-0.1-0.1-0.1-0.2-0.3-0.1c-6.3,0.9-11.9,5.4-17.3,8.7c-5.8,3.6-11.5,7.2-17.3,10.5
		c-7.1,4.1-14.2,8.1-21.3,12.2c-1.4-0.4-2.9-0.7-4.3-1c-0.7-0.1-1.1,0.9-0.5,1.2c0.9,0.4,1.9,0.7,2.8,1c-0.4,0.2-0.7,0.4-1.1,0.6
		c-0.8-0.2-1.6-0.4-2.4-0.5c-1-0.1-1.3,1.2-0.3,1.5c0.2,0.1,0.4,0.1,0.7,0.2c-3.5,2-6.8,4-10.3,6c-12.4,7.4-24.6,15.2-36.8,22.9
		c-5.9,3.7-11.7,7.5-17.9,10.6c-5.7,3-11.5,6-16.6,10.1c-0.2,0.2-0.3,0.4-0.4,0.6c-0.7-0.7-1.9,0.3-1.3,1.2
		c6.1,9.7,17.4,13.4,25.4,21.2c0.3,0.3,0.7,0.4,1,0.3c3.5,6.4,7.9,12.2,12.4,17.9c3.7,4.7,7.4,9.5,11.1,14.2
		c0.4,0.8,0.7,1.6,1.2,2.5c0.3,0.6,0.8,0.6,1.3,0.5C787.5,624.2,788.6,623.9,789,623.2z M761.9,587.6c0-0.1,0-0.1,0-0.1
		c0.1,0,0.3-0.1,0.4-0.2c11.1-7.6,21.3-16.8,31.3-25.7c10.3-9.2,20.5-18.6,30.7-28c10.5-9.7,20.7-19.5,30.9-29.6
		c3.8-3.8,8.3-7.1,12-10.9c2.9-3,5.4-5.9,8.7-8.4c-7.9,8.3-15,17.4-22.5,26.1c-8.5,9.8-17.1,19.6-26.3,28.8
		c-9.2,9.3-18.7,18-27.4,27.8c-4.5,5.1-9,10.3-13.2,15.6c-3.7,4.5-7.5,9.5-12.3,12.9c-0.3,0.2-0.4,0.4-0.5,0.7
		c-0.9,0.5-0.7,2.3,0.7,2.4c1.9,3.8,3.7,7.6,5.5,11.4c-1.8-2-3.6-4.1-5.3-6.1C770,599,765.7,593.5,761.9,587.6z M878,482.2
		c-7.1,3.9-15.5,12.1-22.1,18.5c-8,7.7-16.1,15.3-24.3,22.9c-1,0-2.1,0.4-3,0.6c-0.4,0.1-0.2,0.6,0.1,0.6c0.6-0.1,1.1-0.2,1.6-0.2
		c0.1,0,0.1,0,0.2,0c-0.4,0.4-0.9,0.8-1.3,1.2c-1.1,0.2-2.2,0.4-3.4,0.4c-0.4,0-0.5,0.6,0,0.6c0.8,0,1.6-0.1,2.4-0.2
		c-0.4,0.3-0.7,0.7-1.1,1.1c-1.8,0.3-3.6,0.7-5.5,1.1c-0.3,0.1-0.2,0.5,0.1,0.5c1.4-0.2,2.9-0.4,4.3-0.6c-0.4,0.3-0.7,0.7-1.1,1.1
		c-0.2,0.2-0.4,0.4-0.6,0.6c-2.7,0.4-5.4,0.7-8.1,1.1c-0.3,0-0.2,0.5,0.1,0.5c2.3-0.3,4.7-0.4,7-0.7c-0.6,0.6-1.3,1.2-2,1.8
		c-2.8,0.2-5.6,0.7-8.4,1.1c-0.3,0-0.2,0.5,0,0.5c2.5-0.2,5-0.3,7.4-0.7c-0.5,0.5-1,0.9-1.5,1.4c-3.3,0.5-6.7,0.9-10.1,1.2
		c-0.3,0.1-0.2,0.6,0.1,0.6c3-0.3,6-0.5,9.1-0.9c-0.6,0.5-1.2,1.1-1.8,1.6c-3.9,0.5-7.7,1.1-11.6,1.2c-0.4,0-0.5,0.6,0,0.6
		c3.6,0,7.1-0.5,10.6-0.9c-0.7,0.7-1.5,1.3-2.2,2c-4.3,0.3-8.8,0.4-13,1.1c-0.3,0-0.2,0.5,0.1,0.5c3.9-0.5,7.9-0.3,11.8-0.7
		c-0.7,0.7-1.4,1.3-2.1,2c0,0-0.1,0-0.1,0c-2.4-0.1-4.9,0.3-7.4,0.4c-2.3,0.1-4.5,0.3-6.8,0.9c-0.3,0.1-0.2,0.5,0.1,0.5
		c4.3-1,8.9-0.5,13.3-0.9c-0.6,0.5-1.3,1.1-1.9,1.7c-5.1,0.7-10.5,0.7-15.5,1.9c-0.1,0-0.1,0.2,0,0.2c4.7,0.1,9.6-0.3,14.4-1.1
		c-0.9,0.9-1.9,1.7-2.8,2.5c-5.2,0.5-10.4,1.3-15.6,1.7c-0.2,0-0.3,0.3,0,0.4c4.8,0.2,9.8-0.3,14.5-1.1c-0.9,0.8-1.7,1.5-2.6,2.3
		c-4.9,0.6-9.9,0.9-14.8,1.8c-0.1,0-0.1,0.3,0,0.3c4.6-0.4,9.1-0.6,13.7-1.1c-0.7,0.7-1.4,1.3-2.2,1.9c-2.3,0.3-4.6,0.3-6.9,0.6
		c-2.6,0.4-5.2,0.8-7.9,0.9c-0.2,0-0.2,0.3,0,0.3c2.7,0.1,5.4-0.1,8-0.4c1.9-0.2,3.8-0.3,5.7-0.4c-1,0.9-2,1.8-3,2.6
		c-4.3,0.5-8.8,1-13.1,1.4c-0.3,0-0.3,0.4,0,0.4c2.9,0.1,5.9-0.6,8.7-0.8c1.1-0.1,2.3-0.2,3.4-0.3c-9.9,8.7-20,17.1-30.4,25.1
		c-0.1,0.1-0.2,0.2-0.3,0.3c-7.2-6.4-16.9-9.9-23.1-17.3c0.1,0,0.3-0.1,0.4-0.2c5.1-4.1,10.8-7.1,16.5-10.1c6.1-3.2,12-7,17.9-10.7
		c11.9-7.6,23.7-15.2,35.8-22.4c4.4-2.6,8.9-5.3,13.4-7.9c2.2,0.5,4.4,0.9,6.6,1c0.5,0,0.6-0.8,0.1-0.9c-1.7-0.2-3.2-0.7-4.8-1.2
		c0.5-0.3,1-0.6,1.5-0.9c1.2,0.2,2.4,0.5,3.6,0.8c0.6,0.1,0.8-0.7,0.2-0.9c-0.8-0.3-1.5-0.5-2.3-0.8c6.1-3.6,12.1-7.1,18.2-10.7
		c5.8-3.5,11.5-7.1,17.2-10.8C867,488.6,872.1,484.4,878,482.2z M794.1,599c-5.4-1-10.7-1.9-16.1-2.4c3.7-3.2,6.9-7.1,9.9-10.8
		c4.2-5.3,8.6-10.6,13.1-15.7c8.7-9.8,18.1-18.7,27.3-28c9.4-9.5,18.2-19.5,26.8-29.7c7.8-9.3,15.9-18.4,23.5-28
		c-3.1,9.7-7,19.1-9.7,28.9c-3,11.2-6.2,22.3-8.8,33.6c-2.5,10.6-5.2,21.4-7,32.2c-0.9,5.2-1.3,10.4-1.6,15.7
		c-0.3,4.7,0,9.6-1.2,14.2c-4.9-1.8-10-2.5-15.1-3.2c-6.6-1-13.2-2.1-19.9-3.2C808.1,601.3,801.1,600.3,794.1,599z M798.3,604.7
		c-3.6-1.1-7.3-1.6-11-2.2c-3.5-0.5-7-1.4-10.5-1.9c-0.1,0-0.1,0-0.2,0c-0.3-0.5-0.7-1-1-1.5c6.7,0.3,13.4,1.6,20,2.8
		c1.4,0.2,2.8,0.5,4.1,0.7C799.2,603.3,798.8,604,798.3,604.7z M796.6,607.1c-5.9-0.5-12-2-17.8-3.1c0,0-0.1,0-0.1,0
		c-0.4-0.6-0.8-1.2-1.2-1.8c3.5,0.5,6.9,1.3,10.5,1.7c3.3,0.4,6.7,0.7,9.9,1.3C797.5,605.8,797,606.4,796.6,607.1z M794.8,609.6
		c-2.4-0.3-4.8-0.9-7.2-1.1c-2.1-0.2-4.3-0.8-6.4-0.5c-0.5-0.8-1-1.6-1.5-2.4c2.6,0.5,5.3,0.7,7.9,1.1c2.9,0.4,5.8,0.8,8.7,0.9
		C795.8,608.2,795.3,608.9,794.8,609.6z M793,612.3c-3.3-0.2-6.8-0.7-10-1.2c-0.3-0.6-0.7-1.2-1-1.8c2.1-0.1,4.4,0.3,6.6,0.5
		c2,0.1,3.9,0.3,5.9,0.4c-0.5,0.7-1,1.4-1.4,2C793,612.2,793,612.2,793,612.3z M786.6,618.8c0.9,0.2,1.8,0.3,2.7,0.3
		c-0.4,0.6-0.8,1.2-1.3,1.7C787.6,620.1,787.1,619.4,786.6,618.8z M785.4,616.1c0.8,0.1,1.6,0,2.4,0.1c1,0.1,1.9,0.1,2.9,0.2
		c-0.3,0.6-0.5,1.1-0.8,1.6c-1.4-0.2-2.6-0.5-4-0.8C785.7,616.9,785.6,616.5,785.4,616.1z M784.7,614.6c-0.3-0.7-0.6-1.3-1-2
		c1.4,0.1,2.9,0.2,4.3,0.3c1.5,0.2,2.9,0.3,4.4,0.2c-0.4,0.8-0.8,1.5-1.2,2.2C789.1,615.2,786.9,614.9,784.7,614.6z"/>
	<path class="st3" d="M538.2,700c17.1-9.4,37.4-15.6,56.9-16.4c9.4-0.4,19.4,0.3,28,4.6c0.3,0.1,0.6,0.3,0.9,0.5
		c-5.1,2.5-9.6,6-12.2,11c-4.1,8-3.8,22,5.9,25.9c9.5,3.9,22.6-0.4,24-11.6c1.2-9.5-3.6-18.7-10.9-24.6c6-2.1,12.6-3,18.8-3.2
		c10.3-0.3,19.7,2.2,29.7,4.1c12.5,2.4,25.9,4.3,38.6,1.7c9.8-2,19.4-7.4,24.4-16.2c0.1,0,0.2,0,0.2,0c12.4,0,25.3-5.2,34.2-13.9
		c8.8-8.7,13-20.2,13.1-32.5c0-1.1-1.7-1-1.7,0.1c-0.3,11-4.1,21.9-12.1,29.8c-7.8,7.7-19.1,13-30.1,13.6c-0.7,0-1.4,0-2.1,0.1
		c0.2-0.4,0.4-0.9,0.5-1.3c2.8-7.7,1-17.2-2.6-24.3c-3.2-6.6-9.3-13.3-17.4-11.9c-10.4,1.8-17.1,13.1-12.8,22.9
		c4.6,10.7,15.9,16.4,27.2,17.4c-1.5,2.2-3.3,4.2-5.3,5.8c-10.1,8.5-24.6,9.1-37.1,8c-6.7-0.6-13.3-1.8-19.9-3.1c-5-1-10-2.4-15.1-3
		c-9.2-1-18.8-0.5-27.8,1.9c-1.9,0.5-3.9,1.2-5.8,1.9c-8-5-17.8-6.6-27-6.7c-21.9-0.2-44.9,6.4-64,16.9
		C534.7,698.3,536.4,701,538.2,700z M740.3,672.8c-10-0.7-20.5-4.8-25.2-13.9c-2.4-4.6-3-10.5,0.6-14.7c2.5-3,6.4-5.9,10.4-5.9
		c8.5-0.1,13.4,9.8,15.2,16.8c1.1,4.1,1.6,8.6,0.7,12.8C741.6,669.5,741,671.2,740.3,672.8z M627.4,690.7c6.2,4.4,10.9,11,11.4,18.8
		c0.3,5.2-1.5,10.7-6.7,12.8c-5.3,2.2-13.7,2.3-17.1-3.2c-5.5-8.7-1.1-20.2,6.9-25.5C623.6,692.5,625.4,691.6,627.4,690.7z"/>
	<path class="st2" d="M819.8,608.4c5.3,0.3,10.5,0.3,15.8,1c6,0.8,11.8,2.3,17.7,3.5c0.1,0,0.1,0,0.1,0c0.8-3.3,0.7-6.9,1.1-10.2
		c0.6-4.2,1.4-8.3,2.1-12.5c1.4-8.6,2-17.3,3.8-25.8c0-0.2,0.3-0.1,0.3,0c-0.3,8.4-1.4,16.8-2.6,25c-0.6,4.2-1.3,8.4-2,12.6
		c-0.6,3.8-0.4,7.8-1.4,11.5c-0.1,0.4-0.6,0.6-0.9,0.4c-0.1,0.3-0.5,0.5-0.9,0.5c-5.3-0.8-10.4-2.3-15.6-3.3
		c-5.7-1.2-11.7-1.9-17.5-2.4C819.7,608.7,819.7,608.4,819.8,608.4z"/>
	<path class="st2" d="M824.3,611.1c5.3-0.3,10.6,1.3,15.8,2.1c5.5,0.8,11.1,1.9,16.6,3.2c0.1,0,0.1,0,0.2,0.1
		c0.7-2.4,0.5-4.9,0.5-7.4c-0.1-2.8,0.6-5.5,1.1-8.3c1.3-6.7,2.3-13.3,2.9-20.2c0-0.2,0.3-0.2,0.3,0c0.9,6.4-0.3,13.2-1.5,19.5
		c-0.6,3.3-1.3,6.4-1.3,9.7c0,2.6,0,5.2-0.9,7.6c-0.1,0.4-0.5,0.4-0.8,0.3c-0.2,0.2-0.4,0.4-0.8,0.3c-5.1-1.2-10.3-2.2-15.5-3.1
		c-5.4-0.9-11-2.9-16.5-2.8C823.6,612.2,823.6,611.1,824.3,611.1z"/>
	<path class="st2" d="M782.4,596.1c-0.2,0-0.4-0.2-0.5-0.3c-0.1,0.1-0.2,0.2-0.3,0.3c-0.7,0.6-1.4-0.6-0.7-1.1
		c6.2-4.7,9.7-12.2,15.5-17.4c0.3-0.3,0.7,0.1,0.5,0.4c-4.6,5.5-8.3,12-13.7,16.8c3,0.4,5.9,1.2,8.8,1.8c4.3,0.8,8.6,1.4,12.8,2.1
		c0.3,0.1,0.3,0.6-0.1,0.6c-3.6-0.4-7.3-0.7-10.9-1.2C790,597.5,786.2,596.3,782.4,596.1z"/>
	<path class="st2" d="M857.9,511.6c5.8-6.1,10.1-13.5,15.5-19.9c0.6-0.7,1.7,0.3,1.1,1c-5.5,6.3-10,13.5-16.1,19.4
		C858.2,512.4,857.6,512,857.9,511.6z"/>
	<path class="st2" d="M879.4,490.6c1-4,2.2-7.9,2.9-11.9c0.1-0.2,0.4-0.2,0.4,0.1c0.1,3.7-1.2,7.5-2,11.1c-1,4.2-2.5,8.2-3.2,12.4
		c-0.1,0.8-1.3,0.5-1.2-0.3C876.8,498.2,878.4,494.5,879.4,490.6z"/>
	<path class="st2" d="M880.9,492.2c1-3,2.7-6.3,2.7-9.5c0-0.4,0.5-0.4,0.6,0c0.4,2.6-0.8,5.3-1.6,7.8c-1,3.5-2.2,6.9-3.1,10.4
		c-0.2,0.8-1.5,0.5-1.3-0.3C879.1,497.8,880,495,880.9,492.2z"/>
	<path class="st2" d="M754.1,577.5c2.5,1.7,5.2,3.7,7.4,5.7c0.4,0.4-0.2,1.1-0.6,0.7c-2.6-2.5-5.8-4.8-8.8-6.8
		c-2.6-1.7-5.6-3-7.9-5.2c-0.3-0.2,0.1-0.6,0.4-0.4C747.2,574,750.9,575.5,754.1,577.5z"/>
	<path class="st2" d="M763,581.8c0.4,0.4-0.2,1.1-0.7,0.7c-4.5-3.9-9.8-6.9-14.9-10c-0.3-0.2,0-0.6,0.2-0.5
		C753,574.8,758.5,577.7,763,581.8z"/>
	<path class="st2" d="M764.5,580.8c0.5,0.4-0.2,1.1-0.7,0.7c-3.9-3.1-8.2-6.9-12.8-8.8c-0.1-0.1-0.1-0.3,0.1-0.2
		c1.9-0.1,4.4,1.9,6,2.9C759.7,577,762.1,578.9,764.5,580.8z"/>
	<path class="st2" d="M766.2,579c0.4,0.4-0.2,1.1-0.6,0.7c-1.3-1.3-3.1-2.3-4.7-3.3c-1.9-1.2-4-2.4-6-3.5c-0.4-0.2-0.1-0.7,0.3-0.5
		c2.1,1,4.2,2,6.1,3.2C763,576.6,765,577.6,766.2,579z"/>
	<path class="st2" d="M766.9,578.9c-2.2-2.4-5.7-3.8-7.8-6.3c0,0,0-0.1,0-0.1c0.8-0.1,2.4,1.4,2.9,1.8c1.8,1.2,4,2.3,5.5,4
		C767.8,578.7,767.3,579.4,766.9,578.9z"/>
	<path class="st2" d="M768.4,577.6c-0.8-0.5-1.5-1.3-2.3-1.9c-1.1-0.8-2.1-1.7-3.2-2.5c-0.3-0.2,0.1-0.7,0.4-0.5
		c1.9,1.3,3.7,2.8,5.5,4.1C769.2,577.2,768.9,577.9,768.4,577.6z"/>
	<path class="st2" d="M745.8,579.6c2.4,1.4,4.8,3.1,7.2,4.6c2.3,1.4,4.8,2.9,6.7,4.9c0.1,0.1,0.1,0.2,0.1,0.3
		c1.4,2.2,2.8,4.3,4.2,6.6c1.1,1.8,2.4,3.4,3.2,5.4c0,0.2-0.2,0.3-0.3,0.1c-2.1-4.1-5.3-7.9-8-11.6c-0.1-0.1-0.1-0.2-0.1-0.3
		c-3.8-3.9-9.2-6.1-13.2-9.7C745.5,579.8,745.7,579.6,745.8,579.6z"/>
</g>
</svg>
