<?xml version="1.0" encoding="utf-8"?>
<!-- Generator: Adobe Illustrator 25.2.3, SVG Export Plug-In . SVG Version: 6.00 Build 0)  -->
<svg version="1.1" id="f1410098-b6ef-424e-beee-8c1519bc1d1f"
	 xmlns="http://www.w3.org/2000/svg" xmlns:xlink="http://www.w3.org/1999/xlink" x="0px" y="0px" viewBox="0 0 915.7 679.3"
	 style="enable-background:new 0 0 915.7 679.3;" xml:space="preserve">
<style type="text/css">
	.st0{fill:#121549;}
	.st1{fill:#425293;}
	.st2{fill:none;stroke:#F2218E;stroke-width:5;stroke-miterlimit:10;}
	.st3{fill:#FFFFFF;}
	.st4{font-family:'ArialMT';}
	.st5{font-size:375.36px;}
</style>
<g>
	<rect x="0.9" y="98.2" class="st0" width="885.1" height="580.8"/>
	<rect x="-0.1" y="208.2" class="st1" width="704.1" height="264.4"/>
	<rect x="322" y="4" class="st2" width="591.5" height="548"/>
	<g>
		<g>
			<g>
				<path class="st3" d="M25.8,320h5.1v19.5c0,8.3-3.8,11.1-9.3,11.1c-1.4,0-3.2-0.3-4.3-0.7l0.6-4.5c0.8,0.3,1.9,0.5,3.2,0.5
					c2.9,0,4.7-1.4,4.7-6.6V320L25.8,320z"/>
				<path class="st3" d="M36.4,344c1.7,1,4.1,1.9,6.8,1.9c3.3,0,5.1-1.6,5.1-4.1c0-2.2-1.4-3.6-5-5c-4.7-1.8-7.5-4.5-7.5-8.7
					c0-4.9,3.9-8.6,9.9-8.6c3.1,0,5.3,0.7,6.8,1.5l-1.2,4.5c-1-0.5-3-1.4-5.6-1.4c-3.2,0-4.7,1.8-4.7,3.6c0,2.3,1.6,3.3,5.4,4.9
					c4.8,2,7.3,4.7,7.3,8.9c0,4.8-3.4,9-10.7,9c-3,0-6.1-0.9-7.5-1.9L36.4,344z"/>
			</g>
		</g>
		<g>
			<g>
				<path class="st3" d="M38.9,308.5c-1.2,0.6-3.9,1.4-7.3,1.4c-8.9,0-14.3-6-14.3-15.1c0-9.8,6.4-15.9,15-15.9
					c3.3,0,5.8,0.7,6.8,1.3l-1.1,4.4c-1.3-0.6-3.2-1.2-5.4-1.2c-5.8,0-9.8,3.9-9.8,11.1c0,6.6,3.6,10.8,9.8,10.8
					c2,0,4.2-0.4,5.6-1.1L38.9,308.5z"/>
				<path class="st3" d="M43.2,303.4c1.7,1,4.1,1.9,6.8,1.9c3.3,0,5.1-1.6,5.1-4.1c0-2.2-1.4-3.6-5-5c-4.7-1.8-7.5-4.5-7.5-8.7
					c0-4.9,3.9-8.6,9.9-8.6c3.1,0,5.3,0.7,6.8,1.5l-1.2,4.5c-1-0.5-3-1.4-5.6-1.4c-3.2,0-4.7,1.8-4.7,3.6c0,2.3,1.6,3.3,5.4,4.9
					c4.8,2,7.3,4.7,7.3,8.9c0,4.8-3.4,9-10.7,9c-3,0-6.1-0.9-7.5-1.9L43.2,303.4z"/>
				<path class="st3" d="M64.8,303.4c1.7,1,4.1,1.9,6.8,1.9c3.3,0,5.1-1.6,5.1-4.1c0-2.2-1.4-3.6-5-5c-4.7-1.8-7.5-4.5-7.5-8.7
					c0-4.9,3.9-8.6,9.9-8.6c3.1,0,5.3,0.7,6.8,1.5l-1.2,4.5c-1-0.5-3-1.4-5.6-1.4c-3.2,0-4.7,1.8-4.7,3.6c0,2.3,1.6,3.3,5.4,4.9
					c4.8,2,7.3,4.7,7.3,8.9c0,4.8-3.4,9-10.7,9c-3,0-6.1-0.9-7.5-1.9L64.8,303.4z"/>
			</g>
		</g>
		<g>
			<g>
				<path class="st3" d="M22.4,234.9v11.9h11.8v-11.9h5.2v30h-5.1v-13.3H22.4v13.3h-5.1v-30H22.4L22.4,234.9z"/>
				<path class="st3" d="M50.7,239.4h-8.1v-4.7H64v4.7h-8.1v25.4h-5.1L50.7,239.4L50.7,239.4z"/>
				<path class="st3" d="M90.9,252.6c-0.2-3.9-0.4-8.5-0.3-12.6h-0.1c-0.9,3.7-2.1,7.7-3.3,11.5l-4.1,13h-3.9l-3.8-12.8
					c-1.1-3.9-2.1-7.9-2.8-11.8h-0.1c-0.1,3.9-0.3,8.7-0.5,12.8l-0.6,12h-4.7l1.8-30h6.8l3.7,12.1c1,3.5,1.9,7.1,2.5,10.5h0.1
					c0.7-3.3,1.8-6.9,2.8-10.5l3.9-12H95l1.6,30h-5L90.9,252.6z"/>
				<path class="st3" d="M101.6,234.9h5.1v25.4h11.5v4.7h-16.7L101.6,234.9L101.6,234.9z"/>
			</g>
		</g>
		<g>
			<g>
				<path class="st3" d="M17.3,365.1c1.9-0.4,4.8-0.6,7.8-0.6c4,0,6.8,0.7,8.7,2.5c1.6,1.4,2.5,3.4,2.5,6.1c0,3.9-2.5,6.5-5.1,7.5
					v0.1c2,0.8,3.2,2.8,3.9,5.8c0.9,3.8,1.7,7.2,2.2,8.4H32c-0.4-0.9-1.1-3.3-1.8-7.1c-0.8-3.9-2.1-5.2-5.1-5.3h-2.5v12.3h-5.1
					L17.3,365.1L17.3,365.1L17.3,365.1z M22.4,378.4h3.1c3.5,0,5.6-1.9,5.6-4.9c0-3.2-2.2-4.8-5.4-4.8c-1.6,0-2.7,0.1-3.2,0.3
					L22.4,378.4L22.4,378.4z"/>
				<path class="st3" d="M56.7,381.3H46.2v8.8H58v4.5H41.1v-30h16.3v4.5H46.2v7.7h10.6L56.7,381.3L56.7,381.3z"/>
				<path class="st3" d="M68.1,386.3l-2.4,8.5h-5.3l9-30H76l9.1,30h-5.4l-2.5-8.5H68.1z M76.2,382l-2.2-7.4c-0.5-1.8-1-3.9-1.4-5.6
					h-0.1c-0.4,1.8-0.8,3.9-1.3,5.6L69,382H76.2z"/>
				<path class="st3" d="M109.2,393.8c-1.2,0.6-3.9,1.4-7.3,1.4c-8.9,0-14.3-6-14.3-15.1c0-9.8,6.4-15.9,15-15.9
					c3.3,0,5.8,0.7,6.8,1.3l-1.1,4.4c-1.3-0.6-3.2-1.2-5.4-1.2c-5.8,0-9.8,3.9-9.8,11.1c0,6.6,3.6,10.8,9.8,10.8
					c2,0,4.2-0.4,5.6-1.1L109.2,393.8z"/>
				<path class="st3" d="M118.9,369.3h-8.1v-4.7H132v4.7h-8v25.4h-5.1V369.3L118.9,369.3z"/>
			</g>
		</g>
		<g>
			<g>
				<path class="st3" d="M17.3,435.1v-30h5.9l7.3,12.8c1.8,3.3,3.5,6.8,4.8,10h0.1C35,424,35,420,35,415.4v-10.5h4.7v30h-5.3
					L27,421.6c-1.8-3.3-3.7-6.9-5.1-10.4h-0.1c0.2,3.9,0.3,7.9,0.3,12.8v10.7h-4.7L17.3,435.1L17.3,435.1z"/>
				<path class="st3" d="M70.4,419.8c0,10-5.6,15.8-13.4,15.8c-7.9,0-13-6.5-13-15.3c0-9.2,5.4-15.7,13.4-15.7
					C65.6,404.5,70.4,411.2,70.4,419.8z M49.4,420.2c0,6.1,2.8,11,7.8,11s7.7-4.9,7.7-11.2c0-5.6-2.6-11-7.7-11S49.4,414,49.4,420.2
					z"/>
				<path class="st3" d="M74.8,405.5c2.3-0.4,5.2-0.6,8.2-0.6c5.3,0,8.9,1.2,11.5,3.5c2.7,2.4,4.5,6,4.5,11.1
					c0,5.4-1.8,9.4-4.4,11.9c-2.8,2.7-7.3,4-12.7,4c-3,0-5.3-0.2-6.9-0.4L74.8,405.5L74.8,405.5z M79.9,430.9
					c0.7,0.1,1.8,0.1,2.8,0.1c6.7,0.1,10.6-3.9,10.6-11.5c0-6.6-3.5-10.4-10-10.4c-1.6,0-2.7,0.1-3.5,0.3L79.9,430.9L79.9,430.9z"/>
				<path class="st3" d="M118.9,421.8h-10.6v8.8h11.8v4.5h-16.9v-30h16.3v4.5h-11.2v7.7h10.6V421.8L118.9,421.8z"/>
			</g>
		</g>
	</g>
</g>
<text transform="matrix(0.7353 0 0 1 331 454.3691)" class="st3 st4 st5">&lt; / &gt;</text>
</svg>
