<?xml version="1.0" encoding="utf-8"?>
<!-- Generator: Adobe Illustrator 25.2.3, SVG Export Plug-In . SVG Version: 6.00 Build 0)  -->
<svg version="1.1" id="f1410098-b6ef-424e-beee-8c1519bc1d1f"
	 xmlns="http://www.w3.org/2000/svg" xmlns:xlink="http://www.w3.org/1999/xlink" x="0px" y="0px" viewBox="0 0 915.7 679.3"
	 style="enable-background:new 0 0 915.7 679.3;" xml:space="preserve">
<style type="text/css">
	.st0{fill:#F2F2F2;}
	.st1{fill:#FFFFFF;}
	.st2{fill:#FF21AF;}
	.st3{fill:#3F3D56;}
	.st4{fill:#2A4756;}
</style>
<g id="Image_Web" transform="translate(0 0)">
	<path id="Path_353" class="st0" d="M743.3,534H165.8c-10.2,0-18.6-8.3-18.6-18.6v-347c0-7.5,6.1-13.6,13.6-13.6h587.2
		c7.7,0,13.8,6.2,13.8,13.8v346.8C761.9,525.6,753.6,534,743.3,534z"/>
	<path id="Path_354" class="st1" d="M183.9,515.4h541.5c10,0,18-8.1,18-18l0,0V202.8c0-10-8.1-18-18-18l0,0H183.9
		c-10,0-18,8.1-18,18v294.6C165.8,507.3,173.9,515.4,183.9,515.4z"/>
	<path id="Path_355" class="st2" d="M761.7,167.3H147v-9.5c0-10.3,8.3-18.7,18.7-18.7H743c10.3,0,18.7,8.3,18.7,18.7V167.3z"/>
	<circle id="Ellipse_102" class="st1" cx="180.9" cy="153.3" r="4.8"/>
	<circle id="Ellipse_103" class="st1" cx="199.2" cy="153.3" r="4.8"/>
	<circle id="Ellipse_104" class="st1" cx="217.5" cy="153.3" r="4.8"/>
	<path id="Path_379" class="st1" d="M766.8,324.7H424.5c-10.2,0-18.6-8.3-18.6-18.6v-73.2c0-10.2,8.3-18.6,18.6-18.6h342.3
		c10.2,0,18.6,8.3,18.6,18.6v73.2C785.4,316.4,777.1,324.7,766.8,324.7z"/>
	<path id="Path_380" class="st3" d="M766.8,325.3H424.5c-10.6,0-19.1-8.6-19.2-19.2v-73.2c0-10.6,8.6-19.1,19.2-19.2h342.3
		c10.6,0,19.1,8.6,19.2,19.2v73.2C786,316.7,777.4,325.3,766.8,325.3L766.8,325.3z M424.5,216.1c-9.3,0-16.9,7.6-16.9,16.9v73.2
		c0,9.3,7.6,16.9,16.9,16.9h342.3c9.3,0,16.9-7.6,16.9-16.9v-73.2c0-9.3-7.6-16.9-16.9-16.9H424.5z"/>
	<path id="Path_381" class="st0" d="M725.2,306.7h-259c-10.2,0-18.6-8.3-18.6-18.6v-38.3c0-10.2,8.3-18.6,18.6-18.6h259
		c10.2,0,18.6,8.3,18.6,18.6v38.3C743.8,298.4,735.4,306.6,725.2,306.7z"/>
	<ellipse id="Ellipse_107" class="st2" cx="522" cy="263.8" rx="22.2" ry="22.2"/>
	<path id="Path_382" class="st4" d="M709.1,304.5l-31.4-26.3l-30.8-25.9c-1.7-1.4-4.1-1.4-5.8,0l-30.7,26l-7.5,6.4l-11.4-9.5
		l-34.4-28.8c-1.7-1.4-4.1-1.4-5.8,0l-34.3,29l-34.8,29.4c-0.5,0.4-0.5,1.1-0.2,1.5c0.3,0.3,0.5,0.4,0.9,0.4l71.4-0.2H577l-0.3,0.2
		l67.3-0.2l64.2-0.1c0.6,0,1.1-0.5,1.1-1.1C709.5,305,709.4,304.7,709.1,304.5L709.1,304.5z"/>
	<path id="Path_397" class="st1" d="M238.9,351.2h-48.4c-5.9,0-10.7-4.8-10.7-10.7v-48.4c0-5.9,4.8-10.7,10.7-10.7h48.4
		c5.9,0,10.7,4.8,10.7,10.7v48.4C249.6,346.4,244.9,351.2,238.9,351.2z"/>
	<path id="Path_398" class="st3" d="M308.8,460.9h-48.4c-5.9,0-10.7-4.8-10.7-10.7v-48.4c0-5.9,4.8-10.7,10.7-10.7h48.4
		c5.9,0,10.7,4.8,10.7,10.7v48.4C319.4,456.1,314.7,460.9,308.8,460.9z M260.4,393.4c-4.6,0-8.4,3.8-8.4,8.4v48.4
		c0,4.6,3.8,8.4,8.4,8.4h48.4c4.6,0,8.4-3.8,8.4-8.4v-48.4c0-4.6-3.8-8.4-8.4-8.4H260.4z"/>
	<path id="Path_399" class="st3" d="M414,460.9h-48.4c-5.9,0-10.7-4.8-10.7-10.7v-48.4c0-5.9,4.8-10.7,10.7-10.7H414
		c5.9,0,10.7,4.8,10.7,10.7v48.4C424.6,456.1,419.9,460.9,414,460.9z M365.5,393.4c-4.6,0-8.4,3.8-8.4,8.4v48.4
		c0,4.6,3.8,8.4,8.4,8.4H414c4.6,0,8.4-3.8,8.4-8.4v-48.4c0-4.6-3.8-8.4-8.4-8.4H365.5z"/>
	<path id="Path_400" class="st3" d="M519.1,460.9h-48.4c-5.9,0-10.7-4.8-10.7-10.7v-48.4c0-5.9,4.8-10.7,10.7-10.7h48.4
		c5.9,0,10.7,4.8,10.7,10.7v48.4C529.9,456.1,525.1,460.9,519.1,460.9z M470.7,393.4c-4.6,0-8.4,3.8-8.4,8.4v48.4
		c0,4.6,3.8,8.4,8.4,8.4h48.4c4.6,0,8.4-3.8,8.4-8.4v-48.4c0-4.6-3.8-8.4-8.4-8.4H470.7z"/>
	<path id="Path_401" class="st3" d="M624.3,460.9h-48.4c-5.9,0-10.7-4.8-10.7-10.7v-48.4c0-5.9,4.8-10.7,10.7-10.7h48.4
		c5.9,0,10.7,4.8,10.7,10.7v48.4C635.1,456.1,630.2,460.9,624.3,460.9z M575.9,393.4c-4.6,0-8.4,3.8-8.4,8.4v48.4
		c0,4.6,3.8,8.4,8.4,8.4h48.4c4.6,0,8.4-3.8,8.4-8.4v-48.4c0-4.6-3.8-8.4-8.4-8.4H575.9z"/>
</g>
</svg>
