<?xml version="1.0" encoding="utf-8"?>
<!-- Generator: Adobe Illustrator 25.2.3, SVG Export Plug-In . SVG Version: 6.00 Build 0)  -->
<svg version="1.1" id="Layer_1" xmlns="http://www.w3.org/2000/svg" xmlns:xlink="http://www.w3.org/1999/xlink" x="0px" y="0px"
	 viewBox="0 0 512 512" style="enable-background:new 0 0 512 512;" xml:space="preserve">
<style type="text/css">
	.st0{fill:#F2218E;}
	.st1{fill:#28ADC9;}
</style>
<g>
	<path class="st0" d="M419.9,35.7c-90.7,0-165.8,64.2-178.3,147.6c8.6-39.5,46.6-69.3,92.2-69.3c0.1,0,0.2,0,0.4,0
		c-0.2,2.6-0.4,5.2-0.4,7.8c0,47.6,38.6,86.2,86.2,86.2c2.5,0,5-0.1,7.4-0.3C471.4,204,506,167,506,121.9
		C506,74.3,467.5,35.7,419.9,35.7z"/>
	<g>
		<path class="st1" d="M67.4,184.6c0-69,31.3-132,82.9-180.1H78.8c-40.9,0-74,33.1-74,74v353.3c0,40.9,33.1,74,74,74h353.3
			c35.9,0,65.8-25.5,72.6-59.4c-31.7,8.1-65.5,12.4-100.5,12.4C218.2,458.8,67.4,336.1,67.4,184.6z"/>
		<path class="st1" d="M98.7,184.7c0,142.8,136.7,258.6,305.4,258.6c35,0,68.6-5,99.9-14.2c-22,4.4-44.9,6.7-68.5,6.7
			c-160.1,0-289.9-107.2-289.9-239.4c0-78.6,45.9-148.4,116.7-192h-77.4C131.6,51,98.7,114.6,98.7,184.7z"/>
		<path class="st1" d="M177.2,196.5c0,123.4,112.7,223.4,251.8,223.4c26.9,0,52.8-3.8,77.1-10.7v-0.5c-16.5,3.1-33.6,4.7-51.2,4.7
			c-132,0-239-91.7-239-204.7c0-107.6,96.9-195.9,220.1-204.1c-1.3-0.1-2.6-0.1-4-0.1H300.2C226.6,43.4,177.2,114.8,177.2,196.5z"/>
	</g>
</g>
</svg>
