<?xml version="1.0" encoding="utf-8"?>
<!-- Generator: Adobe Illustrator 25.2.3, SVG Export Plug-In . SVG Version: 6.00 Build 0)  -->
<svg version="1.1" id="Layer_1" xmlns="http://www.w3.org/2000/svg" xmlns:xlink="http://www.w3.org/1999/xlink" x="0px" y="0px"
	 viewBox="0 0 30 18.3" style="enable-background:new 0 0 30 18.3;" xml:space="preserve">
<style type="text/css">
	.st0{fill:#FFFFFF;}
</style>
<g>
	<g>
		<path class="st0" d="M17.8,2.4c-1.5,0-2.8,1.1-3,2.5c0.1-0.7,0.8-1.2,1.6-1.2c0,0,0,0,0,0c0,0,0,0.1,0,0.1c0,0.8,0.7,1.5,1.5,1.5
			c0,0,0.1,0,0.1,0c0.8-0.1,1.3-0.7,1.3-1.5C19.3,3,18.6,2.4,17.8,2.4z"/>
		<g>
			<path class="st0" d="M11.8,4.9c0-1.2,0.5-2.2,1.4-3.1H12c-0.7,0-1.3,0.6-1.3,1.3v6c0,0.7,0.6,1.3,1.3,1.3h6c0.6,0,1.1-0.4,1.2-1
				c-0.5,0.1-1.1,0.2-1.7,0.2C14.4,9.6,11.8,7.5,11.8,4.9z"/>
			<path class="st0" d="M12.3,4.9c0,2.4,2.3,4.4,5.2,4.4c0.6,0,1.2-0.1,1.7-0.2c-0.4,0.1-0.8,0.1-1.2,0.1c-2.7,0-4.9-1.8-4.9-4.1
				c0-1.3,0.8-2.5,2-3.3h-1.3C12.9,2.6,12.3,3.7,12.3,4.9z"/>
			<path class="st0" d="M13.7,5.1c0,2.1,1.9,3.8,4.3,3.8c0.5,0,0.9-0.1,1.3-0.2v0c-0.3,0.1-0.6,0.1-0.9,0.1c-2.2,0-4.1-1.6-4.1-3.5
				c0-1.8,1.6-3.3,3.7-3.5c0,0,0,0-0.1,0h-2.2C14.5,2.5,13.7,3.7,13.7,5.1z"/>
		</g>
	</g>
	<g>
		<path class="st0" d="M4,12.5C4.1,12.5,4.1,12.6,4,12.5L4,12.5c0,0.1,0,0.1,0,0.1c0,0,0,0,0,0c0,0,0,0.1,0,0.1c0,0,0,0,0,0.1
			c0,0,0,0,0,0s0,0-0.1,0H2.5c-0.1,0-0.1,0-0.2,0l0,0c-0.1,0-0.3,0.1-0.4,0.1c-0.1,0.1-0.2,0.1-0.3,0.2s-0.2,0.2-0.2,0.4
			c-0.1,0.1-0.1,0.3-0.1,0.4l0,0v0.2c0,0,0,0,0,0s0,0,0,0l0,0.1c0,0.1,0.1,0.2,0.1,0.4c0,0.1,0.1,0.2,0.2,0.3
			c0.1,0.1,0.2,0.2,0.3,0.2c0.1,0.1,0.2,0.1,0.3,0.1c0.1,0,0.2,0,0.2,0H4c0,0,0,0,0.1,0s0,0,0,0.1v0l0,0.2c0,0.1,0,0.1-0.1,0.1H2.5
			c-0.2,0-0.4,0-0.6-0.1c-0.2-0.1-0.3-0.2-0.5-0.3s-0.3-0.3-0.4-0.4c-0.1-0.2-0.1-0.3-0.2-0.5c0-0.2,0-0.5,0.1-0.7
			c0.1-0.2,0.2-0.4,0.3-0.6c0.1-0.2,0.3-0.3,0.5-0.4c0.2-0.1,0.4-0.1,0.7-0.1L4,12.5C4,12.5,4,12.5,4,12.5z"/>
		<path class="st0" d="M7.2,15.7C7.2,15.7,7.2,15.7,7.2,15.7l-0.2,0c-0.1,0-0.1,0-0.1-0.1v-1.3H4.7v1.3c0,0,0,0.1-0.1,0.1
			c0,0-0.1,0-0.1,0H4.5c0,0-0.1,0-0.1,0c0,0,0-0.1,0-0.1V14v0c0-0.1,0-0.1,0-0.2c0-0.1,0-0.1,0-0.2c0.1-0.1,0.1-0.3,0.2-0.4
			s0.2-0.2,0.3-0.3c0.1-0.1,0.2-0.2,0.4-0.2c0.1-0.1,0.3-0.1,0.4-0.1h1.4c0,0,0.1,0,0.1,0s0,0,0,0.1L7.2,15.7
			C7.2,15.6,7.2,15.7,7.2,15.7z M5.5,12.9c-0.1,0.1-0.3,0.1-0.4,0.2C5,13.3,5,13.4,4.9,13.5c-0.1,0.1-0.1,0.3-0.1,0.4h2.2v-1.1H6
			C5.8,12.8,5.7,12.9,5.5,12.9z"/>
		<path class="st0" d="M10.7,12.6c0,0,0,0.1,0,0.1v0c0,0,0,0,0,0.1l0,0v0c0,0.1,0,0.1-0.1,0.1H9.3v2.8c0,0.1,0,0.1-0.1,0.1l-0.1,0
			c-0.1,0-0.1,0-0.1-0.1c0,0,0,0,0,0c0,0,0-0.1,0-0.1c0-0.1,0-0.1,0-0.3s0-0.3,0-0.5s0-0.4,0-0.8c0-0.3,0-0.7,0-1.1H7.7
			c-0.1,0-0.1,0-0.1-0.1v-0.2c0,0,0-0.1,0-0.1s0,0,0.1,0h3C10.7,12.5,10.7,12.5,10.7,12.6z"/>
		<path class="st0" d="M13.6,15.7c0,0-0.1,0-0.1,0h-0.1c-0.1,0-0.1,0-0.1-0.1v-1.3h-2.2v1.3c0,0,0,0.1-0.1,0.1c0,0-0.1,0-0.1,0h-0.1
			c0,0-0.1,0-0.1,0c0,0,0-0.1,0-0.1V14v0c0-0.1,0-0.1,0-0.2s0-0.1,0-0.2c0.1-0.1,0.1-0.3,0.2-0.4s0.2-0.2,0.3-0.3
			c0.1-0.1,0.2-0.2,0.4-0.2s0.3-0.1,0.4-0.1h1.4c0,0,0.1,0,0.1,0c0,0,0,0,0,0.1L13.6,15.7C13.6,15.6,13.6,15.7,13.6,15.7z
			 M11.9,12.9c-0.1,0.1-0.3,0.1-0.4,0.2c-0.1,0.1-0.2,0.2-0.3,0.3c-0.1,0.1-0.1,0.3-0.1,0.4h2.2v-1.1h-0.9
			C12.2,12.8,12.1,12.9,11.9,12.9z"/>
		<path class="st0" d="M16.7,14C16.7,14,16.7,14,16.7,14C16.7,14.1,16.7,14.1,16.7,14c0,0.1,0,0.2,0,0.2c0,0,0,0-0.1,0h-2.1v1.4
			c0,0,0,0,0,0.1c0,0,0,0-0.1,0h-0.2c0,0-0.1,0-0.1,0c0,0,0,0,0-0.1v-3c0,0,0,0,0-0.1c0,0,0,0,0.1,0h0.9c0.2,0,0.4,0,0.6,0.1
			c0.2,0.1,0.3,0.2,0.5,0.3s0.3,0.3,0.4,0.4c0.1,0.2,0.2,0.4,0.2,0.6V14C16.7,14,16.7,14,16.7,14C16.7,14,16.7,14,16.7,14L16.7,14z
			 M14.5,12.8v1.1h1.9l0,0c0-0.1-0.1-0.3-0.1-0.4c-0.1-0.1-0.1-0.2-0.2-0.3c-0.1-0.1-0.2-0.2-0.3-0.2c-0.1-0.1-0.2-0.1-0.4-0.1l0,0
			c-0.1,0-0.1,0-0.2,0L14.5,12.8L14.5,12.8z"/>
		<path class="st0" d="M17.3,12.5C17.3,12.5,17.4,12.6,17.3,12.5L17.3,12.5c0,0.1,0,0.1,0,0.2s0,0.1,0,0.2s0,0.2,0,0.3
			c0,0.1,0,0.2,0,0.3c0,0.1,0,0.2,0,0.3c0,0.1,0,0.1,0,0.1c0,0,0,0,0,0.1c0,0,0,0.1,0,0.1c0,0,0,0.1,0,0.1c0,0,0,0,0,0.1
			c0,0.1,0.1,0.3,0.1,0.4c0.1,0.1,0.1,0.2,0.2,0.3s0.2,0.2,0.3,0.2c0.1,0.1,0.2,0.1,0.4,0.1c0,0,0.1,0,0.1,0s0.1,0,0.1,0h0.9v-2.8
			c0,0,0-0.1,0-0.1c0,0,0.1,0,0.1,0c0,0,0,0,0,0c0,0,0,0,0,0h0c0.1,0,0.1,0,0.1,0.1v3c0,0,0,0,0,0.1c0,0,0,0,0,0h-1.2
			c-0.2,0-0.4,0-0.5-0.1c-0.2-0.1-0.3-0.2-0.5-0.3s-0.3-0.3-0.4-0.4s-0.2-0.3-0.2-0.5c0-0.1,0-0.2,0-0.4v-1.4c0,0,0-0.1,0-0.1
			c0,0,0.1,0,0.1,0c0,0,0,0,0,0S17.2,12.5,17.3,12.5L17.3,12.5C17.3,12.5,17.3,12.5,17.3,12.5z"/>
		<path class="st0" d="M20.6,12.5C20.6,12.5,20.7,12.6,20.6,12.5l0,1.7c0,0,0,0,0,0.1s0,0,0,0.1c0,0.1,0.1,0.3,0.1,0.4
			c0.1,0.1,0.2,0.2,0.3,0.3s0.2,0.2,0.4,0.2c0.1,0.1,0.3,0.1,0.4,0.1h1.5c0,0,0.1,0,0.1,0c0,0,0,0.1,0,0.1v0.1c0,0,0,0,0,0.1
			c0,0,0,0-0.1,0h-1.5c-0.2,0-0.4,0-0.6-0.1s-0.3-0.2-0.5-0.3s-0.3-0.3-0.4-0.4c-0.1-0.2-0.2-0.3-0.2-0.5c0,0,0-0.1,0-0.1
			s0-0.1,0-0.1v-1.6c0,0,0,0,0-0.1s0,0,0.1,0L20.6,12.5C20.6,12.5,20.6,12.5,20.6,12.5z"/>
		<path class="st0" d="M26.2,12.6c0,0,0,0.1,0,0.1v0c0,0,0,0,0,0.1l0,0v0c0,0.1,0,0.1-0.1,0.1h-1.3v2.8c0,0.1,0,0.1-0.1,0.1l-0.1,0
			c-0.1,0-0.1,0-0.1-0.1c0,0,0,0,0,0c0,0,0-0.1,0-0.1c0-0.1,0-0.1,0-0.3c0-0.1,0-0.3,0-0.5s0-0.4,0-0.8c0-0.3,0-0.7,0-1.1h-1.3
			c-0.1,0-0.1,0-0.1-0.1v-0.2c0,0,0-0.1,0-0.1s0,0,0.1,0h3C26.2,12.5,26.2,12.5,26.2,12.6z"/>
		<path class="st0" d="M29.1,15.7c0,0,0,0-0.1,0h-0.1c-0.1,0-0.1,0-0.1-0.1v-1.3h-2.2v1.3c0,0,0,0.1,0,0.1c0,0-0.1,0-0.1,0h-0.1
			c0,0,0,0-0.1,0c0,0,0-0.1,0-0.1V14v0c0-0.1,0-0.1,0-0.2s0-0.1,0-0.2c0-0.1,0.1-0.3,0.2-0.4s0.2-0.2,0.3-0.3
			c0.1-0.1,0.2-0.2,0.4-0.2s0.3-0.1,0.5-0.1H29c0,0,0,0,0.1,0s0,0,0,0.1L29.1,15.7C29.1,15.6,29.1,15.7,29.1,15.7z M27.4,12.9
			c-0.1,0.1-0.3,0.1-0.4,0.2c-0.1,0.1-0.2,0.2-0.3,0.3c-0.1,0.1-0.1,0.3-0.1,0.4h2.2v-1.1h-0.9C27.7,12.8,27.6,12.9,27.4,12.9z"/>
	</g>
</g>
</svg>
