<?xml version="1.0" encoding="utf-8"?>
<!-- Generator: Adobe Illustrator 25.2.3, SVG Export Plug-In . SVG Version: 6.00 Build 0)  -->
<svg version="1.1" id="f1410098-b6ef-424e-beee-8c1519bc1d1f"
	 xmlns="http://www.w3.org/2000/svg" xmlns:xlink="http://www.w3.org/1999/xlink" x="0px" y="0px" viewBox="0 0 915.7 679.3"
	 style="enable-background:new 0 0 915.7 679.3;" xml:space="preserve">
<style type="text/css">
	.st0{fill:#F2218E;}
	.st1{display:none;fill:#FFFFFF;}
	.st2{fill:none;stroke:#F2218E;stroke-miterlimit:10;}
	.st3{fill:#FFFFFF;}
	.st4{display:none;fill:none;stroke:#F2218E;stroke-miterlimit:10;}
	.st5{display:none;fill:none;}
</style>
<g>
	<g>
		<path class="st0" d="M771.3,517.2H148.9c-27,0-48.9-21.9-48.9-48.9V72.9c0-27,21.9-48.9,48.9-48.9h622.4c27,0,48.9,21.9,48.9,48.9
			v395.4C820.1,495.2,798.2,517.2,771.3,517.2z M148.9,36.7c-19.9,0-36.1,16.2-36.1,36.1v395.4c0,19.9,16.2,36.1,36.1,36.1h622.4
			c19.9,0,36.1-16.2,36.1-36.1V72.9c0-19.9-16.2-36.1-36.1-36.1H148.9V36.7z"/>
	</g>
	<g>
		<path class="st0" d="M783.5,481.3H136.7V59.9h646.8V481.3z M149.4,468.5h621.3V72.6H149.4V468.5z"/>
	</g>
	<g>
		<path class="st0" d="M608.6,638.4h-297l49.4-134h198.2L608.6,638.4z M329.9,625.6h260.3l-40-108.5H369.9L329.9,625.6z"/>
	</g>
	<g>
		<path class="st0" d="M638.1,666H282v-40.4h356.1V666z M294.8,653.2h330.6v-14.8H294.8V653.2z"/>
	</g>
</g>
<g id="Image_CMS" transform="translate(0.5 0.5)">
	<path id="Path_161" class="st1" d="M216.3,237.8c9-14,26.1-23.6,45.7-23.6c29,0,52.5,20.8,52.5,46.4c0,16.4-9.6,30.9-24.1,39"/>
	<rect id="Rectangle_580" x="382.8" y="158" class="st0" width="316.5" height="64.9"/>
	<rect id="Rectangle_579" x="405.1" y="145.4" class="st2" width="316.5" height="64.9"/>
	<ellipse id="Ellipse_43" class="st3" cx="182.6" cy="91.2" rx="4.8" ry="4.8"/>
	<ellipse id="Ellipse_44" class="st3" cx="199.5" cy="91.2" rx="4.8" ry="4.8"/>
	<ellipse id="Ellipse_45" class="st3" cx="216.3" cy="91.2" rx="4.8" ry="4.8"/>
	<rect id="Rectangle_581" x="169.4" y="78.5" class="st4" width="588.1" height="381.4"/>
	<line id="Line_1" class="st5" x1="169.4" y1="99.7" x2="757.5" y2="99.7"/>
	<ellipse id="Ellipse_46" class="st0" cx="184" cy="89" rx="4.8" ry="4.8"/>
	<ellipse id="Ellipse_47" class="st0" cx="200.9" cy="89" rx="4.8" ry="4.8"/>
	<ellipse id="Ellipse_48" class="st0" cx="217.7" cy="89" rx="4.8" ry="4.8"/>
	<line id="Line_2" class="st5" x1="354" y1="97.5" x2="354" y2="458.3"/>
	<g>
		<rect id="Rectangle_584" x="425.8" y="270.1" class="st2" width="102.9" height="13.9"/>
		<rect id="Rectangle_585" x="420.1" y="385.4" class="st0" width="102.9" height="13.9"/>
		<rect id="Rectangle_586" x="425.8" y="378.4" class="st2" width="102.9" height="13.9"/>
		<rect id="Rectangle_587" x="420.5" y="329.9" class="st0" width="264.6" height="13.9"/>
		<rect id="Rectangle_588" x="426.1" y="324.2" class="st2" width="264.6" height="13.9"/>
		<rect id="Rectangle_589" x="587.5" y="270.1" class="st2" width="102.9" height="13.9"/>
		<rect id="Rectangle_583" x="582" y="277.1" class="st0" width="102.9" height="13.9"/>
		<rect id="Rectangle_582" x="420.1" y="277.1" class="st0" width="102.9" height="13.9"/>
	</g>
	<path id="Path_225" class="st0" d="M198.2,270.3c0,18.3,12,34.1,29.4,41.5l-24.9-60.2C199.7,257.4,198.2,263.9,198.2,270.3z
		 M285.7,268c-0.1-4.6-1.6-9-4.3-12.7c-2.7-3.8-5.1-7-5.1-10.8c0.1-4.7,4-8.3,8.8-8.2c0.2,0,0.5,0,0.7,0
		c-10-7.9-22.5-12.2-35.3-12.1c-17-0.3-33.2,7.4-43.6,20.8c1.3,0,2.4,0,3.3,0c5.4,0,14-0.6,14-0.6c1-0.2,2.1,0.5,2.2,1.5
		c0.2,1-0.5,2.1-1.5,2.2c-0.1,0-0.2,0-0.3,0c0,0-2.9,0.3-6,0.5l19,50l11.4-30.3l-8.2-19.7c-2.8-0.1-5.4-0.5-5.4-0.5
		c-1,0-2-0.8-2-1.8s0.8-2,1.8-2c0.1,0,0.2,0,0.3,0c0,0,8.7,0.6,13.7,0.6c5.4,0,14-0.6,14-0.6c1-0.2,2.1,0.5,2.2,1.5
		c0.2,1-0.5,2.1-1.5,2.2c-0.1,0-0.2,0-0.3,0c0,0-2.9,0.3-6,0.5l18.9,49.6l5.2-15.3C284,276.6,285.7,272.1,285.7,268L285.7,268z"/>
	<path id="Path_226" class="st0" d="M251.3,274.4l-15.7,40.2c10.6,2.8,21.7,2.5,32.1-0.7c-0.1-0.2-0.2-0.5-0.3-0.7L251.3,274.4z
		 M296.3,248.2c0.2,1.6,0.3,3.1,0.3,4.7c-0.1,5.8-1.5,11.4-3.9,16.5l-15.9,40.8c15.6-7.9,26-22.8,26-39.8
		C302.7,262.5,300.5,254.9,296.3,248.2z"/>
</g>
</svg>
