<?xml version="1.0" encoding="utf-8"?>
<!-- Generator: Adobe Illustrator 25.2.3, SVG Export Plug-In . SVG Version: 6.00 Build 0)  -->
<svg version="1.1" id="f1410098-b6ef-424e-beee-8c1519bc1d1f"
	 xmlns="http://www.w3.org/2000/svg" xmlns:xlink="http://www.w3.org/1999/xlink" x="0px" y="0px" viewBox="0 0 1033.7 1080.9"
	 style="enable-background:new 0 0 1033.7 1080.9;" xml:space="preserve">
<style type="text/css">
	.st0{display:none;fill:#1A2DD8;stroke:#000000;stroke-miterlimit:10;}
	.st1{fill:#F2218E;}
	.st2{fill:#FFFFFF;}
</style>
<rect x="-33" y="-76.5" class="st0" width="1105" height="1182.1"/>
<g>
	<g>
		<path class="st1" d="M767.3,554.4c0.3-0.2,0.9-0.6,1.1-1c7.6-9.7,8.9-21.7,14.1-32.5c5.3-11.5,11.6-22.7,15-35.1
			c15.4,0.5,30.7,0.6,46.2,1c20,0.5,39.9,1.6,59.9,1.4c18.3-0.1,37-0.8,54.8,4.1c2.9,0.9,4.6-3.1,2.6-4.5c0-0.1,0.1-0.1,0.1-0.3
			c2-15.1-0.7-30-1.6-45.1c-1.3-17.9-2.2-35.7-1.2-53.6c1.9-34.5,5.5-69,9.4-103.4c4.1-36.3,9.2-72.4,13.9-108.4
			c4.3-32.9,16-65.4,16.9-98.6c0-1.5-1.2-2.3-2.4-2.1c-0.6-0.4-1.3-0.3-2-0.1c-0.3-0.3-0.5-0.5-1-0.3c-19.4,5.4-35.1,21.3-50.6,33.7
			c-16.6,13.3-33,26.8-49.9,39.5c-20.6,15.5-41.2,30.9-61.8,46.5c-4.7-0.7-9.3-1.2-13.8-1.6c-2.2-0.1-3.2,3.3-1,4
			c2.9,0.9,6.2,1.4,9.1,1.8c-1.1,0.7-2.1,1.7-3.2,2.4c-2.5-0.4-5.1-0.6-7.8-0.5c-3.2,0.1-3.7,4.2-0.4,4.9c0.6,0.1,1.4,0.3,2.1,0.3
			c-10,7.5-19.8,15.3-29.8,22.8c-36,27.8-71,56.9-106,85.7c-16.8,13.8-33.7,27.9-51.6,40.2c-16.8,11.6-33.7,23.1-47.8,38
			c-0.6,0.6-0.9,1.3-1.1,1.9c-2.5-1.8-5.9,1.6-3.7,4.2c23,27.8,59.7,35,87.7,56.1c1.2,0.9,2.2,1,3.1,0.6c13.3,18.5,29.3,35,45.6,51
			c13.6,13.1,26.6,26.8,40.2,39.9c1.5,2.5,3,4.9,4.6,7.2c1,1.6,2.7,1.6,4.1,1.1C763.1,558,766.3,556.7,767.3,554.4z M669,453.7
			c0.1-0.1,0.1-0.3,0.1-0.5c0.3-0.2,0.9-0.4,1.3-0.9c31.7-28.2,60-60.5,87.7-92.4c28.7-32.8,56.9-66,84.8-99.2
			c28.9-34.3,57.2-69,84.8-104.3c10.2-13.2,23.2-25.3,33.1-38.6c7.8-10.6,14.5-20.3,24-29.6c-21.4,28.9-40.1,60.2-60.1,90.1
			c-22.8,33.9-45.8,67.8-70.9,100c-25.1,32.5-51.4,63.6-74.8,97.5c-12.2,17.8-24,35.7-35.2,54c-9.7,15.6-19.8,32.6-33.3,45.2
			c-0.7,0.8-1.1,1.6-1.3,2.4c-2.7,2.1-1.2,7.5,3,7.3c7.4,11.1,14.5,22.2,21.6,33.4c-6.3-5.6-12.7-11.3-18.9-17.1
			C698.6,485.9,683.1,470.5,669,453.7z M990.2,79.6c-20.5,14.8-43.8,43.7-61.9,66.3c-21.9,27.3-44.3,54.1-66.9,80.8
			c-3.1,0.4-6.4,2-9.2,3.2c-1.1,0.5-0.4,1.9,0.6,1.7c1.7-0.6,3.3-1,5.1-1.5c0.2-0.1,0.5-0.1,0.7-0.2c-1.2,1.4-2.4,2.8-3.7,4.2
			c-3.4,1.1-6.7,2.2-10.4,2.6c-1.3,0.2-1.1,2.1,0.1,2.1c2.5-0.3,5-0.8,7.5-1.5c-1.1,1.2-2,2.5-3.1,3.7c-5.5,1.8-11.1,3.6-16.7,5.5
			c-0.9,0.4-0.4,1.7,0.5,1.4c4.4-1.3,8.8-2.3,13.2-3.4c-1.1,1.2-2,2.5-3.1,3.7c-0.6,0.7-1.2,1.4-1.6,2.1c-8.2,2.4-16.6,4.3-24.8,6.7
			c-0.9,0.2-0.4,1.7,0.5,1.4c7.2-1.8,14.5-3,21.5-5c-1.8,2.1-3.7,4.2-5.5,6.3c-8.7,1.6-17.3,4.4-25.8,6.6c-0.8,0.2-0.5,1.7,0.3,1.5
			c7.6-1.6,15.4-3,23-5.1c-1.4,1.6-2.7,3.3-4.2,4.9c-10.3,2.8-20.6,5.3-31.1,7.8c-1,0.3-0.4,1.9,0.6,1.7c9.3-2.2,18.7-4,27.8-6.5
			c-1.5,1.9-3.3,3.8-4.9,5.7c-11.9,3-23.7,6.5-35.7,8.3c-1.3,0.3-1.1,2.1,0.1,2.1c11.2-1.5,21.8-4.2,32.7-7c-1.9,2.4-4.1,4.8-6.1,7
			c-13.3,2.7-27.1,4.6-40.2,8.6c-0.9,0.2-0.4,1.7,0.5,1.4c12.1-3.1,24.5-4.2,36.7-6.6c-1.9,2.4-4,4.6-5.9,7c-0.1,0-0.1-0.1-0.3-0.1
			c-7.5,0.8-15.3,2.8-22.8,4.2c-7.2,1.2-14.1,2.7-20.9,5.3c-0.9,0.4-0.4,1.7,0.5,1.4c13.1-4.9,27.4-5,41-8.1c-1.7,1.9-3.5,4.1-5.2,6
			c-15.6,4.1-32.4,6.3-47.6,11.8c-0.3,0.2-0.3,0.7,0.2,0.7c14.7-1.6,30-4.7,44.4-8.9c-2.5,3-5.2,6-7.7,9c-16.1,3.5-31.9,8.2-48,11.4
			c-0.7,0.2-0.7,1.3,0,1.2c15-1.4,30.4-4.7,44.9-9.1c-2.3,2.8-4.8,5.4-7.2,8.3c-15.2,3.7-30.6,6.7-45.6,11.2
			c-0.3,0.2-0.2,0.8,0.2,0.8c14.1-3,28.3-5.5,42.4-8.7c-1.9,2.4-4,4.5-6,6.9c-7.2,1.8-14.3,2.7-21.4,4.7c-8,2.2-15.9,4.6-24.2,5.8
			c-0.6,0.1-0.5,1,0.1,1c8.5-0.7,16.7-2.4,24.8-4.5c5.9-1.5,11.8-2.4,17.7-3.5c-2.9,3.2-5.6,6.3-8.5,9.4
			c-13.4,3.2-26.9,6.6-40.3,9.5c-0.8,0.2-0.8,1.4,0.2,1.3c9-0.7,18.1-4,27-5.9c3.5-0.8,7-1.4,10.5-2.1c-27.5,30.8-55.6,61-85.2,90.1
			c-0.3,0.3-0.6,0.7-0.8,1c-25.1-17.1-56.5-24.3-78.7-45.1c0.3-0.2,0.9-0.6,1.1-1c14.2-14.9,30.9-26.3,47.7-38
			c17.9-12.4,34.8-26.5,51.6-40.3c34.2-28.2,68.1-56.7,103-83.9c12.9-10,25.8-20,38.8-30.1c7,0.7,14.2,1.1,21.1,0.6
			c1.6-0.1,1.6-2.8,0-2.8c-5.3-0.1-10.3-1.1-15.5-2.1c1.5-1.1,2.9-2.3,4.4-3.4c4,0.2,7.8,0.5,11.6,1.1c1.9,0.2,2.1-2.5,0.3-3
			c-2.4-0.6-5-1-7.7-1.5c17.5-13.5,35.2-27,52.6-40.6c16.9-13,33.3-26.6,49.5-40.6C958.4,103.7,972.8,88.5,990.2,79.6z M773.9,476.6
			c-17.1-1-34.1-1.8-51.2-1.1c10.3-11.3,18.9-24.7,26.8-37.6c11.2-18.3,22.7-36.5,34.9-54.3c23.3-34,49.2-65.3,74.2-97.9
			c25.6-33.4,49.2-68,72.1-103.2c20.8-32,42.6-63.6,62.3-96.5c-5.8,31.4-14.4,62.2-19,94c-5.1,36-10.6,72.1-14.5,108.3
			c-3.8,34.2-8,68.8-9.4,103.2c-0.7,16.7,0,32.9,1,49.5c0.9,15,3.6,29.9,1.8,44.7c-15.8-3.6-32.1-3.8-48.5-4.3
			c-21-0.5-42.1-1.6-63.3-2.3C818.5,478.3,796.1,477.9,773.9,476.6z M789.1,492.8c-11.7-2-23.5-2.3-35.4-2.6
			c-11.3-0.3-22.5-1.5-33.5-1.7c-0.1-0.1-0.5,0.1-0.6,0.1c-1.2-1.5-2.5-3-3.7-4.3c21.1-1.7,42.4-0.2,63.6,0.8
			c4.4,0.1,8.8,0.4,13.2,0.6C791.6,488.1,790.2,490.3,789.1,492.8z M784.8,500.9c-18.8,0.6-38.1-1.5-56.8-2.7
			c-0.1,0-0.1-0.1-0.3-0.1c-1.5-1.8-2.8-3.5-4.3-5.2c11.2,0.3,22.2,1.5,33.3,1.3c10.5-0.2,21-0.6,31.4,0.4
			C787.1,496.6,785.9,498.8,784.8,500.9z M780.2,509.4c-7.7,0.1-15.2-0.9-23-0.6c-6.5,0.3-13.8-1-20.2,0.8c-1.7-2.3-3.7-4.7-5.5-7
			c8.3,0.4,16.9,0,25.1,0.2c9.2,0.2,18.4,0.1,27.4-0.6C782.7,504.7,781.4,507.1,780.2,509.4z M775.5,518.5
			c-10.3,0.8-21.4,0.6-31.8,0.1c-1.2-1.7-2.4-3.4-3.7-5.1c6.5-1,14-0.7,20.7-1.1c6.3-0.5,12.5-0.6,18.7-1.2
			c-1.2,2.3-2.4,4.7-3.5,6.9C775.6,518.4,775.6,518.4,775.5,518.5z M758.2,541.3c2.7,0.1,5.7,0.1,8.4-0.2c-0.9,2-2,4-3.3,5.8
			C761.6,545.1,760,543.1,758.2,541.3z M753.4,533.5c2.6-0.1,5-0.5,7.5-0.5c3-0.2,6-0.3,9.2-0.6c-0.7,2-1.3,3.7-2,5.4
			c-4.3,0.1-8.4-0.6-12.7-1.1C754.7,535.7,754,534.6,753.4,533.5z M750.6,529.1c-1.3-1.9-2.5-3.9-3.8-5.8c4.5-0.1,8.9-0.6,13.4-0.7
			c4.6,0,9.1-0.2,13.7-1c-1,2.5-2,5.1-2.9,7.5C764.3,529.1,757.5,529.1,750.6,529.1z"/>
		<path class="st1" d="M14.4,891.4c49.7-36.1,110.6-63.1,171.3-73.3c29.1-4.9,60.8-6.7,89.1,3.4c1,0.3,2.1,0.8,3,1.1
			c-14.9,9.8-27.6,22.5-33.7,39.1c-9.7,26.5-3.3,70.1,28.3,78.6c31.1,8.4,70.3-9.9,70.4-45.5c0-30.2-18.7-57-43.7-72.6
			c18-8.9,38.1-14.3,57.6-17.4c31.9-5,62.3-0.9,94.2,1.2c40.2,2.6,82.6,3.4,121.1-9.7c29.7-10,57.7-30.7,69.9-60.1
			c0.3,0.1,0.6-0.1,0.7,0c38.7-4.9,77.1-25.9,101.3-56.7c24-30.6,32.8-68.3,28.2-106.5c-0.5-3.6-5.7-2.6-5.4,0.8
			c3.4,34.6-4.4,69.9-26.3,97.5c-21.3,27.1-54.7,48-88.7,54.1c-2.1,0.3-4.4,0.7-6.5,1c0.4-1.4,0.9-2.9,1.1-4.4
			c5.7-25.2-3.6-54-17.4-75c-12.6-19.3-34.3-38-58.8-30.4c-31.6,9.7-48.2,47.5-31.1,76.5c18.6,31.7,55.8,45,91.5,43.9
			c-3.8,7.4-8.8,14.3-14.2,20.3c-28.3,30.6-73.1,38-112.8,39.3c-21.1,0.7-42.2-0.4-63.3-2.1c-16-1.3-32.2-3.7-48.4-3.5
			c-29.2,0.3-59,5.7-86.1,16.8c-5.9,2.4-11.6,5.2-17.4,8.3c-26.8-12.5-58-13.8-86.9-10.4c-68.4,7.8-137.7,37.3-193.3,77.7
			C2.8,887.4,9.2,895.2,14.4,891.4z M634.5,727.9c-31.4,1.7-65.8-7-84.1-33.7c-9.2-13.4-13.4-31.6-3.8-46.1
			c6.7-10.2,17.5-20.8,30.3-22.5c26.5-3.6,45.5,25.4,54,46.6c4.9,12.5,8.3,26.3,7.2,39.8C637.5,717.2,636.2,722.7,634.5,727.9z
			 M289.1,827.9c21.1,11.4,38.2,30.2,42.8,54.3c2.9,16-0.4,34.1-15.9,42.6c-15.7,8.9-41.8,12.6-54.7-3.2
			c-20.4-25.2-11.2-62.7,11.7-82.3C278,835,283.4,831.2,289.1,827.9z"/>
		<path class="st1" d="M857.8,495.9c16.7-1,33-3.2,49.6-3.1c19,0.1,37.8,2.6,56.7,4c0.1,0.1,0.3,0.1,0.5,0.1
			c1.3-10.7-0.5-21.6-0.5-32.4c0.1-13.3,1.2-26.5,1.6-39.7c1-27.3-0.6-54.7,1.7-82.1c0-0.6,1-0.6,1.1,0c2.3,26.3,2,52.8,1.4,79.1
			c-0.2,13.4-0.9,26.7-1.3,40c-0.3,12.2,1.8,24.5,0,36.5c-0.3,1.4-1.5,2-2.7,1.8c-0.3,1-1.3,1.9-2.6,1.9
			c-16.7-0.4-33.3-3.1-50.1-4.3c-18.3-1.3-37.2-1.3-55.6-0.7C857.4,496.9,857.3,496,857.8,495.9z"/>
		<path class="st1" d="M872.8,502.5c16.5-3,33.5,0,50.1,0.5c17.6,0.5,35.4,1.6,52.9,3.4c0.3,0.1,0.5,0.1,0.6,0.1
			c1.3-7.8-0.3-15.5-1.3-23.2c-1.3-8.8-0.3-17.4,0.3-26.3c1.5-21.5,1.9-42.4,1.1-64c0-0.6,0.7-0.8,1-0.1c5.2,19.8,4.2,41.3,2.8,61.5
			c-0.7,10.4-1.5,20.5-0.1,30.8c1.1,8.2,2,16.1,0,24.1c-0.2,1.2-1.4,1.5-2.4,1.3c-0.4,0.8-1.2,1.2-2.4,1.3
			c-16.4-1.7-33.1-2.9-49.6-3.5c-17.1-0.7-35.3-4.6-52.4-2.2C871.1,506.5,870.5,502.9,872.8,502.5z"/>
		<path class="st1" d="M736.4,472.2c-0.7,0-1.3-0.3-1.7-0.7c-0.3,0.3-0.6,0.7-0.9,0.9c-2,2-4.8-1.4-2.8-3.3
			c17.6-17.2,25.6-41.8,41.7-60.3c0.8-0.9,2.2,0.1,1.7,1.1c-12.1,19-21.1,40.6-36.2,57.6c9.4-0.1,18.8,1.5,28.1,2
			c13.6,0.9,27.3,1,40.9,1.6c1.1,0.1,1.2,2,0.1,1.9c-11.4,0.3-23,0.6-34.5,0.3C760.5,473.6,748.3,471.4,736.4,472.2z"/>
		<path class="st1" d="M939.1,179.1c15.7-21.2,26.2-46.2,40.8-68.1c1.7-2.4,5.4,0.2,3.9,2.7c-14.7,22-26.1,46-42.6,66.7
			C940.1,181.6,938.3,180.4,939.1,179.1z"/>
		<path class="st1" d="M997.8,105.3c1.6-12.7,3.9-25.5,4.5-38.2c0.1-0.8,1.3-0.9,1.4,0.1c1.6,11.5-0.7,24-1.9,35.5
			c-1.4,13.4-4.7,26.5-5.3,40.1c-0.1,2.5-3.7,2-3.8-0.4C992.9,129.7,996.3,117.6,997.8,105.3z"/>
		<path class="st1" d="M1003.3,109.6c2-9.7,5.9-20.7,4.9-30.6c0-1.2,1.5-1.4,1.8-0.4c2.2,8-0.4,17-1.9,24.8
			c-1.9,11.3-4.1,22.3-5.7,33.5c-0.3,2.6-4.5,2.2-4.2-0.4C999.7,127.8,1001.6,118.8,1003.3,109.6z"/>
		<path class="st1" d="M640.5,425.2c8.5,4.3,17.5,9.4,25.2,15.1c1.6,1.1-0.2,3.7-1.8,2.6c-9.2-6.8-20.1-12.7-30.2-17.7
			c-8.9-4.3-18.6-7.1-26.7-13.2c-0.9-0.7,0.1-2,1.1-1.3C617.8,416.9,630,420.2,640.5,425.2z"/>
		<path class="st1" d="M670.1,435c1.6,1.1-0.1,3.4-1.8,2.5C652.9,427,635,419.6,618,412.1c-1-0.5-0.4-1.9,0.5-1.6
			C636.1,417.1,654.6,424.1,670.1,435z"/>
		<path class="st1" d="M674.6,431.4c1.8,1-0.1,3.6-1.9,2.6c-13.5-8.2-28.1-18.4-43.5-22.6c-0.4-0.2-0.3-0.8,0.1-0.8
			c6-0.9,14.5,4.3,19.9,6.8C657.9,421.5,666.2,426.3,674.6,431.4z"/>
		<path class="st1" d="M679.1,425c1.4,1.2-0.1,3.4-1.7,2.3c-4.7-3.5-10.7-5.8-16-8.4c-6.5-3.1-13.3-5.8-20.2-8.5
			c-1.2-0.4-0.5-2.2,0.7-1.7c6.9,2.2,13.7,4.6,20.3,7.6C668,418.9,674.6,421.2,679.1,425z"/>
		<path class="st1" d="M681.2,424.7c-7.9-6.7-19.1-9.5-26.9-16.6c0-0.1-0.1-0.2,0.1-0.3c2.4-0.6,7.8,3.5,9.7,4.4
			c6,3.1,13.4,5.7,18.6,10.3C684,423.6,682.4,425.9,681.2,424.7z"/>
		<path class="st1" d="M685.3,419.9c-2.9-1.3-5.4-3.4-7.9-5c-3.6-2.2-7-4.4-10.8-6.5c-1-0.5,0-2.1,0.8-1.8
			c6.4,3.1,12.6,7.3,18.9,10.6C687.8,418.3,686.8,420.6,685.3,419.9z"/>
		<path class="st1" d="M615.7,435.1c8.2,3.5,16.1,7.8,24.2,11.4c7.7,3.5,16.2,7.3,22.9,12.7c0.3,0.2,0.4,0.5,0.6,0.9
			c5.4,6.2,10.5,12.4,15.7,18.9c4.3,5.1,8.9,9.7,12,15.6c0.2,0.4-0.6,1-0.9,0.6c-8-11.8-19.5-22.7-29.4-33c-0.3-0.2-0.3-0.4-0.3-0.8
			c-13.5-10.5-31.1-15.5-45-25.2C614.8,435.7,615.2,434.8,615.7,435.1z"/>
	</g>
	<g>
		<path class="st2" d="M384.5,396.9c0.1,0,0.4-0.1,0.6-0.2c4-2.3,6.1-6.4,9.4-9.6c3.4-3.3,7.3-6.5,10.1-10.4
			c5.4,2.3,10.7,4.4,16.2,6.7c7,2.9,14,6,21,8.7c6.5,2.5,13.2,4.7,18.8,9c0.9,0.7,2.1-0.5,1.6-1.3c0,0,0.1,0,0.1-0.1
			c2.8-5.1,3.9-10.7,5.6-16.2c2-6.5,4.1-13,6.9-19.2c5.4-11.9,11.4-23.7,17.5-35.4c6.4-12.3,13.1-24.4,19.8-36.5
			c6.1-11.1,14.6-21,19.5-32.7c0.3-0.5-0.1-1-0.6-1.1c-0.2-0.2-0.4-0.3-0.7-0.3c0-0.1-0.1-0.2-0.3-0.3c-7.6-0.8-15.4,2.7-22.5,5.1
			c-7.7,2.5-15.3,5-23.2,7.2c-9.5,2.6-18.8,5.3-28.2,8c-1.5-0.9-3.2-1.6-4.7-2.4c-0.8-0.3-1.6,0.7-0.9,1.3c0.9,0.7,2,1.3,3,1.9
			c-0.5,0.1-1,0.3-1.5,0.4c-0.8-0.4-1.8-1-2.7-1.3c-1.1-0.4-1.9,1-0.9,1.7c0.2,0.2,0.4,0.3,0.7,0.3c-4.6,1.4-9.1,2.7-13.7,4
			c-16.5,4.9-32.9,10.5-49.3,15.8c-7.9,2.5-15.7,5.2-23.8,7.2c-7.6,1.7-15.1,3.6-22.1,6.9c-0.4,0.1-0.5,0.4-0.6,0.5
			c-0.6-1-2.3-0.3-1.9,1c4.4,13,16.4,20.6,23.3,31.9c0.2,0.4,0.6,0.6,1,0.6c2.2,8.5,5.6,16.4,9.2,24.3c3,6.5,5.8,13.2,8.7,19.6
			c0.2,1.1,0.3,2.1,0.7,3.2c0.2,0.7,0.7,1,1.3,0.9C382.6,397.7,383.9,397.6,384.5,396.9z M363.5,347.8c0.1,0,0.1-0.1,0.1-0.1
			c0.1,0,0.4,0,0.6-0.1c15-5.7,29.5-13.3,43.7-20.7c14.6-7.7,29.2-15.5,43.6-23.5c15-8.2,29.7-16.6,44.3-25.4
			c5.4-3.2,11.7-5.8,17-9.1c4.2-2.7,7.9-5.2,12.5-7.2c-11.5,7.4-22.5,15.8-33.7,23.7c-12.8,8.8-25.5,17.7-38.8,25.8
			s-27,15.4-39.9,24.3c-6.7,4.6-13.4,9.3-19.9,14.3c-5.6,4.2-11.4,8.8-18,11.4c-0.3,0.2-0.7,0.4-0.8,0.7c-1.3,0.4-1.4,2.5,0,3
			c1.1,4.9,2.1,9.8,3.1,14.9c-1.5-2.9-2.9-5.7-4.4-8.6C369.6,363.3,366.3,355.7,363.5,347.8z M528.5,259.2c-9.4,2.4-21.5,9.5-31,15
			c-11.5,6.6-23.1,13.1-34.7,19.4c-1.2-0.2-2.6-0.2-3.7-0.2c-0.5,0-0.5,0.6,0,0.6c0.6,0,1.2,0.1,2,0.2c0.1,0,0.1,0.1,0.3,0.1
			c-0.7,0.4-1.3,0.7-1.9,1c-1.4-0.1-2.7-0.1-4-0.5c-0.5-0.1-0.7,0.6-0.2,0.8c0.9,0.3,1.9,0.4,2.9,0.5c-0.6,0.2-1.1,0.6-1.7,0.8
			c-2.2-0.1-4.5-0.3-6.7-0.3c-0.4,0-0.4,0.6,0,0.6c1.7,0.1,3.5,0.4,5.1,0.6c-0.6,0.2-1.1,0.6-1.7,0.8c-0.3,0.2-0.7,0.4-0.9,0.6
			c-3.2-0.3-6.5-0.8-9.8-1.1c-0.4,0-0.4,0.6,0,0.6c2.8,0.4,5.6,0.9,8.3,1.2c-0.9,0.4-1.9,1-2.9,1.5c-3.3-0.6-6.8-0.8-10-1.2
			c-0.3-0.1-0.4,0.6-0.1,0.6c2.9,0.5,5.9,1.1,8.8,1.3c-0.8,0.4-1.4,0.8-2.2,1.2c-4-0.5-8-1-12-1.5c-0.4,0-0.5,0.6,0,0.6
			c3.6,0.4,7.2,1.1,10.7,1.5c-0.8,0.4-1.7,0.8-2.5,1.4c-4.6-0.6-9.2-1-13.7-1.9c-0.5-0.1-0.7,0.6-0.2,0.8c4.1,1,8.3,1.5,12.5,2
			c-1,0.6-2.1,1.1-3.1,1.6c-5.1-0.9-10.2-2.1-15.4-2.4c-0.4,0-0.4,0.6,0,0.6c4.6,0.6,9.3,1.9,13.9,2.6c-1,0.6-2.1,1.2-3.1,1.6
			c0,0,0-0.1-0.1-0.1c-2.7-0.8-5.9-1.1-8.7-1.7c-2.7-0.5-5.4-1.1-8.1-0.9c-0.4,0-0.4,0.6,0,0.6c5.3,0.1,10.4,1.9,15.6,2.8
			c-0.9,0.4-1.7,1-2.6,1.4c-6.2-0.8-12.3-2.2-18.5-2.4c-0.1,0-0.2,0.2-0.1,0.3c5.4,1.4,11.3,2.5,17,3c-1.3,0.8-2.6,1.4-4,2.1
			c-6.2-1-12.4-1.5-18.6-2.5c-0.3-0.1-0.4,0.3-0.2,0.4c5.5,1.5,11.4,2.4,17.1,2.9c-1.2,0.6-2.4,1.3-3.6,2
			c-5.9-0.8-11.7-1.8-17.7-2.3c-0.1,0-0.2,0.3-0.1,0.3c5.4,0.8,10.8,2,16.2,2.8c-1,0.6-2.1,1.1-3.1,1.6c-2.8-0.4-5.5-1-8.2-1.3
			c-3.1-0.3-6.2-0.5-9.3-1.3c-0.3-0.1-0.3,0.3,0,0.4c3.1,0.9,6.3,1.5,9.4,1.9c2.3,0.3,4.4,0.8,6.7,1.1c-1.4,0.7-2.9,1.5-4.3,2.1
			c-5.2-0.7-10.4-1.3-15.6-2.2c-0.3-0.1-0.4,0.3-0.1,0.5c3.3,1,7,1.1,10.4,1.6c1.4,0.2,2.7,0.5,4.1,0.7c-14,7.2-28,14-42.5,20.2
			c-0.1,0-0.3,0.2-0.4,0.3c-6.6-9.5-16.7-16.3-21.7-26.7c0.1,0,0.4-0.1,0.6-0.2c7.1-3.4,14.6-5.1,22.1-6.9c8-2,16-4.7,23.8-7.2
			c16-5.3,31.9-10.8,48-15.7c6-1.8,11.8-3.5,17.8-5.3c2.3,1.2,4.9,2.4,7.4,3.1c0.5,0.3,0.9-0.8,0.4-1.1c-1.9-0.7-3.4-1.8-5.2-2.8
			c0.7-0.2,1.4-0.4,2-0.5c1.4,0.7,2.7,1.3,4,2c0.7,0.3,1.1-0.6,0.5-1c-0.9-0.6-1.7-1-2.5-1.5c8.1-2.3,16.1-4.8,24.3-7.2
			c7.8-2.3,15.4-4.9,23.1-7.6C514,263.4,521.1,260.1,528.5,259.2z M397.5,370.3c-5.9-2.6-11.9-5.3-18-7.4c5.2-2.6,10-6.2,14.7-9.7
			c6.5-4.9,13-9.9,19.8-14.4c12.9-8.9,26.4-16.4,39.7-24.5c13.6-8.3,26.7-17.3,39.7-26.7c11.7-8.5,23.8-16.7,35.3-25.7
			c-6.3,10.3-13.6,20.2-19.6,30.7c-6.7,12.1-13.7,24.1-19.9,36.4c-6.1,11.6-12.2,23.3-17.5,35.3c-2.5,5.8-4.5,11.6-6.5,17.8
			c-1.8,5.4-2.8,11.1-5.5,16.1c-5.1-3.4-10.9-5.7-16.5-8.2c-7.4-3.1-14.7-6.4-22.1-9.4C413.1,377,405.2,373.8,397.5,370.3z
			 M400.8,378.1c-3.9-2.3-8-4-12.1-5.7c-4-1.6-7.7-3.6-11.6-5.2c0-0.1-0.1-0.1-0.3-0.1c-0.3-0.7-0.4-1.4-0.8-2
			c7.7,2.3,15,5.7,22.5,9c1.5,0.7,3.1,1.3,4.6,2.1C402.2,376.7,401.5,377.4,400.8,378.1z M398.1,380.4c-6.7-2.3-13.3-5.7-19.7-8.7
			c0,0,0-0.1-0.1-0.1c-0.3-0.8-0.5-1.6-0.8-2.4c3.9,1.6,7.6,3.6,11.6,5.1c3.7,1.4,7.5,2.7,11.1,4.5
			C399.4,379.2,398.8,379.8,398.1,380.4z M395.3,382.7c-2.8-1-5.3-2.4-8.1-3.4c-2.4-0.8-4.7-2.2-7.3-2.5c-0.3-1-0.7-2.2-1.1-3.2
			c2.9,1.3,6,2.4,8.8,3.5c3.2,1.4,6.5,2.5,9.8,3.5C396.8,381.4,396,382.1,395.3,382.7z M392.3,385.3c-3.8-1.1-7.7-2.8-11.3-4.3
			c-0.2-0.8-0.4-1.5-0.6-2.3c2.4,0.6,5,1.7,7.5,2.4c2.2,0.7,4.5,1.5,6.8,2.1c-0.7,0.6-1.6,1.3-2.3,2
			C392.4,385.3,392.4,385.3,392.3,385.3z M383.1,391.1c0.9,0.4,2,0.8,3,1.1c-0.6,0.6-1.2,1.1-2,1.6
			C383.9,392.9,383.5,392,383.1,391.1z M382.5,387.7c0.9,0.3,1.8,0.5,2.8,0.9c1.1,0.4,2.2,0.7,3.3,1c-0.5,0.6-1,1.2-1.5,1.7
			c-1.6-0.5-2.9-1.5-4.4-2.1C382.6,388.6,382.6,388.1,382.5,387.7z M382.1,385.7c-0.2-0.9-0.4-1.8-0.6-2.6c1.6,0.5,3.3,1,4.9,1.6
			c1.6,0.6,3.3,1.1,5,1.5c-0.7,0.8-1.4,1.5-2.1,2.3C387,387.6,384.5,386.6,382.1,385.7z"/>
		<path class="st2" d="M71.6,413.3c22.6-5.9,47.8-7.2,70.7-2.6c11,2.3,22.4,5.9,31.1,13.4c0.3,0.3,0.6,0.6,0.9,0.8
			c-6.7,1.4-12.8,4.2-17.3,9.2c-7.1,8-10.8,24.4-0.8,31.7c9.8,7.2,26.2,6.1,31.1-6.4c4.2-10.7,1.2-22.8-5.6-31.7
			c7.7-0.7,15.4,0.1,22.7,1.7c12,2.6,22.2,8.2,33.3,13.3c13.8,6.4,28.8,12.5,44.2,13.1c12,0.5,24.7-3,33-11.7
			c0.1,0.1,0.3,0.1,0.3,0.1c14.3,3.6,30.8,1.3,43.6-6.2c12.7-7.5,21-19.6,24.6-33.9c0.3-1.3-1.7-1.7-2-0.4
			c-3.5,12.7-11.1,24.1-22.7,31c-11.3,6.7-26,9.5-38.8,7c-0.8-0.2-1.7-0.4-2.4-0.6c0.4-0.5,0.7-0.9,1-1.4c5.5-8.1,6.1-19.6,4.1-29
			c-1.8-8.5-7-18.2-16.7-18.8c-12.5-0.9-23.6,10.2-21.5,22.8c2.2,13.8,13.6,23.6,26.4,28.1c-2.4,2.1-5,3.9-7.8,5.2
			c-14.2,6.9-31.1,3.5-45.3-1.5c-7.5-2.7-14.9-5.8-22.2-9.4c-5.5-2.6-10.9-5.7-16.7-7.9c-10.4-3.9-21.7-6.1-32.8-5.9
			c-2.4,0-4.8,0.2-7.4,0.5c-7.7-8.1-18.6-12.9-29.4-15.6c-25.3-6.7-53.9-5.7-79.1,1.1C68,410.2,69.3,413.9,71.6,413.3z M313.7,440.2
			c-11.4-3.7-22.4-11.5-25.2-23.4c-1.4-6.1-0.5-13,4.9-16.8c3.8-2.7,9.1-5,13.8-3.8c9.9,2.3,12.7,15.2,12.7,23.9
			c0,5.1-0.7,10.5-2.9,15C316.2,436.8,315.1,438.7,313.7,440.2z M177.6,428.4c5.9,6.9,9.4,15.9,7.7,25.1c-1.1,6.1-4.8,12-11.5,13
			s-16.5-1.2-19-8.6c-3.9-11.8,4.6-23.7,15.5-27.5C172.7,429.4,175.2,428.8,177.6,428.4z"/>
		<path class="st2" d="M424.7,388.7c6,1.9,12.1,3.4,18,5.7c6.7,2.6,13,6.1,19.6,9.1c0,0.1,0.1,0.1,0.1,0.1c1.9-3.6,2.8-7.7,4.2-11.5
			c1.8-4.7,4-9.3,5.9-13.9c4.1-9.5,7.3-19.5,11.9-28.8c0.1-0.3,0.5-0.1,0.4,0.2c-2.8,9.6-6.6,19-10.3,28.2c-1.9,4.7-4,9.4-5.9,14
			c-1.8,4.3-2.7,8.9-5,12.9c-0.3,0.4-0.9,0.6-1.2,0.3c-0.3,0.3-0.7,0.5-1.2,0.3c-5.9-2.4-11.4-5.6-17.2-8.4
			c-6.3-3.1-13-5.5-19.7-7.9C424.4,389,424.4,388.6,424.7,388.7z"/>
		<path class="st2" d="M429,393c6.3,1.2,11.9,4.7,17.7,7.1c6.2,2.6,12.3,5.4,18.3,8.4c0.1,0.1,0.1,0.1,0.2,0.2
			c1.5-2.6,2-5.6,2.7-8.4c0.8-3.3,2.2-6.2,3.8-9.2c3.4-7.5,6.5-14.8,9.1-22.5c0.1-0.3,0.3-0.2,0.4,0c-0.9,7.8-4.2,15.2-7.4,22.1
			c-1.7,3.5-3.4,7.1-4.3,10.9c-0.7,3.1-1.5,6-3.3,8.5c-0.3,0.4-0.7,0.4-1.1,0.1c-0.2,0.2-0.7,0.3-1.1,0.1
			c-5.5-2.9-11.3-5.5-17.1-8.1c-5.9-2.6-11.9-6.5-18.3-7.9C427.9,394.2,428.2,392.8,429,393z"/>
		<path class="st2" d="M384.8,363.6c-0.3-0.1-0.4-0.3-0.6-0.5c-0.1,0-0.3,0.2-0.4,0.2c-1,0.5-1.5-1.2-0.6-1.6
			c8.6-3.7,14.8-11.2,23-15.7c0.4-0.2,0.8,0.3,0.5,0.6c-6.8,5.1-13.1,11.5-20.6,15.4c3.3,1.2,6.4,3.1,9.7,4.6
			c4.7,2.2,9.5,4.1,14.3,6.2c0.4,0.2,0.2,0.8-0.2,0.7c-4.1-1.4-8.2-2.9-12.2-4.6C393.2,367.3,389.2,365,384.8,363.6z"/>
		<path class="st2" d="M496.8,287.5c8.5-5.4,15.6-12.8,23.8-18.5c1-0.7,1.9,0.8,1.1,1.5c-8.2,5.8-15.6,12.8-24.3,17.8
			C496.8,288.5,496.4,287.8,496.8,287.5z"/>
		<path class="st2" d="M527.8,269.4c2.3-4.3,4.9-8.5,6.9-13c0.2-0.3,0.6-0.1,0.5,0.1c-1,4.3-3.6,8.3-5.5,12.3
			c-2.3,4.5-5.3,8.7-7.4,13.4c-0.4,0.8-1.5,0.2-1.3-0.7C522.6,277.3,525.5,273.5,527.8,269.4z"/>
		<path class="st2" d="M529.1,271.7c2-3.2,4.9-6.6,5.9-10.2c0.2-0.4,0.7-0.3,0.6,0.1c-0.3,3.1-2.5,5.9-4,8.6
			c-2.2,3.8-4.5,7.3-6.7,11.1c-0.5,1-1.9,0.2-1.4-0.7C525.4,277.6,527.2,274.6,529.1,271.7z"/>
		<path class="st2" d="M357.3,333.8c2.4,2.7,4.9,5.8,6.9,8.8c0.4,0.7-0.6,1.2-1,0.7c-2.4-3.6-5.4-7.3-8.3-10.4
			c-2.5-2.8-5.6-5.1-7.7-8.4c-0.2-0.3,0.3-0.7,0.5-0.4C350.4,327.7,354.3,330.5,357.3,333.8z"/>
		<path class="st2" d="M366.5,341.4c0.4,0.7-0.5,1.2-1,0.6c-4.1-5.9-9.3-10.8-14.4-15.9c-0.3-0.3,0.1-0.8,0.4-0.5
			C356.9,330.3,362.5,335.3,366.5,341.4z"/>
		<path class="st2" d="M368.5,340.7c0.5,0.6-0.6,1.2-1,0.7c-3.7-4.7-7.5-10.4-12.3-14c-0.1-0.1-0.1-0.4,0.2-0.3
			c2.3,0.5,4.5,3.5,6.1,5.2C364,334.9,366.2,337.8,368.5,340.7z"/>
		<path class="st2" d="M371,339.1c0.4,0.7-0.5,1.2-1,0.6c-1.1-1.8-3-3.5-4.5-5.1c-1.9-2-3.9-3.9-6-5.8c-0.4-0.3,0.1-0.9,0.5-0.6
			c2.1,1.8,4.2,3.5,6.2,5.5C367.9,335.3,370,337.1,371,339.1z"/>
		<path class="st2" d="M371.8,339.1c-1.9-3.5-5.5-6-7.3-9.6c0,0,0-0.1,0.1-0.1c0.9,0.2,2.3,2.3,2.8,2.9c1.8,1.9,4,3.9,5.1,6.2
			C373,339.1,372.1,339.8,371.8,339.1z"/>
		<path class="st2" d="M374,338c-0.8-0.8-1.4-1.9-2.1-2.9c-1-1.3-1.9-2.5-2.9-3.8c-0.3-0.3,0.3-0.8,0.5-0.5c1.9,2,3.5,4.3,5.3,6.3
			C375,337.8,374.4,338.4,374,338z"/>
		<path class="st2" d="M347.2,333.9c2.5,2.4,4.6,5,7.1,7.4c2.3,2.3,4.7,4.9,6.4,7.6c0,0.1,0.1,0.2,0.1,0.4c1,3,2,5.8,3,8.8
			c0.9,2.4,1.8,4.6,2.2,7.2c0.1,0.2-0.3,0.3-0.4,0.1c-1.3-5.3-3.8-10.7-5.9-15.7c0-0.1-0.1-0.2-0.1-0.4c-3.3-5.6-8.9-9.7-12.5-15
			C346.8,334,347,333.7,347.2,333.9z"/>
	</g>
	<g>
		<path class="st2" d="M882.5,874.1c0.1,0,0.3-0.2,0.4-0.3c2.6-3.9,2.6-8.5,4.2-12.8c1.6-4.5,3.7-9,4.5-13.8
			c5.8-0.3,11.6-0.8,17.5-1.2c7.6-0.5,15.1-0.7,22.8-1.5c7-0.6,14-1.5,20.9-0.2c1.2,0.2,1.7-1.3,0.8-1.8l0-0.1
			c0.2-5.8-1.2-11.4-2.1-17c-1.1-6.7-2-13.4-2.3-20.3c-0.4-13.1-0.3-26.3,0.1-39.5c0.3-13.9,1-27.7,1.6-41.5
			c0.6-12.6,3.9-25.3,3.1-37.8c0-0.6-0.6-0.9-1-0.8c-0.3-0.1-0.5-0.1-0.7,0c-0.1-0.1-0.2-0.2-0.4,0c-7.1,2.6-12.6,9.3-18,14.5
			c-5.9,5.7-11.6,11.3-17.6,16.6c-7.3,6.6-14.6,13-21.8,19.6c-1.7-0.1-3.6-0.1-5.3-0.1c-0.8,0.1-1.1,1.3-0.3,1.5
			c1.2,0.2,2.4,0.3,3.5,0.5c-0.4,0.3-0.7,0.6-1.1,1c-1,0-2-0.1-2.9,0c-1.2,0.1-1.2,1.7,0,1.8c0.3,0.1,0.5,0,0.9,0.1
			c-3.6,3.2-6.9,6.4-10.5,9.6c-12.6,11.8-24.9,23.9-37.3,36c-6,5.8-11.8,11.7-18.3,16.9c-5.9,4.9-11.9,9.9-16.9,16
			c-0.2,0.3-0.3,0.5-0.3,0.8c-1-0.6-2.1,0.8-1.2,1.7c9.6,9.8,23.7,11.3,35,18.4c0.4,0.3,0.9,0.3,1.2,0.1c5.7,6.6,12.3,12.3,19,17.8
			c5.5,4.6,11,9.2,16.5,13.8c0.7,0.8,1.2,1.7,2,2.6c0.5,0.6,1.1,0.5,1.6,0.3C881,875.7,882.2,875.1,882.5,874.1z M841.9,839.3
			C841.9,839.2,841.9,839.2,841.9,839.3c0.1-0.1,0.3-0.3,0.4-0.5c11.1-11.7,20.7-25,30.1-37.9c9.7-13.3,19.3-26.9,28.9-40.4
			c9.8-14,19.3-28,28.7-42.3c3.5-5.4,7.9-10.4,11.3-15.7c2.6-4.2,4.8-8.2,8.1-12c-7.2,11.7-13.2,24.1-19.8,36.1
			c-7.5,13.6-15.1,27.2-23.5,40.2c-8.4,13.2-17.3,25.7-25,39.3c-4,7.1-7.9,14.3-11.5,21.5c-3.2,6.2-6.4,13-11.1,18.2
			c-0.3,0.3-0.4,0.6-0.4,0.9c-0.9,0.8-0.2,2.9,1.4,2.6c3.2,4,6.2,8,9.3,11.9c-2.6-1.9-5.2-3.9-7.7-5.8
			C854.2,850.6,847.8,845.3,841.9,839.3z M951.1,687.1c-7.3,6.3-15.1,18-21.2,27.2c-7.4,11-15,21.9-22.7,32.8
			c-1.2,0.3-2.4,1-3.4,1.5c-0.4,0.2-0.1,0.8,0.3,0.7c0.7-0.3,1.2-0.5,1.8-0.6c0.1,0,0.1,0,0.2-0.1c-0.4,0.6-0.9,1.2-1.2,1.7
			c-1.2,0.5-2.5,1-3.9,1.3c-0.5,0.1-0.4,0.8,0.2,0.7c0.9-0.2,1.8-0.5,2.8-0.8c-0.4,0.5-0.6,1-1,1.6c-2,0.8-4,1.7-6.2,2.7
			c-0.3,0.2-0.1,0.6,0.2,0.6c1.6-0.6,3.3-1.2,4.9-1.8c-0.4,0.5-0.6,1-1,1.6c-0.2,0.3-0.4,0.6-0.6,0.9c-3.1,1.1-6.1,2.2-9.2,3.3
			c-0.4,0.1-0.1,0.6,0.2,0.6c2.6-0.9,5.4-1.6,8-2.6c-0.6,0.9-1.2,1.7-1.9,2.6c-3.2,0.9-6.4,2.2-9.5,3.4c-0.4,0.1-0.1,0.6,0.1,0.6
			c2.9-0.9,5.8-1.6,8.5-2.7c-0.5,0.7-0.9,1.3-1.4,2c-3.7,1.4-7.6,2.7-11.5,3.9c-0.3,0.2-0.1,0.8,0.3,0.7c3.4-1.1,6.9-2.1,10.4-3.3
			c-0.6,0.7-1.1,1.6-1.7,2.3c-4.4,1.6-8.7,3.2-13.3,4.3c-0.5,0.1-0.4,0.8,0.2,0.7c4.2-0.9,8.2-2.4,12.2-3.7c-0.6,1-1.4,1.9-2.1,2.9
			c-4.9,1.4-10.2,2.7-14.9,4.5c-0.4,0.1-0.1,0.6,0.2,0.6c4.4-1.6,9.2-2.3,13.6-3.8c-0.6,1-1.3,1.9-2,2.9l-0.1,0
			c-2.8,0.5-5.7,1.6-8.5,2.3c-2.7,0.7-5.2,1.5-7.7,2.8c-0.3,0.2-0.1,0.6,0.2,0.6c4.8-2.2,10.3-2.8,15.3-4.4
			c-0.6,0.7-1.2,1.6-1.8,2.5c-5.8,2.1-12.1,3.4-17.6,6.1c-0.1,0-0.1,0.3,0.1,0.2c5.5-1.1,11.1-2.8,16.5-4.9
			c-0.8,1.3-1.8,2.5-2.6,3.6c-6,1.9-11.8,4.1-17.8,5.9c-0.2,0.1-0.3,0.4,0.1,0.5c5.7-1,11.4-2.8,16.7-4.9c-0.9,1.2-1.6,2.2-2.5,3.3
			c-5.6,1.9-11.3,3.5-16.8,5.8c-0.1,0,0,0.4,0.1,0.4c5.3-1.6,10.5-3,15.7-4.7c-0.6,1-1.3,1.9-2.1,2.8c-2.6,0.9-5.3,1.5-7.9,2.4
			c-2.9,1.1-5.9,2.2-9,3c-0.2,0.1-0.2,0.4,0.1,0.4c3.2-0.6,6.3-1.5,9.2-2.5c2.2-0.7,4.4-1.3,6.6-1.9c-0.9,1.3-1.9,2.6-2.9,3.8
			c-4.9,1.7-10,3.4-15,4.9c-0.4,0.1-0.3,0.5,0.1,0.5c3.4-0.6,6.7-2.2,10-3.1c1.3-0.4,2.6-0.8,3.9-1.2c-9.4,12.6-19.1,25-29.2,36.9
			c-0.1,0.1-0.2,0.3-0.3,0.4c-10-5.7-22.2-7.3-31.3-14.4c0.1,0,0.3-0.2,0.4-0.3c4.9-6.1,10.8-11,16.7-15.9
			c6.3-5.3,12.3-11.2,18.2-17c12-11.9,23.9-23.7,36.2-35.1c4.5-4.1,9.1-8.4,13.7-12.6c2.7,0,5.4-0.1,8-0.5c0.6-0.1,0.5-1.1-0.1-1.1
			c-2,0.2-3.9,0-5.9-0.2c0.5-0.5,1-1,1.5-1.4c1.5-0.1,2.9,0,4.4,0c0.7,0,0.8-1,0-1.1c-1-0.2-1.9-0.2-2.9-0.4
			c6.2-5.7,12.4-11.3,18.6-17.1c5.9-5.5,11.7-11.2,17.4-16.9C939.9,697.3,944.8,691.2,951.1,687.1z M882.4,844.6
			c-6.6,0.2-13,0.5-19.4,1.2c3.5-4.7,6.3-10,8.9-15.1c3.6-7.2,7.4-14.5,11.4-21.6c7.7-13.6,16.5-26.4,24.9-39.6
			c8.6-13.5,16.4-27.3,23.9-41.4c6.8-12.8,14-25.5,20.4-38.6c-1.2,12.1-3.4,24.1-4.1,36.2c-0.7,13.8-1.7,27.6-1.9,41.5
			c-0.3,13-0.7,26.3-0.1,39.4c0.3,6.3,1.1,12.5,2.1,18.7c0.8,5.6,2.4,11.2,2.2,16.9c-6.2-0.9-12.3-0.4-18.4,0
			c-8,0.5-15.9,0.9-24.1,1.2C899.3,843.8,890.9,844.4,882.4,844.6z M888.7,850.2c-4.5-0.4-8.9,0-13.4,0.2c-4.2,0.3-8.5,0.1-12.7,0.4
			c-0.1,0-0.1,0-0.2,0.1c-0.5-0.5-1.1-1-1.5-1.5c7.9-1.3,16.1-1.5,24.1-1.7c1.7-0.1,3.4-0.1,5-0.2
			C889.4,848.3,889.1,849.3,888.7,850.2z M887.3,853.4c-7,0.9-14.5,0.7-21.6,0.8l-0.1,0c-0.6-0.6-1.2-1.2-1.9-1.8
			c4.2-0.3,8.4-0.2,12.7-0.6c4-0.4,8-0.9,11.9-1C888,851.7,887.6,852.5,887.3,853.4z M885.8,856.8c-2.9,0.3-5.8,0.2-8.7,0.5
			c-2.5,0.3-5.2,0.1-7.6,1c-0.8-0.8-1.6-1.6-2.4-2.4c3.2-0.1,6.4-0.5,9.5-0.7c3.5-0.3,7-0.5,10.4-1.1
			C886.7,854.9,886.2,855.9,885.8,856.8z M884.4,860.4c-3.9,0.6-8.1,0.9-12,1.1c-0.5-0.6-1.1-1.2-1.6-1.9c2.4-0.6,5.2-0.8,7.8-1.1
			c2.4-0.4,4.6-0.6,7-1C885.2,858.5,884.8,859.5,884.4,860.4C884.4,860.3,884.4,860.3,884.4,860.4z M878.6,869.6
			c1.1,0,2.2-0.1,3.2-0.3c-0.3,0.8-0.6,1.6-1.1,2.3C880.1,870.9,879.3,870.2,878.6,869.6z M876.5,866.7c1-0.1,1.9-0.4,2.8-0.5
			c1.2-0.1,2.2-0.4,3.4-0.5c-0.2,0.8-0.3,1.4-0.5,2.1c-1.7,0.1-3.2,0.1-4.9,0.1C877,867.6,876.8,867.2,876.5,866.7z M875.3,865.2
			c-0.5-0.7-1-1.4-1.7-2.1c1.7-0.2,3.4-0.5,5.1-0.7c1.8-0.1,3.5-0.4,5.2-0.9c-0.3,1-0.6,2-0.9,2.9
			C880.6,864.8,877.9,865,875.3,865.2z"/>
		<path class="st2" d="M608.7,1026.7c17.6-15.3,39.8-27.6,62.4-33.4c10.9-2.8,22.7-4.5,33.9-1.6c0.4,0,0.8,0.2,1.2,0.4
			c-5.3,4.2-9.7,9.4-11.5,15.9c-2.8,10.4,1.1,26.7,13.4,28.8c12.1,2.2,26.3-6.1,25.1-19.6c-1-11.4-8.9-20.9-18.9-26
			c6.5-4,14-6.7,21.2-8.4c12-2.9,23.6-2.4,35.7-2.7c15.2-0.3,31.3-1.5,45.5-7.7c10.9-4.8,20.8-13.5,24.5-25c0.1,0,0.2-0.1,0.2-0.1
			c14.5-3.1,28.3-12.4,36.5-24.8c8.1-12.4,10.1-26.9,7.2-41.3c-0.3-1.3-2.2-0.7-2,0.5c2.4,12.9,0.7,26.6-6.7,37.8
			c-7.2,11-19.1,20-31.8,23.4c-0.8,0.2-1.6,0.4-2.4,0.6c0.1-0.5,0.2-1.2,0.3-1.6c1.3-9.7-3.1-20.3-9.1-27.7
			c-5.4-6.9-14.2-13.2-23.3-9.5c-11.7,4.7-16.7,19.6-9.2,30c8.1,11.3,22.7,15.2,36.1,13.5c-1.2,2.9-2.8,5.7-4.7,8.1
			c-9.7,12.5-26.5,16.8-41.3,18.6c-8,1-16,1.2-24,1.4c-6.1,0.1-12.3-0.3-18.4,0.3c-11,1.1-22.1,4.1-32,9.2c-2.1,1.1-4.3,2.4-6.3,3.7
			c-10.6-3.8-22.5-3.3-33.2-1.1c-25.6,5.3-50.9,18.7-70.5,35.8C604.2,1025.6,606.8,1028.3,608.7,1026.7z M838,944.3
			c-11.9,1.7-25.2-0.5-32.9-9.9c-4-4.8-6.1-11.5-3-17.3c2.2-4.1,6-8.5,10.7-9.5c9.9-2.2,18.1,8.1,22,15.8c2.3,4.5,4,9.6,4,14.8
			C838.7,940.1,838.4,942.3,838,944.3z M710.6,993.5c8.3,3.6,15.5,10.1,18,19.1c1.7,6,0.9,12.9-4.6,16.6c-5.6,3.9-15.4,6.1-20.8,0.5
			c-8.6-8.8-6.3-23.3,1.7-31.5C706.6,996.5,708.5,995,710.6,993.5z"/>
		<path class="st2" d="M914.7,849.1c6.3-1,12.3-2.3,18.7-2.8c7.2-0.6,14.4-0.3,21.6-0.3c0.1,0,0.1,0,0.1,0c0.1-4.1-0.9-8.2-1.3-12.2
			c-0.4-5.1-0.4-10-0.7-15.1c-0.5-10.4-2-20.7-2-31.1c-0.1-0.2,0.3-0.2,0.4-0.1c1.8,9.9,2.6,20,3.2,29.9c0.4,5.1,0.6,10.1,0.8,15.2
			c0.3,4.6,1.5,9.2,1.2,13.8c0,0.5-0.6,0.9-1,0.7c0,0.4-0.5,0.7-0.9,0.8c-6.4,0.4-12.7-0.1-19.1,0.1c-7,0-14.1,0.7-21,1.6
			C914.7,849.5,914.6,849.2,914.7,849.1z"/>
		<path class="st2" d="M920.7,851.2c6.1-1.7,12.7-1.1,19-1.5c6.6-0.4,13.4-0.6,20.2-0.4c0.1,0,0.1,0,0.3,0.1c0.2-3-0.6-5.9-1.3-8.8
			c-0.8-3.2-0.7-6.6-0.8-10c-0.2-8.2-0.6-16.1-1.7-24.3c-0.1-0.2,0.3-0.3,0.4-0.1c2.7,7.3,3,15.5,3.1,23.2c0.1,4,0.1,7.8,0.9,11.7
			c0.7,3,1.3,6.1,0.9,9.1c0,0.5-0.5,0.6-0.9,0.6c-0.2,0.3-0.4,0.6-0.9,0.6c-6.3-0.1-12.6,0-18.9,0.3c-6.5,0.3-13.6-0.6-20,0.9
			C920.1,852.6,919.9,851.3,920.7,851.2z"/>
		<path class="st2" d="M868,844.1c-0.2,0.1-0.5-0.1-0.7-0.2c-0.1,0.1-0.2,0.3-0.3,0.4c-0.7,0.9-1.8-0.4-1.1-1.1
			c6.1-7,8.3-16.7,13.8-24.2c0.3-0.4,0.8-0.1,0.7,0.3c-4,7.6-6.7,16.1-11.8,23.1c3.6-0.3,7.2-0.1,10.7-0.1
			c5.2-0.1,10.4-0.5,15.5-0.8c0.4,0,0.5,0.6,0,0.7c-4.3,0.4-8.7,1-13,1.3C877.2,843.9,872.5,843.4,868,844.1z"/>
		<path class="st2" d="M935,726.5c5.2-8.6,8.4-18.3,13.1-27.1c0.5-1,2.1-0.1,1.5,0.9c-4.8,8.7-8.3,18.3-14,26.7
			C935.6,727.3,934.8,727,935,726.5z"/>
		<path class="st2" d="M954.9,696.6c0.2-4.9,0.6-9.8,0.4-14.6c0.1-0.3,0.4-0.3,0.5,0c1,4.3,0.5,9.1,0.4,13.5
			c-0.1,5.2-0.9,10.2-0.6,15.3c0.1,1-1.4,0.9-1.5,0C953.7,706.1,954.7,701.4,954.9,696.6z"/>
		<path class="st2" d="M957,698.1c0.4-3.8,1.6-8,0.8-11.8c-0.1-0.5,0.5-0.6,0.7-0.2c1.1,2.9,0.4,6.4,0.1,9.5
			c-0.3,4.3-0.8,8.6-1,12.9c0,1-1.6,1-1.6,0C956.3,705.1,956.7,701.6,957,698.1z"/>
		<path class="st2" d="M830.2,829.5c3.3,1.4,7,3,10.1,4.8c0.6,0.4,0,1.3-0.5,1c-3.7-2.3-8-4.2-12-5.7c-3.5-1.3-7.3-2.1-10.5-4.1
			c-0.4-0.2,0-0.7,0.4-0.6C821.3,827.1,826,828,830.2,829.5z"/>
		<path class="st2" d="M841.7,832.3c0.6,0.4,0,1.3-0.6,1c-6.2-3.4-13.2-5.6-19.9-8c-0.4-0.2-0.2-0.7,0.1-0.6
			C828.3,826.6,835.4,828.6,841.7,832.3z"/>
		<path class="st2" d="M843.2,830.7c0.7,0.3,0,1.3-0.6,1c-5.3-2.6-11.3-6-17.2-7.1c-0.1-0.1-0.2-0.3,0.1-0.3
			c2.2-0.6,5.6,1.1,7.7,1.9C836.7,827.5,839.9,829.1,843.2,830.7z"/>
		<path class="st2" d="M844.8,828.2c0.6,0.4,0,1.3-0.5,1c-1.8-1.2-4.2-1.9-6.3-2.7c-2.5-0.9-5.3-1.8-7.9-2.6
			c-0.5-0.1-0.3-0.8,0.2-0.7c2.7,0.6,5.4,1.3,7.9,2.2C840.4,826.2,843,826.9,844.8,828.2z"/>
		<path class="st2" d="M845.5,827.9c-3.2-2.3-7.6-3-10.7-5.4l0-0.1c0.9-0.3,3.2,1,3.8,1.4c2.4,1,5.2,1.7,7.4,3.3
			C846.6,827.5,846.1,828.4,845.5,827.9z"/>
		<path class="st2" d="M847,826c-1.1-0.4-2.1-1.1-3.2-1.6c-1.5-0.7-2.9-1.5-4.4-2.1c-0.4-0.2-0.1-0.8,0.3-0.7c2.5,1,5,2.3,7.5,3.4
			C847.8,825.4,847.6,826.2,847,826z"/>
		<path class="st2" d="M821.1,834c3.2,1,6.4,2.4,9.6,3.6c3,1.1,6.3,2.2,9.1,4c0.1,0.1,0.2,0.2,0.2,0.3c2.2,2.2,4.3,4.3,6.6,6.7
			c1.7,1.8,3.7,3.4,5.1,5.5c0.1,0.2-0.2,0.4-0.3,0.2c-3.5-4.3-8.2-7.9-12.3-11.5c-0.1-0.1-0.2-0.2-0.2-0.3c-5.4-3.6-12.3-4.8-17.9-8
			C820.8,834.3,821,834,821.1,834z"/>
	</g>
</g>
</svg>
