<?xml version="1.0" encoding="utf-8"?>
<!-- Generator: Adobe Illustrator 25.2.3, SVG Export Plug-In . SVG Version: 6.00 Build 0)  -->
<svg version="1.1" id="f1410098-b6ef-424e-beee-8c1519bc1d1f"
	 xmlns="http://www.w3.org/2000/svg" xmlns:xlink="http://www.w3.org/1999/xlink" x="0px" y="0px" viewBox="0 0 915.7 679.3"
	 style="enable-background:new 0 0 915.7 679.3;" xml:space="preserve">
<style type="text/css">
	.st0{fill:#F2218E;}
</style>
<g>
	<g>
		<g>
			<g>
				<g>
					<g>
						<path class="st0" d="M212.3,307.9c0.9,2.6-0.5,5.4-3.2,6.3c-0.4,0.1-1.1,0.3-2,0.3c0,0,0,0-0.1,0c-0.9,0-2.3-0.2-3.5-1
							c-1.2-0.7-2.2-1.9-2.9-3.2c-1.3-2.6-1.9-5.9-1.9-10.8c-0.1-1.7-0.4-2.9-1.1-3.9c-0.5-1-1.6-1.9-2.7-2.6
							c-1.9-1.3-4.2-2-5.1-2.2h-10.7v19.6c0,2.7-2.3,5-5.1,5c-2.8,0-5-2.3-5-5v-53.3c0-2.8,2.2-5,5-5c0,0,0,0,0.1,0h16.1
							c10.8,0,19.3,8.7,19.3,19.4c0,6-2.7,11.2-7,14.8c1.2,0.9,2.3,2,3.2,3.3c1.8,2.6,3,6,3,9.8c-0.1,2.7,0.2,4.4,0.4,5.3
							C210.6,305.3,211.8,306.4,212.3,307.9z M199.7,271.6c0-5.2-4.2-9.4-9.3-9.4h-11.1v18.6h11.1
							C195.5,280.8,199.7,276.6,199.7,271.6z"/>
					</g>
				</g>
			</g>
		</g>
		<g>
			<g>
				<g>
					<g>
						<path class="st0" d="M229.2,308.8c-3.9-4-6.2-9.6-6.2-15.9c0-6.1,2.3-11.5,6.2-15.8c4.1-4.2,9.3-6.9,15.5-6.9
							c6,0,11.4,2.6,15.1,6.9c4.1,4.3,6.3,9.7,6.3,15.8c0,6.3-2.3,11.9-6.3,15.9c-3.7,4.2-9.1,6.9-15.1,6.9
							C238.5,315.7,233.3,313.1,229.2,308.8z M232.8,292.9c0,3.9,1.2,7,3.2,9.6c2.3,2.2,5.2,3.3,8.7,3.3c3.2,0,6.1-1.2,8.3-3.3
							c2.3-2.5,3.5-5.7,3.5-9.6c0-3.7-1.3-6.9-3.5-9.4c-2.3-2-5.2-3.4-8.3-3.4c-3.4,0-6.4,1.4-8.7,3.4
							C234,286,232.8,289.2,232.8,292.9z"/>
					</g>
				</g>
			</g>
		</g>
		<g>
			<g>
				<g>
					<g>
						<path class="st0" d="M285.6,308.8c-3.9-4-6.2-9.6-6.2-15.9c0-6.1,2.3-11.5,6.2-15.8c4.1-4.2,9.3-6.9,15.5-6.9
							c6,0,11.4,2.6,15.1,6.9c4.1,4.3,6.3,9.7,6.3,15.8c0,6.3-2.3,11.9-6.3,15.9c-3.7,4.2-9.1,6.9-15.1,6.9
							C294.9,315.7,289.7,313.1,285.6,308.8z M289.2,292.9c0,3.9,1.2,7,3.2,9.6c2.3,2.2,5.2,3.3,8.7,3.3c3.2,0,6.1-1.2,8.3-3.3
							c2.3-2.5,3.5-5.7,3.5-9.6c0-3.7-1.3-6.9-3.5-9.4c-2.3-2-5.2-3.4-8.3-3.4c-3.4,0-6.4,1.4-8.7,3.4
							C290.4,286,289.2,289.2,289.2,292.9z"/>
					</g>
				</g>
			</g>
		</g>
		<g>
			<g>
				<g>
					<g>
						<path class="st0" d="M356.5,275.2c0,2.7-2.4,5-5.1,5h-2.3v25.2c2.8,0,5,2.3,5,5.1c0,2.8-2.2,5-5,5c-5.5,0-10-4.5-10-10v-25.2
							h-2.6c-2.8,0-5-2.3-5-5c0-2.8,2.2-5,5-5h2.6v-13.1c0-2.8,2.3-5,5.1-5c2.8,0,5,2.2,5,5v13.1h2.3
							C354.1,270.2,356.5,272.4,356.5,275.2z"/>
					</g>
				</g>
				<g>
					<g>
						<path class="st0" d="M371.6,308.5l22.1-52.7c1.1-2.5,4-3.7,6.6-2.6c2.4,1,3.6,4,2.5,6.4l-22.1,52.8c-0.8,1.9-2.7,3-4.6,3
							c-0.5,0-1.3-0.1-1.8-0.4C371.6,314,370.5,311.1,371.6,308.5z"/>
					</g>
				</g>
			</g>
		</g>
	</g>
	<g>
		<g>
			<g>
				<path class="st0" d="M193.6,439.5c-18.2,0-33.1-14.8-33.1-33.1c0-18.2,14.8-33.1,33.1-33.1c18.2,0,33.1,14.8,33.1,33.1
					C226.6,424.6,211.8,439.5,193.6,439.5z M193.6,390.9c-8.6,0-15.5,7-15.5,15.5c0,8.6,7,15.5,15.5,15.5c8.6,0,15.5-7,15.5-15.5
					C209.1,397.8,202.1,390.9,193.6,390.9z"/>
			</g>
		</g>
		<g>
			<g>
				<g>
					<path class="st0" d="M476.8,415.2H298.6c-4.9,0-8.8-3.9-8.8-8.8c0-4.9,3.9-8.8,8.8-8.8h178.2c4.9,0,8.8,3.9,8.8,8.8
						C485.5,411.2,481.6,415.2,476.8,415.2z"/>
				</g>
			</g>
			<g>
				<g>
					<path class="st0" d="M591.5,415.2h-68.3c-4.9,0-8.8-3.9-8.8-8.8c0-4.9,3.9-8.8,8.8-8.8h68.3c4.9,0,8.8,3.9,8.8,8.8
						C600.3,411.2,596.4,415.2,591.5,415.2z"/>
				</g>
			</g>
			<g>
				<g>
					<path class="st0" d="M763,415.2H645.4c-4.9,0-8.8-3.9-8.8-8.8c0-4.9,3.9-8.8,8.8-8.8H763c4.9,0,8.8,3.9,8.8,8.8
						C771.7,411.2,767.8,415.2,763,415.2z"/>
				</g>
			</g>
		</g>
	</g>
	<g>
		<g>
			<g>
				<path class="st0" d="M193.6,578.6c-18.2,0-33.1-14.8-33.1-33.1c0-18.2,14.8-33.1,33.1-33.1c18.2,0,33.1,14.8,33.1,33.1
					C226.6,563.7,211.8,578.6,193.6,578.6z M193.6,530c-8.6,0-15.5,7-15.5,15.5s7,15.5,15.5,15.5c8.6,0,15.5-7,15.5-15.5
					S202.1,530,193.6,530z"/>
			</g>
		</g>
		<g>
			<g>
				<g>
					<path class="st0" d="M404,554.3H294.8c-4.9,0-8.8-3.9-8.8-8.8c0-4.9,3.9-8.8,8.8-8.8H404c4.9,0,8.8,3.9,8.8,8.8
						C412.8,550.4,408.9,554.3,404,554.3z"/>
				</g>
			</g>
			<g>
				<g>
					<path class="st0" d="M656.8,554.3H450.6c-4.9,0-8.8-3.9-8.8-8.8c0-4.9,3.9-8.8,8.8-8.8h206.2c4.9,0,8.8,3.9,8.8,8.8
						C665.6,550.4,661.6,554.3,656.8,554.3z"/>
				</g>
			</g>
			<g>
				<g>
					<path class="st0" d="M759.2,554.3h-60.1c-4.9,0-8.8-3.9-8.8-8.8c0-4.9,3.9-8.8,8.8-8.8h60.1c4.9,0,8.8,3.9,8.8,8.8
						C768,550.4,764.1,554.3,759.2,554.3z"/>
				</g>
			</g>
		</g>
	</g>
	<g>
		<g>
			<g>
				<path class="st0" d="M835.1,186.7c-4.9,0-8.8-3.9-8.8-8.8v-114c0-7.8-6.4-14.2-14.2-14.2H115.8c-7.8,0-14.2,6.4-14.2,14.2v114
					c0,4.9-3.9,8.8-8.8,8.8c-4.9,0-8.8-3.9-8.8-8.8v-114c0-17.5,14.3-31.8,31.8-31.8h696.4c17.5,0,31.8,14.2,31.8,31.8v114
					C843.9,182.8,840,186.7,835.1,186.7z"/>
			</g>
		</g>
	</g>
	<g>
		<g>
			<g>
				<path class="st0" d="M812.2,652H115.8C98.2,652,84,637.8,84,620.2V177.9c0-4.9,3.9-8.8,8.8-8.8h742.4c4.9,0,8.8,3.9,8.8,8.8
					v442.3C843.9,637.8,829.7,652,812.2,652z M101.5,186.7v433.5c0,7.8,6.4,14.2,14.2,14.2h696.4c7.8,0,14.2-6.4,14.2-14.2V186.7
					H101.5z"/>
			</g>
		</g>
	</g>
	<g>
		<g>
			<g>
				<path class="st0" d="M178.8,89.8c0,7.5-6.1,13.6-13.6,13.6c-7.5,0-13.6-6.1-13.6-13.6c0-7.5,6.1-13.6,13.6-13.6
					C172.7,76.2,178.8,82.3,178.8,89.8z"/>
			</g>
		</g>
		<g>
			<g>
				<circle class="st0" cx="222.6" cy="89.8" r="13.6"/>
			</g>
		</g>
		<g>
			<g>
				<circle class="st0" cx="280.1" cy="89.8" r="13.6"/>
			</g>
		</g>
	</g>
</g>
</svg>
