<?xml version="1.0" encoding="utf-8"?>
<!-- Generator: Adobe Illustrator 25.2.3, SVG Export Plug-In . SVG Version: 6.00 Build 0)  -->
<svg version="1.1" id="f1410098-b6ef-424e-beee-8c1519bc1d1f"
	 xmlns="http://www.w3.org/2000/svg" xmlns:xlink="http://www.w3.org/1999/xlink" x="0px" y="0px" viewBox="0 0 915.7 679.3"
	 style="enable-background:new 0 0 915.7 679.3;" xml:space="preserve">
<style type="text/css">
	.st0{fill:none;stroke:#F2218E;stroke-width:10;stroke-miterlimit:10;}
	.st1{fill:#F2218E;}
	.st2{display:none;fill:#FFFFFF;}
	.st3{display:none;}
	.st4{display:inline;}
	.st5{fill:#FFFFFF;}
	.st6{display:inline;fill:none;stroke:#F2218E;stroke-width:10;stroke-miterlimit:10;}
	.st7{display:inline;fill:#F2218E;}
</style>
<g>
	<path class="st0" d="M784.1,458.6H163c-19.8,0-36.1,15.9-36.1,36.1v122.4c0,19.8,16.3,36.1,36.1,36.1h621.1
		c19.8,0,36.1-15.9,36.1-36.1V494.7C820.2,474.5,803.9,458.6,784.1,458.6z M192,543.7c-12.1,0-22.1-9.8-22.1-22.1
		c0-12.1,10-22.1,22.1-22.1c12.5,0,22.1,9.8,22.1,22.1C214.1,534.1,204.1,543.7,192,543.7z M725.3,607.6H568.6v-52.1h156.8V607.6
		L725.3,607.6z"/>
	<rect x="569.3" y="555.1" class="st1" width="152.6" height="49.5"/>
	<circle class="st1" cx="193.8" cy="520.5" r="19.3"/>
</g>
<path class="st1" d="M784.1,241.4H163c-19.8,0-36.1,15.9-36.1,36.1v122.4c0,19.8,16.3,36.1,36.1,36.1h621.1
	c19.8,0,36.1-15.9,36.1-36.1V277.5C820.2,257.3,803.9,241.4,784.1,241.4z M192,326.7c-12.1,0-22.1-9.8-22.1-22.1
	c0-12.1,10-22.1,22.1-22.1c12.5,0,22.1,10,22.1,22.1C214.1,316.7,204.1,326.7,192,326.7z M725.3,390.4H568.6v-52.1h156.8V390.4
	L725.3,390.4z"/>
<g>
	<path class="st0" d="M784.1,29.5H163c-19.8,0-36.1,15.9-36.1,36.1V188c0,19.8,16.3,36.1,36.1,36.1h621.1
		c19.8,0,36.1-15.9,36.1-36.1V65.6C820.2,45.4,803.9,29.5,784.1,29.5z M192,114.6c-12.1,0-22.1-9.8-22.1-22.1
		c0-12.1,10-22.1,22.1-22.1c12.5,0,22.1,9.8,22.1,22.1C214.1,105,204.1,114.6,192,114.6z M725.3,178.6H568.6v-52.1h156.8V178.6
		L725.3,178.6z"/>
	<rect x="569.3" y="126.1" class="st1" width="152.6" height="49.5"/>
	<circle class="st1" cx="193.8" cy="91.4" r="19.3"/>
</g>
<path class="st2" d="M711.8,30.5c-5.8-0.6-11.1-3.5-14.6-8.1c-32.3-43.6-84.1-70.7-139.3-70.7c-3.5,0-6.9,0.2-10.4,0.4
	c-4.8,0.4-9.4-1.2-13.3-4c-33.6-25.4-74.3-39-117-39c-76.3,0-144.1,44.2-175.8,111.2c-2.9,6.1-8.6,10.4-15.4,11.3
	C142,43.6,77.1,116,77.1,203.3c0,83.2,59,152.9,137.6,169.6v-51.5c0-6.3,1.2-12.5,3.1-18.3c-41.9-13.8-72.4-53.2-72.4-99.7
	c0-57.8,47.1-105.1,105.1-105.1c2.9,0,5.8,0.2,8.6,0.4c16.7,1.3,31.9-9.6,35.9-25.7c14-56.3,64.5-95.7,122.4-95.7
	c33,0,64.5,12.9,88.2,35.9c8.1,7.9,19.6,11.3,30.7,9c7.1-1.5,14.4-2.3,21.5-2.3c40.5,0,76.8,22.9,94.5,59.6
	c6.1,12.9,19.8,20.6,34.2,19.2c3.5-0.4,7.1-0.6,10.6-0.6c58,0,105.1,47.1,105.1,105.1c0,46.5-30.4,85.9-72.4,99.7
	c1.9,5.8,3.1,11.9,3.1,18.3v51.5c78.4-16.5,137.6-86.3,137.6-169.6C870.5,112.6,800.6,38,711.8,30.5z"/>
<g class="st3">
	<g class="st4">
		<g>
			<path class="st1" d="M-389.7,127.4h-541V-22.7h541V127.4z M-909.2,106h498.1V-1.2h-498.1V106z"/>
		</g>
		<g>
			<rect x="-897.1" y="42.6" class="st1" width="12.8" height="21.4"/>
		</g>
		<g>
			<rect x="-863.4" y="42.6" class="st1" width="12.8" height="21.4"/>
		</g>
		<g>
			<rect x="-829.7" y="42.6" class="st1" width="12.8" height="21.4"/>
		</g>
		<g>
			<rect x="-796.1" y="42.6" class="st1" width="12.8" height="21.4"/>
		</g>
		<g>
			<rect x="-753.2" y="42.6" class="st1" width="329.8" height="21.4"/>
		</g>
	</g>
	<g class="st4">
		<g>
			
				<rect x="-920" y="158.6" transform="matrix(-1 -1.224647e-16 1.224647e-16 -1 -1320.3679 445.8625)" class="st1" width="519.6" height="128.6"/>
		</g>
		<g>
			<g>
				<rect x="-436.1" y="213.9" class="st5" width="12.8" height="21.4"/>
			</g>
			<g>
				<rect x="-469.8" y="213.9" class="st5" width="12.8" height="21.4"/>
			</g>
			<g>
				<rect x="-503.5" y="213.9" class="st5" width="12.8" height="21.4"/>
			</g>
			<g>
				<rect x="-537.2" y="213.9" class="st5" width="12.8" height="21.4"/>
			</g>
			<g>
				<rect x="-897.1" y="213.9" class="st5" width="329.8" height="21.4"/>
			</g>
		</g>
	</g>
	<g class="st4">
		<g>
			
				<rect x="-920" y="499.7" transform="matrix(-1 -1.224647e-16 1.224647e-16 -1 -1320.3679 1128.0753)" class="st1" width="519.6" height="128.6"/>
		</g>
		<g>
			<g>
				<rect x="-436.1" y="554.7" class="st5" width="12.8" height="21.4"/>
			</g>
			<g>
				<rect x="-469.8" y="554.7" class="st5" width="12.8" height="21.4"/>
			</g>
			<g>
				<rect x="-503.5" y="554.7" class="st5" width="12.8" height="21.4"/>
			</g>
			<g>
				<rect x="-537.2" y="554.7" class="st5" width="12.8" height="21.4"/>
			</g>
			<g>
				<rect x="-897" y="554.6" class="st5" width="329.8" height="21.4"/>
			</g>
		</g>
	</g>
	<g class="st4">
		<g>
			<path class="st1" d="M-389.1,468.4h-541V318.3h541V468.4z M-908.7,446.9h498.1V339.8h-498.1V446.9z"/>
		</g>
		<g>
			<rect x="-896.6" y="383.6" class="st1" width="12.8" height="21.4"/>
		</g>
		<g>
			<rect x="-862.9" y="383.6" class="st1" width="12.8" height="21.4"/>
		</g>
		<g>
			<rect x="-829.2" y="383.6" class="st1" width="12.8" height="21.4"/>
		</g>
		<g>
			<rect x="-795.5" y="383.6" class="st1" width="12.8" height="21.4"/>
		</g>
		<g>
			<rect x="-752.7" y="383.5" class="st1" width="329.8" height="21.4"/>
		</g>
	</g>
</g>
<g class="st3">
	<path class="st6" d="M785.5,244.8H164.4c-19.8,0-36.1,15.9-36.1,36.1v122.4c0,19.8,16.3,36.1,36.1,36.1h621.1
		c19.8,0,36.1-15.9,36.1-36.1V280.9C821.6,260.8,805.3,244.8,785.5,244.8z M193.4,329.9c-12.1,0-22.1-9.8-22.1-22.1
		c0-12.1,10-22.1,22.1-22.1c12.5,0,22.1,9.8,22.1,22.1C215.5,320.3,205.5,329.9,193.4,329.9z M726.7,393.9H570v-52.1h156.8V393.9
		L726.7,393.9z"/>
	<rect x="570.7" y="341.4" class="st7" width="152.6" height="49.5"/>
	<circle class="st7" cx="195.2" cy="306.7" r="19.3"/>
</g>
</svg>
