<?xml version="1.0" encoding="utf-8"?>
<!-- Generator: Adobe Illustrator 25.2.3, SVG Export Plug-In . SVG Version: 6.00 Build 0)  -->
<svg version="1.1" id="f1410098-b6ef-424e-beee-8c1519bc1d1f"
	 xmlns="http://www.w3.org/2000/svg" xmlns:xlink="http://www.w3.org/1999/xlink" x="0px" y="0px" viewBox="0 0 915.7 679.3"
	 style="enable-background:new 0 0 915.7 679.3;" xml:space="preserve">
<style type="text/css">
	.st0{fill:#F2218E;}
	.st1{display:none;fill:#FFFFFF;}
</style>
<g>
	<g>
		<path class="st0" d="M783,647.3H116.4c-3.1,0-5.7-2.5-5.7-5.7c0-3.1,2.5-5.7,5.7-5.7H783c3.2,0,5.7,2.5,5.7,5.7
			C788.7,644.7,786.1,647.3,783,647.3z"/>
	</g>
	<g>
		<rect x="230.1" y="500.5" class="st1" width="133.8" height="141.1"/>
		<path class="st0" d="M364,647.3H230.1c-3.1,0-5.7-2.5-5.7-5.7V500.5c0-3.1,2.5-5.7,5.7-5.7H364c3.1,0,5.7,2.5,5.7,5.7v141.1
			C369.7,644.7,367.1,647.3,364,647.3z M235.8,635.9h122.4V506.2H235.8V635.9z"/>
	</g>
	<g>
		<polygon class="st1" points="364,417 230.1,417 218.7,500.5 375.4,500.5 		"/>
		<path class="st0" d="M375.4,506.2H218.7c-1.6,0-3.2-0.7-4.3-1.9c-1.1-1.2-1.6-2.9-1.3-4.5l11.4-83.5c0.4-2.8,2.8-4.9,5.6-4.9H364
			c2.8,0,5.3,2.1,5.6,4.9l11.4,83.5c0.2,1.6-0.3,3.3-1.3,4.5C378.6,505.5,377,506.2,375.4,506.2z M225.3,494.8h143.6l-9.8-72.1h-124
			L225.3,494.8z"/>
	</g>
	<g>
		<rect x="543.5" y="500.5" class="st1" width="133.8" height="141.1"/>
		<path class="st0" d="M677.3,647.3H543.5c-3.1,0-5.7-2.5-5.7-5.7V500.5c0-3.1,2.5-5.7,5.7-5.7h133.8c3.1,0,5.7,2.5,5.7,5.7v141.1
			C683,644.7,680.5,647.3,677.3,647.3z M549.2,635.9h122.4V506.2H549.2V635.9z"/>
	</g>
	<g>
		<polygon class="st1" points="677.3,417 543.5,417 532.1,500.5 688.7,500.5 		"/>
		<path class="st0" d="M688.7,506.2H532.1c-1.6,0-3.2-0.7-4.3-1.9c-1.1-1.2-1.6-2.9-1.3-4.5l11.4-83.5c0.4-2.8,2.8-4.9,5.6-4.9
			h133.8c2.8,0,5.3,2.1,5.6,4.9l11.4,83.5c0.2,1.6-0.3,3.3-1.3,4.5C691.9,505.5,690.4,506.2,688.7,506.2z M538.6,494.8h143.6
			l-9.8-72.1H548.5L538.6,494.8z"/>
	</g>
	<g>
		<path class="st1" d="M301.1,79.6c13.3-2,23.6-13.3,23.6-27.2c0-15.2-12.4-27.6-27.6-27.6s-27.6,12.4-27.6,27.6
			c0,13.9,10.2,25.2,23.5,27.2c-21.5,111-104.7,178.5-104.7,178.5L230.1,417H297h67l41.8-158.9C405.8,258.1,322.6,190.6,301.1,79.6z
			"/>
		<path class="st0" d="M364,422.7H230.1c-2.6,0-4.9-1.7-5.5-4.3l-41.8-158.9c-0.6-2.2,0.2-4.5,1.9-5.9
			c0.8-0.7,79.2-65.4,101.6-169.8C273,79.4,263.8,67,263.8,52.4c0-18.4,14.9-33.3,33.3-33.3s33.3,14.9,33.3,33.3
			c0,14.3-9.4,26.9-22.6,31.4C330.3,188.2,408.7,253,409.5,253.7c1.7,1.4,2.5,3.7,1.9,5.9l-41.8,158.9
			C368.8,421,366.6,422.7,364,422.7z M234.5,411.3h125l39.8-151.2c-14.8-12.9-80.8-74.8-102.3-171.9
			c-21.5,97.1-87.5,159-102.3,171.9L234.5,411.3z M297,30.5c-12.1,0-21.9,9.8-21.9,21.9c0,10.9,7.9,20,18.7,21.6
			c1.2,0.2,2.3,0.7,3.2,1.6c0.9-0.9,2-1.4,3.2-1.6c10.7-1.6,18.7-10.8,18.7-21.6C319,40.3,309.1,30.5,297,30.5z"/>
	</g>
	<g>
		<path class="st0" d="M297,422.7c-3.1,0-5.7-2.5-5.7-5.7V249.8c0-3.1,2.6-5.7,5.7-5.7s5.7,2.5,5.7,5.7V417
			C302.7,420.2,300.2,422.7,297,422.7z"/>
	</g>
	<g>
		<path class="st0" d="M662.4,422.7H557.6c-1.6,0-3.1-0.6-4.1-1.8c-20.6-21.9-40.3-65.6-43.9-97.4c-7.4-65.4,28.6-113,63.3-159.1
			l8.2-10.9c3.3-4.5,6.8-9,10.4-13.6c19.9-25.7,40.4-52.4,42.3-80.1c0.2-2.7,2.3-5,5-5.3c2-0.3,4,0.6,5.2,2.3
			c76,71.1,84.3,202.9,48.3,289.7c-8.8,21.1-19.7,47.4-24.3,71.6C667.5,420.8,665.1,422.7,662.4,422.7z M560.1,411.3h97.7
			c5.2-23.9,15.6-48.9,24-69.2c33.4-80.3,27.4-200.7-38.4-269.8c-5.9,26.5-24.7,50.9-42.9,74.6c-3.5,4.5-7,9-10.3,13.4l-8.2,11
			c-34.9,46.3-67.9,90.1-61.1,150.9C524,350.6,541.8,390.7,560.1,411.3z"/>
	</g>
	<g>
		<path class="st0" d="M630.1,422.7c-0.4,0-0.7,0-1.1-0.1c-3.1-0.6-5.1-3.6-4.5-6.7c3.9-19.4,10.6-38.2,17.1-56.4
			c3.8-10.5,7.6-21.3,10.9-32.1c8.9-29.5,17.5-62.3,15.6-109.2c-0.1-3.1,2.3-5.8,5.5-5.9c3.6-0.2,5.8,2.3,5.9,5.5
			c1.9,48.6-6.9,82.5-16.1,112.9c-3.3,11-7.2,22-11.1,32.6c-6.4,17.8-13,36.2-16.6,54.7C635.2,420.8,632.8,422.7,630.1,422.7z"/>
	</g>
</g>
</svg>
