<?xml version="1.0" encoding="utf-8"?>
<!-- Generator: Adobe Illustrator 25.2.3, SVG Export Plug-In . SVG Version: 6.00 Build 0)  -->
<svg version="1.1" id="f1410098-b6ef-424e-beee-8c1519bc1d1f"
	 xmlns="http://www.w3.org/2000/svg" xmlns:xlink="http://www.w3.org/1999/xlink" x="0px" y="0px" viewBox="0 0 915.7 679.3"
	 style="enable-background:new 0 0 915.7 679.3;" xml:space="preserve">
<style type="text/css">
	.st0{fill:#71BCED;}
	.st1{fill:#121549;}
	.st2{fill:none;stroke:#121549;stroke-width:5;stroke-miterlimit:10;}
	.st3{fill:#FFFFFF;}
	.st4{display:none;fill:#FFFFFF;}
</style>
<g>
	<rect x="29.9" y="98.2" class="st0" width="885.1" height="580.8"/>
	<rect x="210.9" y="208.2" class="st1" width="704.1" height="264.4"/>
	<rect x="4" y="4" class="st2" width="591.5" height="548"/>
</g>
<g>
	<g>
		<g>
			<g>
				<path class="st3" d="M707.2,329.2h5.4v26.7h12.1v4.8h-17.6L707.2,329.2L707.2,329.2z"/>
				<path class="st3" d="M734.8,351.8l-2.5,8.9h-5.6l9.5-31.5h6.9l9.6,31.5h-5.8l-2.7-8.9H734.8z M743.2,347.5l-2.4-7.8
					c-0.6-2-1-4.1-1.5-5.9h-0.1c-0.5,1.8-0.9,4.1-1.4,5.9l-2.3,7.8H743.2z"/>
				<path class="st3" d="M763.4,360.7v-13.1l-9.4-18.4h6.2l3.5,8.1c1,2.3,1.8,4.1,2.6,6.2h0.1c0.7-2,1.6-3.9,2.6-6.3l3.5-8.1h6.1
					l-9.8,18.2v13.3L763.4,360.7L763.4,360.7z"/>
				<path class="st3" d="M787.8,351.8l-2.5,8.9h-5.6l9.5-31.5h6.9l9.6,31.5h-5.8l-2.7-8.9H787.8z M796.3,347.5l-2.4-7.8
					c-0.6-2-1-4.1-1.5-5.9h-0.1c-0.5,1.8-0.9,4.1-1.4,5.9l-2.3,7.8H796.3z"/>
				<path class="st3" d="M835.9,344.7c0,10.5-6,16.6-14.2,16.6c-8.3,0-13.6-6.8-13.6-16.1c0-9.7,5.7-16.5,14.1-16.5
					C830.9,328.7,835.9,335.6,835.9,344.7z M813.9,345.1c0,6.4,3,11.5,8.2,11.5s8.1-5.2,8.1-11.8c0-6-2.8-11.5-8.1-11.5
					S813.9,338.6,813.9,345.1z"/>
				<path class="st3" d="M846,329.2v18.3c0,6.2,2.4,9,6,9c3.9,0,6.2-2.8,6.2-9v-18.3h5.4v18c0,9.7-4.7,14-11.8,14
					c-6.8,0-11.3-4.1-11.3-14v-18H846z"/>
				<path class="st3" d="M875.5,334H867v-4.8h22.3v4.8h-8.5v26.7h-5.4V334H875.5z"/>
			</g>
		</g>
		<g>
			<g>
				<path class="st3" d="M610.4,382.2c2.4-0.4,5.4-0.7,8.6-0.7c5.6,0,9.3,1.2,12.1,3.7c2.9,2.5,4.7,6.2,4.7,11.6
					c0,5.6-1.8,9.8-4.6,12.5c-2.9,2.8-7.6,4.3-13.4,4.3c-3.1,0-5.5-0.2-7.3-0.4L610.4,382.2L610.4,382.2z M615.8,408.9
					c0.8,0.1,1.9,0.1,3,0.1c7,0.1,11.1-4.1,11.1-12.1c0-6.9-3.7-10.9-10.5-10.9c-1.7,0-2.9,0.1-3.7,0.3v22.6H615.8z"/>
				<path class="st3" d="M656.9,399.3h-11.1v9.2h12.4v4.7h-17.8v-31.5h17.2v4.7h-11.8v8.1h11.1L656.9,399.3L656.9,399.3z"/>
				<path class="st3" d="M662.8,407c1.8,1,4.4,2,7.1,2c3.5,0,5.4-1.7,5.4-4.3c0-2.4-1.5-3.8-5.2-5.2c-4.8-1.8-8-4.7-8-9.2
					c0-5.2,4.1-9,10.4-9c3.2,0,5.6,0.7,7.1,1.6l-1.3,4.7c-1-0.6-3.1-1.5-5.9-1.5c-3.4,0-4.8,2-4.8,3.8c0,2.4,1.7,3.5,5.6,5.2
					c5.1,2.1,7.6,4.8,7.6,9.4c0,5-3.6,9.4-11.2,9.4c-3.1,0-6.4-0.9-8-2L662.8,407z"/>
				<path class="st3" d="M691.1,381.8v31.5h-5.4v-31.5H691.1z"/>
				<path class="st3" d="M720.9,411.9c-1.9,0.7-5.6,1.8-9.5,1.8c-5,0-8.8-1.3-11.6-4.2c-2.6-2.7-4.1-6.8-4.1-11.6
					c0-10,6.7-16.4,16.4-16.4c3.6,0,6.5,0.8,7.9,1.5l-1.2,4.7c-1.6-0.8-3.6-1.3-6.7-1.3c-6.3,0-10.7,4-10.7,11.3
					c0,7.1,4.1,11.4,10.2,11.4c2,0,3.4-0.3,4.1-0.7v-7.9h-5.2V396h10.4L720.9,411.9L720.9,411.9z"/>
				<path class="st3" d="M726.4,413.3v-31.5h6.2l7.6,13.5c2,3.5,3.7,7.1,5,10.5h0.1c-0.4-4.2-0.5-8.3-0.5-13v-11h5v31.5h-5.6
					l-7.7-13.9c-1.9-3.5-3.9-7.3-5.3-10.9h-0.1c0.2,4.1,0.3,8.3,0.3,13.4v11.3L726.4,413.3L726.4,413.3z"/>
				<path class="st3" d="M765,407c1.8,1,4.4,2,7.1,2c3.5,0,5.4-1.7,5.4-4.3c0-2.4-1.5-3.8-5.2-5.2c-4.8-1.8-8-4.7-8-9.2
					c0-5.2,4.1-9,10.4-9c3.2,0,5.6,0.7,7.1,1.6l-1.3,4.7c-1-0.6-3.1-1.5-5.9-1.5c-3.4,0-4.8,2-4.8,3.8c0,2.4,1.7,3.5,5.6,5.2
					c5.1,2.1,7.6,4.8,7.6,9.4c0,5-3.6,9.4-11.2,9.4c-3.1,0-6.4-0.9-8-2L765,407z"/>
				<path class="st3" d="M794.5,413.3v-13.1l-9.4-18.4h6.2l3.5,8.1c1,2.3,1.8,4.1,2.6,6.2h0.1c0.7-2,1.6-3.9,2.6-6.3l3.5-8.1h6.1
					l-9.8,18.2v13.3L794.5,413.3L794.5,413.3z"/>
				<path class="st3" d="M818.6,386.6h-8.5v-4.8h22.3v4.8H824v26.7h-5.4V386.6L818.6,386.6z"/>
				<path class="st3" d="M852.5,399.3h-11.1v9.2h12.4v4.7H836v-31.5h17.2v4.7h-11.8v8.1h11.1V399.3z"/>
				<path class="st3" d="M883.5,400.4c-0.2-4.1-0.4-9-0.3-13.2h-0.1c-1,3.9-2.2,8.1-3.5,12.1l-4.3,13.6h-4.1l-3.9-13.4
					c-1.2-4.1-2.2-8.3-3-12.3h-0.1c-0.1,4.1-0.3,9.2-0.5,13.4l-0.7,12.6h-5l2-31.5h7.1l3.9,12.6c1,3.7,2,7.5,2.7,11h0.1
					c0.8-3.5,1.8-7.3,2.9-11l4.1-12.6h7l1.7,31.5h-5.2L883.5,400.4z"/>
			</g>
		</g>
		<g>
			<g>
				<path class="st3" d="M640.5,311.1c-1.2,0.7-4.1,1.4-7.7,1.4c-9.4,0-15.1-6.3-15.1-15.9c0-10.4,6.7-16.6,15.8-16.6
					c3.5,0,6,0.8,7.1,1.4l-1.2,4.6c-1.4-0.7-3.3-1.2-5.8-1.2c-6,0-10.4,4-10.4,11.6c0,6.9,3.8,11.3,10.3,11.3c2.2,0,4.5-0.5,5.9-1.1
					L640.5,311.1z"/>
				<path class="st3" d="M671.3,296c0,10.5-6,16.6-14.2,16.6c-8.3,0-13.6-6.8-13.6-16.1c0-9.7,5.7-16.5,14.1-16.5
					C666.2,280.1,671.3,287,671.3,296z M649.3,296.4c0,6.4,3,11.5,8.2,11.5s8.1-5.2,8.1-11.8c0-6-2.8-11.5-8.1-11.5
					C652.1,284.6,649.3,289.9,649.3,296.4z"/>
				<path class="st3" d="M700.8,299.2c-0.2-4.1-0.4-9-0.3-13.2h-0.1c-1,3.9-2.2,8.1-3.5,12.1l-4.3,13.6h-4.1l-3.9-13.4
					c-1.2-4.1-2.2-8.3-3-12.3h-0.1c-0.1,4.1-0.3,9.2-0.5,13.4l-0.7,12.6h-5l2-31.5h7.1l3.9,12.6c1,3.7,2,7.5,2.7,11h0.1
					c0.8-3.5,1.8-7.3,2.9-11l4.1-12.6h7l1.7,31.5h-5.2L700.8,299.2z"/>
				<path class="st3" d="M712.2,281c2-0.3,4.7-0.7,8.3-0.7c3.9,0,6.8,0.9,8.7,2.6c1.8,1.5,2.9,4,2.9,6.9c0,3-0.9,5.4-2.5,7.1
					c-2.2,2.3-5.5,3.4-9.3,3.4c-1,0-1.9-0.1-2.6-0.2V312h-5.4L712.2,281L712.2,281z M717.5,295.6c0.7,0.2,1.6,0.3,2.6,0.3
					c4.1,0,6.5-2.2,6.5-5.8c0-3.5-2.3-5.4-6-5.4c-1.5,0-2.6,0.1-3.1,0.3V295.6L717.5,295.6z"/>
				<path class="st3" d="M762.9,296c0,10.5-6,16.6-14.2,16.6c-8.3,0-13.6-6.8-13.6-16.1c0-9.7,5.7-16.5,14.1-16.5
					C757.8,280.1,762.9,287,762.9,296z M740.8,296.4c0,6.4,3,11.5,8.2,11.5s8.1-5.2,8.1-11.8c0-6-2.8-11.5-8.1-11.5
					S740.8,289.9,740.8,296.4z"/>
				<path class="st3" d="M767.5,312.1v-31.5h6.2l7.6,13.5c2,3.5,3.7,7.1,5,10.5h0.1c-0.4-4.2-0.5-8.3-0.5-13v-11h5v31.5h-5.6
					l-7.7-13.9c-1.9-3.5-3.9-7.3-5.3-10.9h-0.1c0.2,4.1,0.3,8.3,0.3,13.4V312L767.5,312.1L767.5,312.1z"/>
				<path class="st3" d="M813.6,298.1h-11.1v9.2h12.4v4.7h-17.8v-31.5h17.2v4.7h-11.8v8.1h11.1L813.6,298.1L813.6,298.1z"/>
				<path class="st3" d="M819.6,312.1v-31.5h6.2l7.6,13.5c2,3.5,3.7,7.1,5,10.5h0.1c-0.4-4.2-0.5-8.3-0.5-13v-11h5v31.5h-5.6
					l-7.7-13.9c-1.9-3.5-3.9-7.3-5.3-10.9h-0.1c0.2,4.1,0.3,8.3,0.3,13.4V312L819.6,312.1L819.6,312.1z"/>
				<path class="st3" d="M854.9,285.4h-8.5v-4.8h22.3v4.8h-8.5V312h-5.4L854.9,285.4L854.9,285.4z"/>
				<path class="st3" d="M872.2,305.8c1.8,1,4.4,2,7.1,2c3.5,0,5.4-1.7,5.4-4.3c0-2.4-1.5-3.8-5.2-5.2c-4.8-1.8-8-4.7-8-9.2
					c0-5.2,4.1-9,10.4-9c3.2,0,5.6,0.7,7.1,1.6l-1.3,4.7c-1-0.6-3.1-1.5-5.9-1.5c-3.4,0-4.8,2-4.8,3.8c0,2.4,1.7,3.5,5.6,5.2
					c5.1,2.1,7.6,4.8,7.6,9.4c0,5-3.6,9.4-11.2,9.4c-3.1,0-6.4-0.9-8-2L872.2,305.8z"/>
			</g>
		</g>
	</g>
	<g>
		
			<rect x="350.8" y="190.9" transform="matrix(0.6916 -0.7223 0.7223 0.6916 -48.4448 362.8629)" class="st4" width="99.7" height="94.5"/>
		<path class="st3" d="M403.7,166.5l68.3,65.4c1.6,1.5,1.7,4.1,0.1,5.7l-68.9,72c-1.5,1.6-4.1,1.7-5.7,0.1l-68.3-65.4
			c-1.6-1.5-1.7-4.1-0.1-5.7l68.9-72C399.6,165,402.1,165,403.7,166.5z M463.5,234.9L401,175.1l-63.4,66.2l62.5,59.8L463.5,234.9z"
			/>
	</g>
	<g>
		<polygon class="st4" points="291.2,284 359.5,349.4 406.1,312.4 326.2,235.9 		"/>
		<path class="st3" d="M329,232.9l79.9,76.5c0.8,0.8,1.3,1.9,1.2,3.1c-0.1,1.2-0.6,2.2-1.5,3l-46.6,37c-1.6,1.3-3.8,1.2-5.3-0.2
			l-68.3-65.4c-1.5-1.4-1.7-3.6-0.5-5.3l35-48.1c0.7-0.9,1.7-1.5,2.9-1.6C327,231.7,328.1,232.1,329,232.9z M400,312.1L326.8,242
			l-30.2,41.6l63.2,60.5L400,312.1z"/>
	</g>
	<g>
		<path class="st4" d="M158.5,486.9c-7.7-5.5-18.5-4.7-25.3,2.4c-7.4,7.8-7.2,20.1,0.6,27.6c7.8,7.4,20.1,7.2,27.6-0.6
			c6.8-7.1,7.1-17.9,1.3-25.4c65.2-46.1,140.6-39.9,140.6-39.9l56.3-101.5l-34.1-32.7l-34.1-32.7l-99.1,60.5
			C192.3,344.6,201.7,419.7,158.5,486.9z"/>
		<path class="st3" d="M294,281.1l68.3,65.4c1.3,1.3,1.6,3.3,0.7,4.9l-56.3,101.5c-0.8,1.4-2.3,2.2-3.8,2.1
			c-0.7-0.1-72.4-5.3-134.8,37c4.6,8.8,3.3,19.6-3.9,27.1c-9,9.4-23.9,9.7-33.2,0.7c-9.4-9-9.7-23.9-0.7-33.3c7-7.3,17.9-9.1,26.9-5
			c39.5-64.2,31.2-135.6,31.1-136.3c-0.2-1.6,0.5-3.1,1.9-3.9l98.9-60.6C290.7,279.6,292.7,279.8,294,281.1z M354.5,350.1L290.7,289
			l-94.1,57.7c1.3,13.8,4.7,77.6-31.7,137.7c58.4-39,122.3-38.4,136.2-37.7L354.5,350.1z M136.6,513.9c6.2,5.9,16,5.7,21.9-0.5
			c5.3-5.6,5.8-14,1-20.1c-0.5-0.7-0.8-1.5-0.9-2.4c-0.9,0-1.7-0.2-2.4-0.7c-6.2-4.4-14.9-3.6-20.1,1.9
			C130.2,498.2,130.4,508,136.6,513.9z"/>
	</g>
	<g>
		<path class="st3" d="M328.2,313.8c1.6,1.5,1.7,4.1,0.1,5.7l-81.7,85.3c-1.5,1.6-4.1,1.7-5.7,0.1c-1.6-1.5-1.7-4.1-0.1-5.7
			l81.7-85.3C324,312.3,326.6,312.3,328.2,313.8z"/>
	</g>
</g>
</svg>
