<?xml version="1.0" encoding="utf-8"?>
<!-- Generator: Adobe Illustrator 25.2.3, SVG Export Plug-In . SVG Version: 6.00 Build 0)  -->
<svg version="1.1" id="f1410098-b6ef-424e-beee-8c1519bc1d1f"
	 xmlns="http://www.w3.org/2000/svg" xmlns:xlink="http://www.w3.org/1999/xlink" x="0px" y="0px" viewBox="0 0 915.7 679.3"
	 style="enable-background:new 0 0 915.7 679.3;" xml:space="preserve">
<style type="text/css">
	.st0{fill:#71BCED;}
	.st1{fill:#121549;}
	.st2{fill:none;stroke:#121549;stroke-width:5;stroke-miterlimit:10;}
	.st3{fill:none;stroke:#FFFFFF;stroke-width:5;stroke-miterlimit:10;}
	.st4{display:none;fill:#FFFFFF;}
	.st5{fill:#FFFFFF;}
</style>
<g>
	<rect x="29.9" y="98.2" class="st0" width="885.1" height="580.8"/>
	<rect x="209.9" y="208.2" class="st1" width="704.1" height="264.4"/>
	<rect x="4" y="4" class="st2" width="591.5" height="548"/>
</g>
<g>
	<g>
		<path class="st3" d="M467.2,166.9H143.9c-10.3,0-18.8,8.3-18.8,18.8v63.7c0,10.3,8.5,18.8,18.8,18.8h323.3
			c10.3,0,18.8-8.3,18.8-18.8v-63.7C486,175.4,477.5,166.9,467.2,166.9z M159,211.4c-6.3,0-11.5-5.2-11.5-11.5s5.2-11.5,11.5-11.5
			c6.5,0,11.5,5.2,11.5,11.5S165.3,211.4,159,211.4z M436.6,244.7H355v-27.1h81.6V244.7L436.6,244.7z"/>
		<path class="st3" d="M467.2,278.5H143.9c-10.3,0-18.8,8.3-18.8,18.8V361c0,10.3,8.5,18.8,18.8,18.8h323.3
			c10.3,0,18.8-8.3,18.8-18.8v-63.7C486,286.8,477.5,278.5,467.2,278.5z M159,322.9c-6.3,0-11.5-5.1-11.5-11.5
			c0-6.3,5.2-11.5,11.5-11.5c6.5,0,11.5,5.2,11.5,11.5S165.3,322.9,159,322.9z M436.6,356.1H355V329h81.6V356.1L436.6,356.1z"/>
		<path class="st3" d="M467.2,390H143.9c-10.3,0-18.8,8.3-18.8,18.8v63.7c0,10.3,8.5,18.8,18.8,18.8h323.3
			c10.3,0,18.8-8.3,18.8-18.8v-63.7C486,398.3,477.5,390,467.2,390z M159,434.3c-6.3,0-11.5-5.1-11.5-11.5c0-6.3,5.2-11.5,11.5-11.5
			c6.5,0,11.5,5.1,11.5,11.5C170.5,429.3,165.3,434.3,159,434.3z M436.6,467.6H355v-27.1h81.6V467.6L436.6,467.6z"/>
		<path class="st4" d="M430.2,167.2c-3-0.3-5.8-1.8-7.6-4.2c-16.8-22.7-43.8-36.8-72.5-36.8c-1.8,0-3.6,0.1-5.4,0.2
			c-2.5,0.2-4.9-0.6-6.9-2.1c-17.5-13.2-38.7-20.3-60.9-20.3c-39.7,0-75,23-91.5,57.9c-1.5,3.2-4.5,5.4-8,5.9
			c-43.8,6.2-77.6,43.9-77.6,89.3c0,43.3,30.7,79.6,71.6,88.3v-26.8c0-3.3,0.6-6.5,1.6-9.5c-21.8-7.2-37.7-27.7-37.7-51.9
			c0-30.1,24.5-54.7,54.7-54.7c1.5,0,3,0.1,4.5,0.2c8.7,0.7,16.6-5,18.7-13.4c7.3-29.3,33.6-49.8,63.7-49.8
			c17.2,0,33.6,6.7,45.9,18.7c4.2,4.1,10.2,5.9,16,4.7c3.7-0.8,7.5-1.2,11.2-1.2c21.1,0,40,11.9,49.2,31c3.2,6.7,10.3,10.7,17.8,10
			c1.8-0.2,3.7-0.3,5.5-0.3c30.2,0,54.7,24.5,54.7,54.7c0,24.2-15.8,44.7-37.7,51.9c1,3,1.6,6.2,1.6,9.5v26.8
			c40.8-8.6,71.6-44.9,71.6-88.3C512.8,209.9,476.4,171.1,430.2,167.2z"/>
	</g>
</g>
<g>
	<g>
		<path class="st5" d="M637.4,297.9c-1,0.5-3.1,1-5.7,1c-7,0-11.3-4.4-11.3-11.1c0-7.3,5.1-11.7,11.8-11.7c2.7,0,4.5,0.5,5.4,1
			l-0.9,3.2c-1-0.5-2.5-0.9-4.3-0.9c-4.5,0-7.8,2.8-7.8,8.1c0,4.9,2.8,8,7.7,8c1.6,0,3.3-0.3,4.4-0.8L637.4,297.9z"/>
		<path class="st5" d="M640.8,276.7c1.5-0.3,3.5-0.5,6.2-0.5c3,0,5.1,0.6,6.5,1.8c1.3,1.1,2.2,2.8,2.2,4.9s-0.7,3.8-1.9,5
			c-1.6,1.6-4.1,2.4-7,2.4c-0.8,0-1.4,0-2-0.2v8.3h-4V276.7z M644.8,287c0.5,0.1,1.2,0.2,2,0.2c3,0,4.9-1.5,4.9-4.1
			c0-2.4-1.7-3.7-4.5-3.7c-1.1,0-1.9,0.1-2.3,0.2v7.4H644.8z"/>
		<path class="st5" d="M663.6,292.3l-1.9,6.3h-4.2l7.1-22.1h5.1l7.2,22.1h-4.3l-2-6.3H663.6z M670,289.2l-1.7-5.5
			c-0.4-1.4-0.8-2.9-1.1-4.2H667c-0.3,1.3-0.7,2.8-1.1,4.1l-1.7,5.5h5.8V289.2z"/>
		<path class="st5" d="M680,298.5v-22.1h4.6l5.7,9.5c1.5,2.4,2.7,5,3.8,7.4h0.1c-0.3-2.9-0.4-5.8-0.4-9.2v-7.7h3.7v22.1h-4.2
			l-5.8-9.7c-1.4-2.4-2.9-5.1-4-7.6h-0.1c0.2,2.9,0.2,5.8,0.2,9.4v7.9L680,298.5L680,298.5z"/>
		<path class="st5" d="M714.6,288.7h-8.3v6.5h9.3v3.3h-13.4v-22.1h12.9v3.3h-8.8v5.7h8.3V288.7z"/>
		<path class="st5" d="M719.1,276.4h4v18.7h9.1v3.4h-13.1V276.4z"/>
		<path class="st5" d="M621.5,316.1c1.3-0.3,3.6-0.5,5.9-0.5c3,0,4.8,0.4,6.3,1.4c1.4,0.8,2.3,2.3,2.3,4.2c0,2-1.3,3.9-3.7,4.8v0.1
			c2.3,0.6,4.5,2.4,4.5,5.5c0,2-0.8,3.5-2.1,4.6c-1.6,1.4-4.2,2-8.2,2c-2.2,0-3.9-0.2-5-0.3V316.1z M625.5,324.9h2.1
			c2.8,0,4.4-1.3,4.4-3.2c0-2.1-1.6-3-4.1-3c-1.2,0-1.9,0.1-2.3,0.2v6H625.5z M625.5,335c0.5,0.1,1.2,0.1,2.1,0.1
			c2.6,0,4.9-1,4.9-3.7c0-2.6-2.3-3.6-5-3.6h-2V335z"/>
		<path class="st5" d="M644.9,331.7L643,338h-4.2l7.1-22.1h5.1l7.2,22.1h-4.3l-2-6.3H644.9z M651.2,328.6l-1.7-5.5
			c-0.4-1.4-0.8-2.9-1.1-4.2h-0.1c-0.3,1.3-0.7,2.8-1.1,4.1l-1.7,5.5h5.7L651.2,328.6L651.2,328.6z"/>
		<path class="st5" d="M677.2,337.3c-1,0.5-3.1,1-5.7,1c-7,0-11.3-4.4-11.3-11.1c0-7.3,5.1-11.7,11.8-11.7c2.7,0,4.5,0.5,5.4,1
			l-0.9,3.2c-1-0.5-2.5-0.9-4.3-0.9c-4.5,0-7.8,2.8-7.8,8.1c0,4.9,2.8,8,7.7,8c1.6,0,3.3-0.3,4.4-0.8L677.2,337.3z"/>
		<path class="st5" d="M680.6,315.8h4V326h0.1c0.5-0.8,1.1-1.6,1.6-2.4l5.8-7.8h5l-7.6,9.4l8.1,12.7h-4.7l-6.3-10.1l-2,2.4v7.8h-4
			L680.6,315.8L680.6,315.8z"/>
		<path class="st5" d="M703.7,315.8v12.9c0,4.3,1.8,6.3,4.5,6.3c2.9,0,4.7-2,4.7-6.3v-12.9h4v12.6c0,6.8-3.5,9.8-8.8,9.8
			c-5.1,0-8.4-2.9-8.4-9.8v-12.7h4V315.8z"/>
		<path class="st5" d="M721.6,316.1c1.5-0.3,3.5-0.5,6.2-0.5c3,0,5.1,0.6,6.5,1.8c1.3,1.1,2.2,2.8,2.2,4.9s-0.7,3.8-1.9,5
			c-1.6,1.6-4.1,2.4-7,2.4c-0.8,0-1.4,0-2-0.2v8.3h-4V316.1z M725.6,326.4c0.5,0.1,1.2,0.2,2,0.2c3,0,4.9-1.5,4.9-4.1
			c0-2.4-1.7-3.7-4.5-3.7c-1.1,0-1.9,0.1-2.3,0.2v7.4H725.6z"/>
		<path class="st5" d="M739.8,333.5c1.3,0.8,3.3,1.4,5.3,1.4c2.6,0,4-1.2,4-3c0-1.7-1.1-2.7-3.9-3.7c-3.7-1.3-6-3.3-6-6.4
			c0-3.6,3-6.4,7.8-6.4c2.4,0,4.2,0.5,5.3,1.1l-1,3.3c-0.8-0.4-2.3-1.1-4.4-1.1c-2.6,0-3.7,1.4-3.7,2.7c0,1.7,1.3,2.5,4.2,3.6
			c3.8,1.5,5.7,3.4,5.7,6.6c0,3.6-2.7,6.6-8.4,6.6c-2.3,0-4.8-0.7-6-1.4L739.8,333.5z"/>
		<path class="st5" d="M621.5,355.2h12.8v3.3h-8.8v6.1h8.1v3.3h-8.1v9.4h-4V355.2z"/>
		<path class="st5" d="M642.7,371.1l-1.9,6.3h-4.2l7.1-22.1h5.1l7.2,22.1h-4.3l-2-6.3H642.7z M649,368l-1.7-5.5
			c-0.4-1.4-0.8-2.9-1.1-4.2h-0.1c-0.3,1.3-0.7,2.8-1.1,4.1l-1.7,5.5h5.7L649,368L649,368z"/>
		<path class="st5" d="M659,372.9c1.3,0.8,3.3,1.4,5.3,1.4c2.6,0,4-1.2,4-3c0-1.7-1.1-2.7-3.9-3.7c-3.7-1.3-6-3.3-6-6.4
			c0-3.6,3-6.4,7.8-6.4c2.4,0,4.2,0.5,5.3,1.1l-1,3.3c-0.8-0.4-2.3-1-4.4-1c-2.6,0-3.7,1.4-3.7,2.7c0,1.7,1.3,2.5,4.2,3.6
			c3.8,1.5,5.7,3.4,5.7,6.6c0,3.6-2.7,6.6-8.4,6.6c-2.3,0-4.8-0.7-6-1.4L659,372.9z"/>
		<path class="st5" d="M680.4,358.6h-6.3v-3.4h16.7v3.4h-6.4v18.7h-4V358.6z"/>
		<path class="st5" d="M700.1,372.9c1.3,0.8,3.3,1.4,5.3,1.4c2.6,0,4-1.2,4-3c0-1.7-1.1-2.7-3.9-3.7c-3.7-1.3-6-3.3-6-6.4
			c0-3.6,3-6.4,7.8-6.4c2.4,0,4.2,0.5,5.3,1.1l-1,3.3c-0.8-0.4-2.3-1-4.4-1c-2.6,0-3.7,1.4-3.7,2.7c0,1.7,1.3,2.5,4.2,3.6
			c3.8,1.5,5.7,3.4,5.7,6.6c0,3.6-2.7,6.6-8.4,6.6c-2.3,0-4.8-0.7-6-1.4L700.1,372.9z"/>
		<path class="st5" d="M717.1,372.9c1.3,0.8,3.3,1.4,5.3,1.4c2.6,0,4-1.2,4-3c0-1.7-1.1-2.7-3.9-3.7c-3.7-1.3-6-3.3-6-6.4
			c0-3.6,3-6.4,7.8-6.4c2.4,0,4.2,0.5,5.3,1.1l-1,3.3c-0.8-0.4-2.3-1-4.4-1c-2.6,0-3.7,1.4-3.7,2.7c0,1.7,1.3,2.5,4.2,3.6
			c3.8,1.5,5.7,3.4,5.7,6.6c0,3.6-2.7,6.6-8.4,6.6c-2.3,0-4.8-0.7-6-1.4L717.1,372.9z"/>
		<path class="st5" d="M734.2,355.5c1.8-0.3,4.1-0.5,6.4-0.5c4.2,0,7,0.9,9,2.6c2.2,1.8,3.5,4.4,3.5,8.1c0,4-1.4,6.9-3.4,8.8
			c-2.2,2-5.7,3-10,3c-2.4,0-4.1-0.1-5.5-0.3V355.5z M738.3,374.2c0.6,0.1,1.4,0.1,2.3,0.1c5.2,0,8.4-2.9,8.4-8.5
			c0-4.9-2.8-7.7-7.9-7.7c-1.3,0-2.2,0.1-2.8,0.2V374.2z"/>
		<path class="st5" d="M763.4,372.9c1.3,0.8,3.3,1.4,5.3,1.4c2.6,0,4-1.2,4-3c0-1.7-1.1-2.7-3.9-3.7c-3.7-1.3-6-3.3-6-6.4
			c0-3.6,3-6.4,7.8-6.4c2.4,0,4.2,0.5,5.3,1.1l-1,3.3c-0.8-0.4-2.3-1-4.4-1c-2.6,0-3.7,1.4-3.7,2.7c0,1.7,1.3,2.5,4.2,3.6
			c3.8,1.5,5.7,3.4,5.7,6.6c0,3.6-2.7,6.6-8.4,6.6c-2.3,0-4.8-0.7-6-1.4L763.4,372.9z"/>
		<path class="st5" d="M784.7,358.6h-6.3v-3.4h16.7v3.4h-6.4v18.7h-4V358.6z"/>
		<path class="st5" d="M817.4,366c0,7.4-4.5,11.6-10.6,11.6c-6.2,0-10.2-4.8-10.2-11.3c0-6.8,4.3-11.6,10.5-11.6
			C813.6,354.8,817.4,359.7,817.4,366z M800.8,366.4c0,4.5,2.3,8.1,6.1,8.1c3.9,0,6.1-3.6,6.1-8.3c0-4.2-2.1-8.1-6.1-8.1
			C803,358.1,800.8,361.8,800.8,366.4z"/>
		<path class="st5" d="M820.8,355.5c1.5-0.3,3.8-0.5,6.1-0.5c3.2,0,5.3,0.5,6.8,1.8c1.2,1,1.9,2.5,1.9,4.4c0,2.8-1.9,4.8-4,5.5v0.1
			c1.6,0.6,2.5,2.1,3.1,4.3c0.7,2.8,1.3,5.3,1.7,6.2h-4.1c-0.3-0.6-0.9-2.5-1.5-5.2c-0.6-2.9-1.7-3.8-4-3.9h-2v9.1h-4V355.5z
			 M824.8,365.3h2.4c2.7,0,4.4-1.4,4.4-3.6c0-2.4-1.7-3.5-4.3-3.5c-1.3,0-2.1,0.1-2.5,0.2L824.8,365.3L824.8,365.3z"/>
		<path class="st5" d="M844,371.1l-1.9,6.3h-4.2l7.1-22.1h5.1l7.2,22.1H853l-2-6.3H844z M850.3,368l-1.7-5.5
			c-0.4-1.4-0.8-2.9-1.1-4.2h-0.1c-0.3,1.3-0.7,2.8-1.1,4.1l-1.7,5.5h5.7L850.3,368L850.3,368z"/>
		<path class="st5" d="M878.1,376.3c-1.4,0.5-4.2,1.2-7.1,1.2c-3.7,0-6.6-0.9-8.7-2.9c-2-1.9-3.1-4.8-3.1-8.1c0-7,5-11.5,12.3-11.5
			c2.7,0,4.8,0.6,5.9,1l-0.9,3.3c-1.2-0.5-2.7-0.9-5-0.9c-4.7,0-8,2.8-8,7.9c0,5,3.1,8,7.7,8c1.5,0,2.5-0.2,3.1-0.4v-5.5h-3.9v-3.2
			h7.8L878.1,376.3L878.1,376.3z"/>
		<path class="st5" d="M894.6,367.5h-8.3v6.5h9.3v3.3h-13.4v-22.1h12.9v3.3h-8.8v5.7h8.3V367.5z"/>
	</g>
</g>
</svg>
