<?xml version="1.0" encoding="utf-8"?>
<!-- Generator: Adobe Illustrator 25.2.3, SVG Export Plug-In . SVG Version: 6.00 Build 0)  -->
<svg version="1.1" id="f1410098-b6ef-424e-beee-8c1519bc1d1f"
	 xmlns="http://www.w3.org/2000/svg" xmlns:xlink="http://www.w3.org/1999/xlink" x="0px" y="0px" viewBox="0 0 915.7 679.3"
	 style="enable-background:new 0 0 915.7 679.3;" xml:space="preserve">
<style type="text/css">
	.st0{fill:#BA196D;}
	.st1{fill:#F2218E;}
</style>
<g id="_x31_7">
	<g id="XMLID_925_">
		<g id="XMLID_928_">
			<polygon id="XMLID_931_" class="st0" points="205.5,157.5 224.3,145.3 221.1,92.2 64.3,101.8 45.5,113.9 65.3,119.4 66.1,132.6 
				212.6,274 214.5,306.1 233.3,294 230.1,241.2 127.8,146.4 163.2,146 			"/>
			<path id="XMLID_216_" class="st1" d="M214.5,306.1L47.4,144.8l-1.9-30.8l156.8-9.6l3.2,53.2l-96.4,1l102.3,94.8L214.5,306.1z"/>
		</g>
		<g id="XMLID_212_">
			<polygon id="XMLID_933_" class="st0" points="320.4,110.8 301.6,123 298,181.9 249.3,336.3 287.3,355.3 286.1,376.2 304.8,364.1 
				376,138.6 			"/>
			<path id="XMLID_218_" class="st1" d="M357.2,150.7l-71.1,225.5l-55.5-27.7L301.6,123L357.2,150.7z"/>
		</g>
		<g id="XMLID_180_">
			<polygon id="XMLID_935_" class="st0" points="390.1,176.5 371.3,188.7 393.3,229.7 495.9,330 399.2,325.5 380.4,337.7 
				400.7,351.6 402.4,378.3 531.3,378.8 541,391.1 559.8,378.9 557.9,348.1 			"/>
			<path id="XMLID_243_" class="st1" d="M380.4,337.7l96.8,4.5L374.5,241.9l-3.2-53.2l167.8,171.6l1.9,30.8l-157.4-0.6L380.4,337.7z
				"/>
		</g>
	</g>
	<g id="XMLID_923_">
		<g id="XMLID_178_">
			<path id="XMLID_947_" class="st0" d="M671.1,453.5c-6-8.8-14.4-15.8-24.9-21.1c-11.1-5.6-19.4-6.8-24.9-3.7l-18.8,12.2l13,18.7
				c1.7,7.1,4.7,13.8,9.2,20.1c4.2,5.9,9.4,10.9,15.5,15.2l15,21.4l18.8-12.2c5.5-3.1,7.9-10.1,7.2-20.8
				C680.4,472.2,677.1,462.3,671.1,453.5z"/>
			<path id="XMLID_818_" class="st1" d="M595.2,461.9c-0.7-11,1.7-18,7.2-21.1c5.5-3.1,13.8-1.8,24.9,3.7
				c10.6,5.3,18.9,12.3,24.9,21.1c6,8.8,9.4,18.7,10.1,29.7c0.7,10.7-1.7,17.7-7.2,20.8c-5.5,3.1-13.3,2.1-23.6-3
				c-10.6-5.3-19.1-12.4-25.6-21.4C599.4,482.7,595.9,472.8,595.2,461.9z"/>
		</g>
		<g id="XMLID_930_">
			<path id="XMLID_936_" class="st0" d="M765.1,498.7c-6-8.8-14.4-15.8-24.9-21.1c-11.1-5.6-19.4-6.8-24.9-3.7L696.5,486l13,18.7
				c1.7,7.1,4.7,13.8,9.2,20.1c4.2,5.9,9.4,10.9,15.5,15.2l15,21.4l18.8-12.2c5.5-3.1,7.9-10.1,7.2-20.8
				C774.5,517.4,771.1,507.5,765.1,498.7z"/>
			<path id="XMLID_932_" class="st1" d="M689.3,507.1c-0.7-11,1.7-18,7.2-21.1c5.5-3.1,13.8-1.8,24.9,3.7
				c10.6,5.3,18.9,12.3,24.9,21.1c6,8.8,9.4,18.7,10.1,29.7c0.7,10.7-1.7,17.7-7.2,20.8c-5.5,3.1-13.3,2.1-23.6-3
				c-10.6-5.3-19.1-12.4-25.6-21.4C693.5,527.9,689.9,517.9,689.3,507.1z"/>
		</g>
		<g id="XMLID_941_">
			<path id="XMLID_944_" class="st0" d="M861.2,548.9c-6-8.8-14.4-15.8-24.9-21.1c-11.1-5.6-19.4-6.8-24.9-3.7l-18.8,12.2l13,18.7
				c1.7,7.1,4.7,13.8,9.2,20.1c4.2,5.9,9.4,10.9,15.5,15.2l15,21.4l18.8-12.2c5.5-3.1,7.9-10.1,7.2-20.8
				C870.5,567.6,867.2,557.7,861.2,548.9z"/>
			<path id="XMLID_942_" class="st1" d="M785.3,557.3c-0.7-11,1.7-18,7.2-21.1c5.5-3.1,13.8-1.8,24.9,3.7
				c10.6,5.3,18.9,12.3,24.9,21.1c6,8.8,9.4,18.7,10.1,29.7c0.7,10.7-1.7,17.7-7.2,20.8c-5.5,3.1-13.3,2.1-23.6-3
				c-10.6-5.3-19.1-12.4-25.6-21.4C789.5,578.1,786,568.1,785.3,557.3z"/>
		</g>
	</g>
</g>
</svg>
